<?xml version="1.0" encoding="utf-8"?>
<svg xmlns="http://www.w3.org/2000/svg" xmlns:xlink="http://www.w3.org/1999/xlink" width="800" height="300" viewBox="0 0 3200 1200">
<defs>
  <clipPath id="clip640">
    <rect x="0" y="0" width="3200" height="1200"/>
  </clipPath>
</defs>
<path clip-path="url(#clip640)" d="M0 1200 L3200 1200 L3200 0 L0 0  Z" fill="#ffffff" fill-rule="evenodd" fill-opacity="1"/>
<defs>
  <clipPath id="clip641">
    <rect x="640" y="0" width="2241" height="1200"/>
  </clipPath>
</defs>
<path clip-path="url(#clip640)" d="M219.599 1000.1 L1552.76 1000.1 L1552.76 97.0121 L219.599 97.0121  Z" fill="#ffffff" fill-rule="evenodd" fill-opacity="1"/>
<defs>
  <clipPath id="clip642">
    <rect x="219" y="97" width="1334" height="904"/>
  </clipPath>
</defs>
<polyline clip-path="url(#clip642)" style="stroke:#000000; stroke-linecap:round; stroke-linejoin:round; stroke-width:2; stroke-opacity:0.1; fill:none" points="257.33,1000.1 257.33,97.0121 "/>
<polyline clip-path="url(#clip642)" style="stroke:#000000; stroke-linecap:round; stroke-linejoin:round; stroke-width:2; stroke-opacity:0.1; fill:none" points="536.818,1000.1 536.818,97.0121 "/>
<polyline clip-path="url(#clip642)" style="stroke:#000000; stroke-linecap:round; stroke-linejoin:round; stroke-width:2; stroke-opacity:0.1; fill:none" points="816.306,1000.1 816.306,97.0121 "/>
<polyline clip-path="url(#clip642)" style="stroke:#000000; stroke-linecap:round; stroke-linejoin:round; stroke-width:2; stroke-opacity:0.1; fill:none" points="1095.79,1000.1 1095.79,97.0121 "/>
<polyline clip-path="url(#clip642)" style="stroke:#000000; stroke-linecap:round; stroke-linejoin:round; stroke-width:2; stroke-opacity:0.1; fill:none" points="1375.28,1000.1 1375.28,97.0121 "/>
<polyline clip-path="url(#clip642)" style="stroke:#000000; stroke-linecap:round; stroke-linejoin:round; stroke-width:2; stroke-opacity:0.1; fill:none" points="219.599,985.736 1552.76,985.736 "/>
<polyline clip-path="url(#clip642)" style="stroke:#000000; stroke-linecap:round; stroke-linejoin:round; stroke-width:2; stroke-opacity:0.1; fill:none" points="219.599,778.701 1552.76,778.701 "/>
<polyline clip-path="url(#clip642)" style="stroke:#000000; stroke-linecap:round; stroke-linejoin:round; stroke-width:2; stroke-opacity:0.1; fill:none" points="219.599,571.666 1552.76,571.666 "/>
<polyline clip-path="url(#clip642)" style="stroke:#000000; stroke-linecap:round; stroke-linejoin:round; stroke-width:2; stroke-opacity:0.1; fill:none" points="219.599,364.631 1552.76,364.631 "/>
<polyline clip-path="url(#clip642)" style="stroke:#000000; stroke-linecap:round; stroke-linejoin:round; stroke-width:2; stroke-opacity:0.1; fill:none" points="219.599,157.596 1552.76,157.596 "/>
<polyline clip-path="url(#clip640)" style="stroke:#000000; stroke-linecap:round; stroke-linejoin:round; stroke-width:4; stroke-opacity:1; fill:none" points="219.599,1000.1 1552.76,1000.1 "/>
<polyline clip-path="url(#clip640)" style="stroke:#000000; stroke-linecap:round; stroke-linejoin:round; stroke-width:4; stroke-opacity:1; fill:none" points="257.33,1000.1 257.33,981.2 "/>
<polyline clip-path="url(#clip640)" style="stroke:#000000; stroke-linecap:round; stroke-linejoin:round; stroke-width:4; stroke-opacity:1; fill:none" points="536.818,1000.1 536.818,981.2 "/>
<polyline clip-path="url(#clip640)" style="stroke:#000000; stroke-linecap:round; stroke-linejoin:round; stroke-width:4; stroke-opacity:1; fill:none" points="816.306,1000.1 816.306,981.2 "/>
<polyline clip-path="url(#clip640)" style="stroke:#000000; stroke-linecap:round; stroke-linejoin:round; stroke-width:4; stroke-opacity:1; fill:none" points="1095.79,1000.1 1095.79,981.2 "/>
<polyline clip-path="url(#clip640)" style="stroke:#000000; stroke-linecap:round; stroke-linejoin:round; stroke-width:4; stroke-opacity:1; fill:none" points="1375.28,1000.1 1375.28,981.2 "/>
<path clip-path="url(#clip640)" d="M257.33 1037.42 Q253.719 1037.42 251.89 1040.98 Q250.085 1044.52 250.085 1051.65 Q250.085 1058.76 251.89 1062.32 Q253.719 1065.87 257.33 1065.87 Q260.964 1065.87 262.77 1062.32 Q264.599 1058.76 264.599 1051.65 Q264.599 1044.52 262.77 1040.98 Q260.964 1037.42 257.33 1037.42 M257.33 1033.71 Q263.14 1033.71 266.196 1038.32 Q269.275 1042.9 269.275 1051.65 Q269.275 1060.38 266.196 1064.99 Q263.14 1069.57 257.33 1069.57 Q251.52 1069.57 248.441 1064.99 Q245.386 1060.38 245.386 1051.65 Q245.386 1042.9 248.441 1038.32 Q251.52 1033.71 257.33 1033.71 Z" fill="#000000" fill-rule="nonzero" fill-opacity="1" /><path clip-path="url(#clip640)" d="M515.591 1064.96 L531.911 1064.96 L531.911 1068.9 L509.966 1068.9 L509.966 1064.96 Q512.628 1062.21 517.212 1057.58 Q521.818 1052.93 522.999 1051.58 Q525.244 1049.06 526.124 1047.32 Q527.026 1045.56 527.026 1043.87 Q527.026 1041.12 525.082 1039.38 Q523.161 1037.65 520.059 1037.65 Q517.86 1037.65 515.406 1038.41 Q512.975 1039.18 510.198 1040.73 L510.198 1036 Q513.022 1034.87 515.475 1034.29 Q517.929 1033.71 519.966 1033.71 Q525.337 1033.71 528.531 1036.4 Q531.725 1039.08 531.725 1043.57 Q531.725 1045.7 530.915 1047.62 Q530.128 1049.52 528.022 1052.12 Q527.443 1052.79 524.341 1056 Q521.239 1059.2 515.591 1064.96 Z" fill="#000000" fill-rule="nonzero" fill-opacity="1" /><path clip-path="url(#clip640)" d="M551.725 1037.42 Q548.114 1037.42 546.285 1040.98 Q544.48 1044.52 544.48 1051.65 Q544.48 1058.76 546.285 1062.32 Q548.114 1065.87 551.725 1065.87 Q555.36 1065.87 557.165 1062.32 Q558.994 1058.76 558.994 1051.65 Q558.994 1044.52 557.165 1040.98 Q555.36 1037.42 551.725 1037.42 M551.725 1033.71 Q557.535 1033.71 560.591 1038.32 Q563.67 1042.9 563.67 1051.65 Q563.67 1060.38 560.591 1064.99 Q557.535 1069.57 551.725 1069.57 Q545.915 1069.57 542.836 1064.99 Q539.781 1060.38 539.781 1051.65 Q539.781 1042.9 542.836 1038.32 Q545.915 1033.71 551.725 1033.71 Z" fill="#000000" fill-rule="nonzero" fill-opacity="1" /><path clip-path="url(#clip640)" d="M804.477 1038.41 L792.672 1056.86 L804.477 1056.86 L804.477 1038.41 M803.25 1034.34 L809.13 1034.34 L809.13 1056.86 L814.06 1056.86 L814.06 1060.75 L809.13 1060.75 L809.13 1068.9 L804.477 1068.9 L804.477 1060.75 L788.875 1060.75 L788.875 1056.24 L803.25 1034.34 Z" fill="#000000" fill-rule="nonzero" fill-opacity="1" /><path clip-path="url(#clip640)" d="M831.792 1037.42 Q828.181 1037.42 826.352 1040.98 Q824.546 1044.52 824.546 1051.65 Q824.546 1058.76 826.352 1062.32 Q828.181 1065.87 831.792 1065.87 Q835.426 1065.87 837.232 1062.32 Q839.06 1058.76 839.06 1051.65 Q839.06 1044.52 837.232 1040.98 Q835.426 1037.42 831.792 1037.42 M831.792 1033.71 Q837.602 1033.71 840.657 1038.32 Q843.736 1042.9 843.736 1051.65 Q843.736 1060.38 840.657 1064.99 Q837.602 1069.57 831.792 1069.57 Q825.982 1069.57 822.903 1064.99 Q819.847 1060.38 819.847 1051.65 Q819.847 1042.9 822.903 1038.32 Q825.982 1033.71 831.792 1033.71 Z" fill="#000000" fill-rule="nonzero" fill-opacity="1" /><path clip-path="url(#clip640)" d="M1081.2 1049.75 Q1078.05 1049.75 1076.2 1051.91 Q1074.37 1054.06 1074.37 1057.81 Q1074.37 1061.54 1076.2 1063.71 Q1078.05 1065.87 1081.2 1065.87 Q1084.35 1065.87 1086.18 1063.71 Q1088.03 1061.54 1088.03 1057.81 Q1088.03 1054.06 1086.18 1051.91 Q1084.35 1049.75 1081.2 1049.75 M1090.48 1035.1 L1090.48 1039.36 Q1088.72 1038.53 1086.92 1038.09 Q1085.13 1037.65 1083.37 1037.65 Q1078.74 1037.65 1076.29 1040.77 Q1073.86 1043.9 1073.51 1050.22 Q1074.88 1048.2 1076.94 1047.14 Q1079 1046.05 1081.48 1046.05 Q1086.68 1046.05 1089.69 1049.22 Q1092.73 1052.37 1092.73 1057.81 Q1092.73 1063.13 1089.58 1066.35 Q1086.43 1069.57 1081.2 1069.57 Q1075.2 1069.57 1072.03 1064.99 Q1068.86 1060.38 1068.86 1051.65 Q1068.86 1043.46 1072.75 1038.6 Q1076.64 1033.71 1083.19 1033.71 Q1084.95 1033.71 1086.73 1034.06 Q1088.54 1034.41 1090.48 1035.1 Z" fill="#000000" fill-rule="nonzero" fill-opacity="1" /><path clip-path="url(#clip640)" d="M1110.78 1037.42 Q1107.17 1037.42 1105.34 1040.98 Q1103.54 1044.52 1103.54 1051.65 Q1103.54 1058.76 1105.34 1062.32 Q1107.17 1065.87 1110.78 1065.87 Q1114.42 1065.87 1116.22 1062.32 Q1118.05 1058.76 1118.05 1051.65 Q1118.05 1044.52 1116.22 1040.98 Q1114.42 1037.42 1110.78 1037.42 M1110.78 1033.71 Q1116.59 1033.71 1119.65 1038.32 Q1122.73 1042.9 1122.73 1051.65 Q1122.73 1060.38 1119.65 1064.99 Q1116.59 1069.57 1110.78 1069.57 Q1104.97 1069.57 1101.89 1064.99 Q1098.84 1060.38 1098.84 1051.65 Q1098.84 1042.9 1101.89 1038.32 Q1104.97 1033.71 1110.78 1033.71 Z" fill="#000000" fill-rule="nonzero" fill-opacity="1" /><path clip-path="url(#clip640)" d="M1360.15 1052.49 Q1356.82 1052.49 1354.9 1054.27 Q1353 1056.05 1353 1059.18 Q1353 1062.3 1354.9 1064.08 Q1356.82 1065.87 1360.15 1065.87 Q1363.49 1065.87 1365.41 1064.08 Q1367.33 1062.28 1367.33 1059.18 Q1367.33 1056.05 1365.41 1054.27 Q1363.51 1052.49 1360.15 1052.49 M1355.48 1050.5 Q1352.47 1049.75 1350.78 1047.69 Q1349.11 1045.63 1349.11 1042.67 Q1349.11 1038.53 1352.05 1036.12 Q1355.02 1033.71 1360.15 1033.71 Q1365.32 1033.71 1368.26 1036.12 Q1371.2 1038.53 1371.2 1042.67 Q1371.2 1045.63 1369.51 1047.69 Q1367.84 1049.75 1364.85 1050.5 Q1368.23 1051.28 1370.11 1053.57 Q1372.01 1055.87 1372.01 1059.18 Q1372.01 1064.2 1368.93 1066.88 Q1365.87 1069.57 1360.15 1069.57 Q1354.44 1069.57 1351.36 1066.88 Q1348.3 1064.2 1348.3 1059.18 Q1348.3 1055.87 1350.2 1053.57 Q1352.1 1051.28 1355.48 1050.5 M1353.77 1043.11 Q1353.77 1045.8 1355.43 1047.3 Q1357.12 1048.81 1360.15 1048.81 Q1363.16 1048.81 1364.85 1047.3 Q1366.57 1045.8 1366.57 1043.11 Q1366.57 1040.43 1364.85 1038.92 Q1363.16 1037.42 1360.15 1037.42 Q1357.12 1037.42 1355.43 1038.92 Q1353.77 1040.43 1353.77 1043.11 Z" fill="#000000" fill-rule="nonzero" fill-opacity="1" /><path clip-path="url(#clip640)" d="M1390.32 1037.42 Q1386.7 1037.42 1384.88 1040.98 Q1383.07 1044.52 1383.07 1051.65 Q1383.07 1058.76 1384.88 1062.32 Q1386.7 1065.87 1390.32 1065.87 Q1393.95 1065.87 1395.76 1062.32 Q1397.58 1058.76 1397.58 1051.65 Q1397.58 1044.52 1395.76 1040.98 Q1393.95 1037.42 1390.32 1037.42 M1390.32 1033.71 Q1396.13 1033.71 1399.18 1038.32 Q1402.26 1042.9 1402.26 1051.65 Q1402.26 1060.38 1399.18 1064.99 Q1396.13 1069.57 1390.32 1069.57 Q1384.51 1069.57 1381.43 1064.99 Q1378.37 1060.38 1378.37 1051.65 Q1378.37 1042.9 1381.43 1038.32 Q1384.51 1033.71 1390.32 1033.71 Z" fill="#000000" fill-rule="nonzero" fill-opacity="1" /><path clip-path="url(#clip640)" d="M902.792 1121.31 L889.902 1138.66 L903.461 1156.96 L896.554 1156.96 L886.178 1142.96 L875.802 1156.96 L868.895 1156.96 L882.74 1138.31 L870.072 1121.31 L876.979 1121.31 L886.432 1134.01 L895.885 1121.31 L902.792 1121.31 Z" fill="#000000" fill-rule="nonzero" fill-opacity="1" /><polyline clip-path="url(#clip640)" style="stroke:#000000; stroke-linecap:round; stroke-linejoin:round; stroke-width:4; stroke-opacity:1; fill:none" points="219.599,1000.1 219.599,97.0121 "/>
<polyline clip-path="url(#clip640)" style="stroke:#000000; stroke-linecap:round; stroke-linejoin:round; stroke-width:4; stroke-opacity:1; fill:none" points="219.599,985.736 238.497,985.736 "/>
<polyline clip-path="url(#clip640)" style="stroke:#000000; stroke-linecap:round; stroke-linejoin:round; stroke-width:4; stroke-opacity:1; fill:none" points="219.599,778.701 238.497,778.701 "/>
<polyline clip-path="url(#clip640)" style="stroke:#000000; stroke-linecap:round; stroke-linejoin:round; stroke-width:4; stroke-opacity:1; fill:none" points="219.599,571.666 238.497,571.666 "/>
<polyline clip-path="url(#clip640)" style="stroke:#000000; stroke-linecap:round; stroke-linejoin:round; stroke-width:4; stroke-opacity:1; fill:none" points="219.599,364.631 238.497,364.631 "/>
<polyline clip-path="url(#clip640)" style="stroke:#000000; stroke-linecap:round; stroke-linejoin:round; stroke-width:4; stroke-opacity:1; fill:none" points="219.599,157.596 238.497,157.596 "/>
<path clip-path="url(#clip640)" d="M159.655 971.535 Q156.044 971.535 154.215 975.1 Q152.41 978.641 152.41 985.771 Q152.41 992.877 154.215 996.442 Q156.044 999.984 159.655 999.984 Q163.289 999.984 165.095 996.442 Q166.923 992.877 166.923 985.771 Q166.923 978.641 165.095 975.1 Q163.289 971.535 159.655 971.535 M159.655 967.831 Q165.465 967.831 168.521 972.438 Q171.599 977.021 171.599 985.771 Q171.599 994.498 168.521 999.104 Q165.465 1003.69 159.655 1003.69 Q153.845 1003.69 150.766 999.104 Q147.711 994.498 147.711 985.771 Q147.711 977.021 150.766 972.438 Q153.845 967.831 159.655 967.831 Z" fill="#000000" fill-rule="nonzero" fill-opacity="1" /><path clip-path="url(#clip640)" d="M124.516 792.046 L140.836 792.046 L140.836 795.981 L118.891 795.981 L118.891 792.046 Q121.553 789.291 126.137 784.662 Q130.743 780.009 131.924 778.667 Q134.169 776.143 135.049 774.407 Q135.951 772.648 135.951 770.958 Q135.951 768.204 134.007 766.468 Q132.086 764.731 128.984 764.731 Q126.785 764.731 124.331 765.495 Q121.901 766.259 119.123 767.81 L119.123 763.088 Q121.947 761.954 124.401 761.375 Q126.854 760.796 128.891 760.796 Q134.262 760.796 137.456 763.481 Q140.65 766.167 140.65 770.657 Q140.65 772.787 139.84 774.708 Q139.053 776.606 136.947 779.199 Q136.368 779.87 133.266 783.088 Q130.164 786.282 124.516 792.046 Z" fill="#000000" fill-rule="nonzero" fill-opacity="1" /><path clip-path="url(#clip640)" d="M150.697 761.421 L169.053 761.421 L169.053 765.356 L154.979 765.356 L154.979 773.829 Q155.998 773.481 157.016 773.319 Q158.035 773.134 159.053 773.134 Q164.84 773.134 168.22 776.305 Q171.599 779.477 171.599 784.893 Q171.599 790.472 168.127 793.574 Q164.655 796.653 158.336 796.653 Q156.16 796.653 153.891 796.282 Q151.646 795.912 149.238 795.171 L149.238 790.472 Q151.322 791.606 153.544 792.162 Q155.766 792.717 158.243 792.717 Q162.248 792.717 164.585 790.611 Q166.923 788.504 166.923 784.893 Q166.923 781.282 164.585 779.176 Q162.248 777.069 158.243 777.069 Q156.368 777.069 154.493 777.486 Q152.641 777.903 150.697 778.782 L150.697 761.421 Z" fill="#000000" fill-rule="nonzero" fill-opacity="1" /><path clip-path="url(#clip640)" d="M119.539 554.386 L137.896 554.386 L137.896 558.322 L123.822 558.322 L123.822 566.794 Q124.84 566.446 125.859 566.284 Q126.877 566.099 127.896 566.099 Q133.683 566.099 137.062 569.271 Q140.442 572.442 140.442 577.858 Q140.442 583.437 136.97 586.539 Q133.498 589.618 127.178 589.618 Q125.002 589.618 122.734 589.247 Q120.489 588.877 118.081 588.136 L118.081 583.437 Q120.164 584.571 122.387 585.127 Q124.609 585.682 127.086 585.682 Q131.09 585.682 133.428 583.576 Q135.766 581.47 135.766 577.858 Q135.766 574.247 133.428 572.141 Q131.09 570.034 127.086 570.034 Q125.211 570.034 123.336 570.451 Q121.484 570.868 119.539 571.747 L119.539 554.386 Z" fill="#000000" fill-rule="nonzero" fill-opacity="1" /><path clip-path="url(#clip640)" d="M159.655 557.465 Q156.044 557.465 154.215 561.03 Q152.41 564.571 152.41 571.701 Q152.41 578.808 154.215 582.372 Q156.044 585.914 159.655 585.914 Q163.289 585.914 165.095 582.372 Q166.923 578.808 166.923 571.701 Q166.923 564.571 165.095 561.03 Q163.289 557.465 159.655 557.465 M159.655 553.761 Q165.465 553.761 168.521 558.368 Q171.599 562.951 171.599 571.701 Q171.599 580.428 168.521 585.034 Q165.465 589.618 159.655 589.618 Q153.845 589.618 150.766 585.034 Q147.711 580.428 147.711 571.701 Q147.711 562.951 150.766 558.368 Q153.845 553.761 159.655 553.761 Z" fill="#000000" fill-rule="nonzero" fill-opacity="1" /><path clip-path="url(#clip640)" d="M119.308 347.351 L141.53 347.351 L141.53 349.342 L128.984 381.911 L124.1 381.911 L135.905 351.287 L119.308 351.287 L119.308 347.351 Z" fill="#000000" fill-rule="nonzero" fill-opacity="1" /><path clip-path="url(#clip640)" d="M150.697 347.351 L169.053 347.351 L169.053 351.287 L154.979 351.287 L154.979 359.759 Q155.998 359.412 157.016 359.25 Q158.035 359.064 159.053 359.064 Q164.84 359.064 168.22 362.236 Q171.599 365.407 171.599 370.824 Q171.599 376.402 168.127 379.504 Q164.655 382.583 158.336 382.583 Q156.16 382.583 153.891 382.212 Q151.646 381.842 149.238 381.101 L149.238 376.402 Q151.322 377.536 153.544 378.092 Q155.766 378.648 158.243 378.648 Q162.248 378.648 164.585 376.541 Q166.923 374.435 166.923 370.824 Q166.923 367.212 164.585 365.106 Q162.248 362.999 158.243 362.999 Q156.368 362.999 154.493 363.416 Q152.641 363.833 150.697 364.712 L150.697 347.351 Z" fill="#000000" fill-rule="nonzero" fill-opacity="1" /><path clip-path="url(#clip640)" d="M90.1415 170.941 L97.7803 170.941 L97.7803 144.576 L89.4702 146.242 L89.4702 141.983 L97.734 140.316 L102.41 140.316 L102.41 170.941 L110.049 170.941 L110.049 174.876 L90.1415 174.876 L90.1415 170.941 Z" fill="#000000" fill-rule="nonzero" fill-opacity="1" /><path clip-path="url(#clip640)" d="M129.493 143.395 Q125.882 143.395 124.053 146.96 Q122.248 150.502 122.248 157.631 Q122.248 164.738 124.053 168.302 Q125.882 171.844 129.493 171.844 Q133.127 171.844 134.933 168.302 Q136.762 164.738 136.762 157.631 Q136.762 150.502 134.933 146.96 Q133.127 143.395 129.493 143.395 M129.493 139.692 Q135.303 139.692 138.359 144.298 Q141.437 148.881 141.437 157.631 Q141.437 166.358 138.359 170.964 Q135.303 175.548 129.493 175.548 Q123.683 175.548 120.604 170.964 Q117.549 166.358 117.549 157.631 Q117.549 148.881 120.604 144.298 Q123.683 139.692 129.493 139.692 Z" fill="#000000" fill-rule="nonzero" fill-opacity="1" /><path clip-path="url(#clip640)" d="M159.655 143.395 Q156.044 143.395 154.215 146.96 Q152.41 150.502 152.41 157.631 Q152.41 164.738 154.215 168.302 Q156.044 171.844 159.655 171.844 Q163.289 171.844 165.095 168.302 Q166.923 164.738 166.923 157.631 Q166.923 150.502 165.095 146.96 Q163.289 143.395 159.655 143.395 M159.655 139.692 Q165.465 139.692 168.521 144.298 Q171.599 148.881 171.599 157.631 Q171.599 166.358 168.521 170.964 Q165.465 175.548 159.655 175.548 Q153.845 175.548 150.766 170.964 Q147.711 166.358 147.711 157.631 Q147.711 148.881 150.766 144.298 Q153.845 139.692 159.655 139.692 Z" fill="#000000" fill-rule="nonzero" fill-opacity="1" /><path clip-path="url(#clip640)" d="M30.5243 546.868 Q36.89 549.351 38.8316 551.706 Q40.7731 554.061 40.7731 558.008 L40.7731 562.687 L35.8715 562.687 L35.8715 559.249 Q35.8715 556.83 34.7257 555.494 Q33.5799 554.157 29.3148 552.533 L26.6412 551.483 L-8.4338 565.901 L-8.4338 559.695 L19.448 548.555 L-8.4338 537.415 L-8.4338 531.208 L30.5243 546.868 Z" fill="#000000" fill-rule="nonzero" fill-opacity="1" /><path clip-path="url(#clip640)" d="M227.782 18.8205 L227.782 41.5461 L238.071 41.5461 Q243.783 41.5461 246.902 38.5889 Q250.022 35.6318 250.022 30.163 Q250.022 24.7348 246.902 21.7777 Q243.783 18.8205 238.071 18.8205 L227.782 18.8205 M219.599 12.096 L238.071 12.096 Q248.239 12.096 253.424 16.714 Q258.65 21.2916 258.65 30.163 Q258.65 39.1155 253.424 43.6931 Q248.239 48.2706 238.071 48.2706 L227.782 48.2706 L227.782 72.576 L219.599 72.576 L219.599 12.096 Z" fill="#000000" fill-rule="nonzero" fill-opacity="1" /><path clip-path="url(#clip640)" d="M283.928 32.4315 Q277.932 32.4315 274.449 37.1306 Q270.965 41.7891 270.965 49.9314 Q270.965 58.0738 274.408 62.7728 Q277.892 67.4314 283.928 67.4314 Q289.883 67.4314 293.366 62.7323 Q296.85 58.0333 296.85 49.9314 Q296.85 41.8701 293.366 37.1711 Q289.883 32.4315 283.928 32.4315 M283.928 26.1121 Q293.65 26.1121 299.2 32.4315 Q304.749 38.7509 304.749 49.9314 Q304.749 61.0714 299.2 67.4314 Q293.65 73.7508 283.928 73.7508 Q274.165 73.7508 268.615 67.4314 Q263.106 61.0714 263.106 49.9314 Q263.106 38.7509 268.615 32.4315 Q274.165 26.1121 283.928 26.1121 Z" fill="#000000" fill-rule="nonzero" fill-opacity="1" /><path clip-path="url(#clip640)" d="M324.315 65.7705 L324.315 89.8329 L316.821 89.8329 L316.821 27.2059 L324.315 27.2059 L324.315 34.0924 Q326.665 30.0415 330.23 28.0971 Q333.835 26.1121 338.817 26.1121 Q347.081 26.1121 352.226 32.6746 Q357.411 39.2371 357.411 49.9314 Q357.411 60.6258 352.226 67.1883 Q347.081 73.7508 338.817 73.7508 Q333.835 73.7508 330.23 71.8063 Q326.665 69.8214 324.315 65.7705 M349.674 49.9314 Q349.674 41.7081 346.271 37.0496 Q342.909 32.3505 336.995 32.3505 Q331.08 32.3505 327.677 37.0496 Q324.315 41.7081 324.315 49.9314 Q324.315 58.1548 327.677 62.8538 Q331.08 67.5124 336.995 67.5124 Q342.909 67.5124 346.271 62.8538 Q349.674 58.1548 349.674 49.9314 Z" fill="#000000" fill-rule="nonzero" fill-opacity="1" /><path clip-path="url(#clip640)" d="M368.997 54.671 L368.997 27.2059 L376.45 27.2059 L376.45 54.3874 Q376.45 60.8284 378.962 64.0691 Q381.473 67.2693 386.497 67.2693 Q392.532 67.2693 396.016 63.421 Q399.541 59.5726 399.541 52.9291 L399.541 27.2059 L406.994 27.2059 L406.994 72.576 L399.541 72.576 L399.541 65.6084 Q396.826 69.7404 393.221 71.7658 Q389.656 73.7508 384.917 73.7508 Q377.099 73.7508 373.048 68.8897 Q368.997 64.0286 368.997 54.671 M387.752 26.1121 L387.752 26.1121 Z" fill="#000000" fill-rule="nonzero" fill-opacity="1" /><path clip-path="url(#clip640)" d="M422.347 9.54393 L429.801 9.54393 L429.801 72.576 L422.347 72.576 L422.347 9.54393 Z" fill="#000000" fill-rule="nonzero" fill-opacity="1" /><path clip-path="url(#clip640)" d="M466.016 49.7694 Q456.982 49.7694 453.499 51.8354 Q450.015 53.9013 450.015 58.8839 Q450.015 62.8538 452.607 65.2034 Q455.24 67.5124 459.737 67.5124 Q465.935 67.5124 469.662 63.1374 Q473.429 58.7219 473.429 51.4303 L473.429 49.7694 L466.016 49.7694 M480.883 46.6907 L480.883 72.576 L473.429 72.576 L473.429 65.6895 Q470.877 69.8214 467.069 71.8063 Q463.261 73.7508 457.752 73.7508 Q450.784 73.7508 446.653 69.8619 Q442.561 65.9325 442.561 59.3701 Q442.561 51.7138 447.665 47.825 Q452.81 43.9361 462.978 43.9361 L473.429 43.9361 L473.429 43.2069 Q473.429 38.0623 470.026 35.2672 Q466.664 32.4315 460.547 32.4315 Q456.658 32.4315 452.972 33.3632 Q449.286 34.295 445.883 36.1584 L445.883 29.2718 Q449.974 27.692 453.823 26.9223 Q457.671 26.1121 461.317 26.1121 Q471.16 26.1121 476.022 31.2163 Q480.883 36.3204 480.883 46.6907 Z" fill="#000000" fill-rule="nonzero" fill-opacity="1" /><path clip-path="url(#clip640)" d="M503.608 14.324 L503.608 27.2059 L518.961 27.2059 L518.961 32.9987 L503.608 32.9987 L503.608 57.6282 Q503.608 63.1779 505.107 64.7578 Q506.646 66.3376 511.305 66.3376 L518.961 66.3376 L518.961 72.576 L511.305 72.576 Q502.677 72.576 499.395 69.3758 Q496.114 66.1351 496.114 57.6282 L496.114 32.9987 L490.645 32.9987 L490.645 27.2059 L496.114 27.2059 L496.114 14.324 L503.608 14.324 Z" fill="#000000" fill-rule="nonzero" fill-opacity="1" /><path clip-path="url(#clip640)" d="M528.764 27.2059 L536.218 27.2059 L536.218 72.576 L528.764 72.576 L528.764 27.2059 M528.764 9.54393 L536.218 9.54393 L536.218 18.9825 L528.764 18.9825 L528.764 9.54393 Z" fill="#000000" fill-rule="nonzero" fill-opacity="1" /><path clip-path="url(#clip640)" d="M569.395 32.4315 Q563.4 32.4315 559.916 37.1306 Q556.432 41.7891 556.432 49.9314 Q556.432 58.0738 559.875 62.7728 Q563.359 67.4314 569.395 67.4314 Q575.35 67.4314 578.834 62.7323 Q582.317 58.0333 582.317 49.9314 Q582.317 41.8701 578.834 37.1711 Q575.35 32.4315 569.395 32.4315 M569.395 26.1121 Q579.117 26.1121 584.667 32.4315 Q590.217 38.7509 590.217 49.9314 Q590.217 61.0714 584.667 67.4314 Q579.117 73.7508 569.395 73.7508 Q559.632 73.7508 554.083 67.4314 Q548.573 61.0714 548.573 49.9314 Q548.573 38.7509 554.083 32.4315 Q559.632 26.1121 569.395 26.1121 Z" fill="#000000" fill-rule="nonzero" fill-opacity="1" /><path clip-path="url(#clip640)" d="M640.286 45.1919 L640.286 72.576 L632.832 72.576 L632.832 45.4349 Q632.832 38.994 630.321 35.7938 Q627.809 32.5936 622.786 32.5936 Q616.75 32.5936 613.266 36.4419 Q609.782 40.2903 609.782 46.9338 L609.782 72.576 L602.288 72.576 L602.288 27.2059 L609.782 27.2059 L609.782 34.2544 Q612.456 30.163 616.061 28.1376 Q619.707 26.1121 624.447 26.1121 Q632.265 26.1121 636.275 30.9732 Q640.286 35.7938 640.286 45.1919 Z" fill="#000000" fill-rule="nonzero" fill-opacity="1" /><path clip-path="url(#clip640)" d="M723.086 63.9476 L723.086 47.7034 L709.718 47.7034 L709.718 40.9789 L731.188 40.9789 L731.188 66.9452 Q726.448 70.3075 720.737 72.0494 Q715.025 73.7508 708.543 73.7508 Q694.365 73.7508 686.345 65.4869 Q678.364 57.1826 678.364 42.3968 Q678.364 27.5705 686.345 19.3066 Q694.365 11.0023 708.543 11.0023 Q714.458 11.0023 719.764 12.4606 Q725.112 13.9189 729.608 16.7545 L729.608 25.464 Q725.071 21.6156 719.967 19.6712 Q714.863 17.7268 709.232 17.7268 Q698.133 17.7268 692.542 23.9246 Q686.993 30.1225 686.993 42.3968 Q686.993 54.6305 692.542 60.8284 Q698.133 67.0263 709.232 67.0263 Q713.567 67.0263 716.969 66.2971 Q720.372 65.5274 723.086 63.9476 Z" fill="#000000" fill-rule="nonzero" fill-opacity="1" /><path clip-path="url(#clip640)" d="M772.102 34.1734 Q770.846 33.4443 769.348 33.1202 Q767.889 32.7556 766.107 32.7556 Q759.787 32.7556 756.385 36.8875 Q753.022 40.9789 753.022 48.6757 L753.022 72.576 L745.528 72.576 L745.528 27.2059 L753.022 27.2059 L753.022 34.2544 Q755.372 30.1225 759.139 28.1376 Q762.907 26.1121 768.294 26.1121 Q769.064 26.1121 769.996 26.2337 Q770.927 26.3147 772.062 26.5172 L772.102 34.1734 Z" fill="#000000" fill-rule="nonzero" fill-opacity="1" /><path clip-path="url(#clip640)" d="M795.678 32.4315 Q789.683 32.4315 786.199 37.1306 Q782.716 41.7891 782.716 49.9314 Q782.716 58.0738 786.159 62.7728 Q789.643 67.4314 795.678 67.4314 Q801.633 67.4314 805.117 62.7323 Q808.601 58.0333 808.601 49.9314 Q808.601 41.8701 805.117 37.1711 Q801.633 32.4315 795.678 32.4315 M795.678 26.1121 Q805.401 26.1121 810.95 32.4315 Q816.5 38.7509 816.5 49.9314 Q816.5 61.0714 810.95 67.4314 Q805.401 73.7508 795.678 73.7508 Q785.916 73.7508 780.366 67.4314 Q774.857 61.0714 774.857 49.9314 Q774.857 38.7509 780.366 32.4315 Q785.916 26.1121 795.678 26.1121 Z" fill="#000000" fill-rule="nonzero" fill-opacity="1" /><path clip-path="url(#clip640)" d="M824.521 27.2059 L831.975 27.2059 L841.292 62.6108 L850.568 27.2059 L859.359 27.2059 L868.676 62.6108 L877.952 27.2059 L885.406 27.2059 L873.537 72.576 L864.746 72.576 L854.984 35.3887 L845.18 72.576 L836.39 72.576 L824.521 27.2059 Z" fill="#000000" fill-rule="nonzero" fill-opacity="1" /><path clip-path="url(#clip640)" d="M904.081 14.324 L904.081 27.2059 L919.434 27.2059 L919.434 32.9987 L904.081 32.9987 L904.081 57.6282 Q904.081 63.1779 905.579 64.7578 Q907.119 66.3376 911.777 66.3376 L919.434 66.3376 L919.434 72.576 L911.777 72.576 Q903.149 72.576 899.868 69.3758 Q896.586 66.1351 896.586 57.6282 L896.586 32.9987 L891.118 32.9987 L891.118 27.2059 L896.586 27.2059 L896.586 14.324 L904.081 14.324 Z" fill="#000000" fill-rule="nonzero" fill-opacity="1" /><path clip-path="url(#clip640)" d="M966.951 45.1919 L966.951 72.576 L959.497 72.576 L959.497 45.4349 Q959.497 38.994 956.985 35.7938 Q954.474 32.5936 949.451 32.5936 Q943.415 32.5936 939.931 36.4419 Q936.447 40.2903 936.447 46.9338 L936.447 72.576 L928.953 72.576 L928.953 9.54393 L936.447 9.54393 L936.447 34.2544 Q939.121 30.163 942.726 28.1376 Q946.372 26.1121 951.112 26.1121 Q958.93 26.1121 962.94 30.9732 Q966.951 35.7938 966.951 45.1919 Z" fill="#000000" fill-rule="nonzero" fill-opacity="1" /><circle clip-path="url(#clip642)" cx="257.33" cy="902.922" r="14.4" fill="#009af9" fill-rule="evenodd" fill-opacity="0.3" stroke="#000000" stroke-opacity="0.3" stroke-width="2.4"/>
<circle clip-path="url(#clip642)" cx="397.074" cy="820.108" r="14.4" fill="#009af9" fill-rule="evenodd" fill-opacity="0.3" stroke="#000000" stroke-opacity="0.3" stroke-width="2.4"/>
<circle clip-path="url(#clip642)" cx="536.818" cy="604.792" r="14.4" fill="#009af9" fill-rule="evenodd" fill-opacity="0.3" stroke="#000000" stroke-opacity="0.3" stroke-width="2.4"/>
<circle clip-path="url(#clip642)" cx="676.562" cy="348.069" r="14.4" fill="#009af9" fill-rule="evenodd" fill-opacity="0.3" stroke="#000000" stroke-opacity="0.3" stroke-width="2.4"/>
<circle clip-path="url(#clip642)" cx="816.306" cy="240.41" r="14.4" fill="#009af9" fill-rule="evenodd" fill-opacity="0.3" stroke="#000000" stroke-opacity="0.3" stroke-width="2.4"/>
<circle clip-path="url(#clip642)" cx="956.05" cy="182.441" r="14.4" fill="#009af9" fill-rule="evenodd" fill-opacity="0.3" stroke="#000000" stroke-opacity="0.3" stroke-width="2.4"/>
<circle clip-path="url(#clip642)" cx="1095.79" cy="157.596" r="14.4" fill="#009af9" fill-rule="evenodd" fill-opacity="0.3" stroke="#000000" stroke-opacity="0.3" stroke-width="2.4"/>
<circle clip-path="url(#clip642)" cx="1235.54" cy="157.596" r="14.4" fill="#009af9" fill-rule="evenodd" fill-opacity="0.3" stroke="#000000" stroke-opacity="0.3" stroke-width="2.4"/>
<circle clip-path="url(#clip642)" cx="1375.28" cy="157.596" r="14.4" fill="#009af9" fill-rule="evenodd" fill-opacity="0.3" stroke="#000000" stroke-opacity="0.3" stroke-width="2.4"/>
<circle clip-path="url(#clip642)" cx="1515.03" cy="157.596" r="14.4" fill="#009af9" fill-rule="evenodd" fill-opacity="0.3" stroke="#000000" stroke-opacity="0.3" stroke-width="2.4"/>
<path clip-path="url(#clip642)" d="M257.33 974.539 L263.65 965.649 L269.97 957.11 L276.29 948.099 L282.61 939.386 L288.931 930.61 L295.251 922.025 L301.571 913.532 L307.891 904.709 L314.211 896.187 L320.531 887.665 L326.851 879.093 L333.171 870.537 L339.491 861.844 L345.811 853.26 L352.131 844.725 L358.451 836.012 L364.771 827.78 L371.092 819.324 L377.412 810.837 L383.732 802.343 L390.052 793.584 L396.372 784.74 L402.692 776.046 L409.012 767.537 L415.332 758.88 L421.652 750.373 L427.972 741.818 L434.292 733.416 L440.612 724.953 L446.932 716.479 L453.253 708.006 L459.573 699.501 L465.893 691.111 L472.213 682.826 L478.533 674.579 L484.853 666.35 L491.173 658.237 L497.493 649.921 L503.813 641.46 L510.133 633.432 L516.453 625.214 L522.773 616.983 L529.093 609.117 L535.413 601.116 L541.734 592.922 L548.054 584.693 L554.374 576.538 L560.694 568.359 L567.014 560.054 L573.334 551.984 L579.654 544.077 L585.974 536.007 L592.294 527.924 L598.614 519.894 L604.934 511.97 L611.254 504.05 L617.574 496.198 L623.895 488.362 L630.215 480.321 L636.535 472.606 L642.855 464.592 L649.175 456.738 L655.495 449.072 L661.815 441.174 L668.135 433.351 L674.455 425.496 L680.775 417.717 L687.095 410.039 L693.415 402.186 L699.735 394.161 L706.055 386.382 L712.376 378.469 L718.696 370.682 L725.016 363.002 L731.336 355.342 L737.656 347.691 L743.976 340.04 L750.296 332.389 L756.616 324.738 L762.936 317.115 L769.256 309.424 L775.576 301.719 L781.896 294.026 L788.216 286.293 L794.537 278.542 L800.857 270.895 L807.177 263.036 L813.497 255.177 L819.817 247.318 L826.137 239.509 L832.457 233.059 L838.777 227.029 L845.097 222.951 L851.417 220.138 L857.737 218.692 L864.057 217.837 L870.377 217.021 L876.698 216.222 L883.018 215.396 L889.338 214.601 L895.658 213.872 L901.978 213.144 L908.298 212.51 L914.618 211.737 L920.938 211.103 L927.258 210.339 L933.578 209.498 L939.898 208.771 L946.218 208.043 L952.538 207.316 L958.858 206.588 L965.179 205.859 L971.499 205.148 L977.819 204.362 L984.139 203.512 L990.459 202.884 L996.779 202.091 L1003.1 201.359 L1009.42 200.553 L1015.74 199.602 L1022.06 198.72 L1028.38 198.141 L1034.7 197.606 L1041.02 196.785 L1047.34 196.067 L1053.66 195.421 L1059.98 194.779 L1066.3 194.137 L1072.62 193.495 L1078.94 192.853 L1085.26 192.174 L1091.58 191.337 L1097.9 190.58 L1104.22 189.937 L1110.54 189.324 L1116.86 188.75 L1123.18 188.273 L1129.5 187.584 L1135.82 186.878 L1142.14 186.433 L1148.46 185.855 L1154.78 185.386 L1161.1 184.901 L1167.42 184.407 L1173.74 184.046 L1180.06 183.462 L1186.38 183.015 L1192.7 182.543 L1199.02 182.006 L1205.34 181.57 L1211.66 181.33 L1217.98 180.963 L1224.3 180.693 L1230.62 180.406 L1236.94 180.141 L1243.26 179.745 L1249.58 179.473 L1255.9 179.112 L1262.22 179.168 L1268.54 178.824 L1274.86 178.486 L1281.18 178.28 L1287.5 177.974 L1293.82 177.691 L1300.14 177.579 L1306.46 177.533 L1312.78 177.431 L1319.1 177.442 L1325.42 177.455 L1331.74 177.431 L1338.06 177.281 L1344.38 177.136 L1350.7 177.186 L1357.02 177.253 L1363.34 177.451 L1369.66 177.542 L1375.98 177.554 L1382.3 177.447 L1388.62 177.493 L1394.94 177.507 L1401.26 177.594 L1407.58 177.547 L1413.9 177.589 L1420.22 177.641 L1426.54 177.654 L1432.86 177.8 L1439.18 177.905 L1445.5 177.961 L1451.82 178.07 L1458.14 178.397 L1464.46 178.512 L1470.78 178.634 L1477.1 178.752 L1483.42 178.925 L1489.74 179.042 L1496.06 179.33 L1502.38 179.634 L1508.7 179.93 L1515.03 180.208 L1515.03 122.571 L1508.7 123.421 L1502.38 124.134 L1496.06 124.886 L1489.74 125.725 L1483.42 126.569 L1477.1 127.379 L1470.78 127.944 L1464.46 128.753 L1458.14 129.379 L1451.82 129.991 L1445.5 130.497 L1439.18 130.961 L1432.86 131.602 L1426.54 132.348 L1420.22 133.017 L1413.9 133.653 L1407.58 134.344 L1401.26 134.776 L1394.94 135.574 L1388.62 136.217 L1382.3 136.826 L1375.98 137.393 L1369.66 137.978 L1363.34 138.609 L1357.02 139.105 L1350.7 139.666 L1344.38 140.127 L1338.06 140.4 L1331.74 140.927 L1325.42 141.384 L1319.1 142.037 L1312.78 142.538 L1306.46 143.202 L1300.14 143.69 L1293.82 144.098 L1287.5 144.405 L1281.18 144.924 L1274.86 145.185 L1268.54 145.743 L1262.22 146.147 L1255.9 146.413 L1249.58 146.643 L1243.26 147.038 L1236.94 147.65 L1230.62 147.794 L1224.3 148.22 L1217.98 148.19 L1211.66 148.241 L1205.34 148.544 L1199.02 148.562 L1192.7 148.798 L1186.38 148.677 L1180.06 148.805 L1173.74 148.868 L1167.42 149.046 L1161.1 149.036 L1154.78 149.32 L1148.46 149.198 L1142.14 149.25 L1135.82 149.103 L1129.5 149.098 L1123.18 149.191 L1116.86 149.284 L1110.54 149.215 L1104.22 149.255 L1097.9 149.1 L1091.58 148.828 L1085.26 148.748 L1078.94 148.643 L1072.62 148.813 L1066.3 148.5 L1059.98 148.418 L1053.66 148.423 L1047.34 148.43 L1041.02 148.438 L1034.7 148.309 L1028.38 148.181 L1022.06 148.051 L1015.74 147.856 L1009.42 147.772 L1003.1 147.666 L996.779 147.537 L990.459 147.409 L984.139 147.263 L977.819 146.96 L971.499 146.753 L965.179 146.823 L958.858 146.763 L952.538 146.515 L946.218 146.263 L939.898 146.011 L933.578 145.76 L927.258 145.508 L920.938 145.274 L914.618 145.26 L908.298 145.293 L901.978 145.021 L895.658 144.754 L889.338 144.853 L883.018 146.543 L876.698 148.837 L870.377 150.268 L864.057 154.242 L857.737 158.009 L851.417 163.053 L845.097 167.467 L838.777 174.609 L832.457 180.929 L826.137 186.875 L819.817 192.845 L813.497 198.971 L807.177 204.011 L800.857 208.397 L794.537 213.104 L788.216 219.553 L781.896 226.308 L775.576 234.794 L769.256 242.399 L762.936 251.195 L756.616 259.992 L750.296 268.788 L743.976 277.585 L737.656 286.421 L731.336 295.176 L725.016 303.96 L718.696 312.545 L712.376 321.202 L706.055 329.986 L699.735 338.614 L693.415 347.287 L687.095 356.09 L680.775 365.017 L674.455 373.879 L668.135 382.513 L661.815 391.069 L655.495 399.813 L649.175 408.765 L642.855 417.834 L636.535 426.478 L630.215 435.017 L623.895 443.988 L617.574 452.866 L611.254 461.816 L604.934 470.777 L598.614 479.474 L592.294 487.704 L585.974 496.001 L579.654 504.675 L573.334 513.072 L567.014 522.009 L560.694 530.291 L554.374 538.966 L548.054 547.73 L541.734 556.14 L535.413 564.394 L529.093 572.762 L522.773 581.218 L516.453 589.773 L510.133 598.437 L503.813 606.834 L497.493 614.928 L491.173 622.996 L484.853 631.227 L478.533 639.406 L472.213 647.683 L465.893 655.82 L459.573 663.789 L453.253 671.939 L446.932 680.172 L440.612 688.142 L434.292 695.943 L427.972 703.674 L421.652 711.654 L415.332 719.767 L409.012 727.25 L402.692 735.156 L396.372 743.299 L390.052 751.184 L383.732 759.2 L377.412 767.214 L371.092 775.232 L364.771 783.129 L358.451 790.86 L352.131 798.796 L345.811 806.837 L339.491 814.715 L333.171 822.7 L326.851 830.421 L320.531 838.066 L314.211 845.847 L307.891 853.616 L301.571 861.309 L295.251 869.17 L288.931 876.92 L282.61 884.722 L276.29 892.444 L269.97 900.068 L263.65 907.892 L257.33 915.486  Z" fill="#dc143c" fill-rule="evenodd" fill-opacity="0.3"/>
<polyline clip-path="url(#clip642)" style="stroke:#dc143c; stroke-linecap:round; stroke-linejoin:round; stroke-width:8; stroke-opacity:1; fill:none" points="257.33,943.653 263.65,935.476 269.97,927.298 276.29,919.12 282.61,910.942 288.931,902.764 295.251,894.586 301.571,886.408 307.891,878.23 314.211,870.052 320.531,861.874 326.851,853.696 333.171,845.518 339.491,837.34 345.811,829.162 352.131,820.985 358.451,812.807 364.771,804.629 371.092,796.451 377.412,788.273 383.732,780.095 390.052,771.917 396.372,763.739 402.692,755.561 409.012,747.383 415.332,739.205 421.652,731.027 427.972,722.849 434.292,714.671 440.612,706.494 446.932,698.316 453.253,690.138 459.573,681.96 465.893,673.782 472.213,665.604 478.533,657.426 484.853,649.248 491.173,641.07 497.493,632.892 503.813,624.714 510.133,616.536 516.453,608.358 522.773,600.181 529.093,592.003 535.413,583.825 541.734,575.647 548.054,567.469 554.374,559.291 560.694,551.113 567.014,542.935 573.334,534.757 579.654,526.579 585.974,518.401 592.294,510.223 598.614,502.045 604.934,493.867 611.254,485.69 617.574,477.512 623.895,469.334 630.215,461.156 636.535,452.978 642.855,444.8 649.175,436.622 655.495,428.444 661.815,420.266 668.135,412.088 674.455,403.91 680.775,395.732 687.095,387.554 693.415,379.376 699.735,371.199 706.055,363.021 712.376,354.843 718.696,346.665 725.016,338.487 731.336,330.309 737.656,322.131 743.976,313.953 750.296,305.775 756.616,297.597 762.936,289.421 769.256,281.263 775.576,273.134 781.896,265.037 788.216,257.029 794.537,249.149 800.857,241.446 807.177,233.911 813.497,226.536 819.817,219.299 826.137,212.33 832.457,205.722 838.777,199.654 845.097,194.238 851.417,189.677 857.737,186.028 864.057,183.353 870.377,181.456 876.698,180.225 883.018,179.391 889.338,178.864 895.658,178.476 901.978,178.167 908.298,177.88 914.618,177.599 920.938,177.322 927.258,177.044 933.578,176.767 939.898,176.49 946.218,176.213 952.538,175.936 958.858,175.659 965.179,175.382 971.499,175.105 977.819,174.828 984.139,174.551 990.459,174.274 996.779,173.996 1003.1,173.719 1009.42,173.442 1015.74,173.165 1022.06,172.888 1028.38,172.611 1034.7,172.334 1041.02,172.057 1047.34,171.78 1053.66,171.503 1059.98,171.226 1066.3,170.948 1072.62,170.671 1078.94,170.394 1085.26,170.117 1091.58,169.84 1097.9,169.563 1104.22,169.286 1110.54,169.009 1116.86,168.732 1123.18,168.455 1129.5,168.178 1135.82,167.901 1142.14,167.623 1148.46,167.346 1154.78,167.069 1161.1,166.792 1167.42,166.515 1173.74,166.238 1180.06,165.961 1186.38,165.684 1192.7,165.407 1199.02,165.13 1205.34,164.853 1211.66,164.575 1217.98,164.298 1224.3,164.021 1230.62,163.744 1236.94,163.467 1243.26,163.19 1249.58,162.913 1255.9,162.636 1262.22,162.359 1268.54,162.082 1274.86,161.805 1281.18,161.528 1287.5,161.25 1293.82,160.973 1300.14,160.696 1306.46,160.419 1312.78,160.142 1319.1,159.865 1325.42,159.588 1331.74,159.311 1338.06,159.034 1344.38,158.757 1350.7,158.48 1357.02,158.202 1363.34,157.925 1369.66,157.648 1375.98,157.371 1382.3,157.094 1388.62,156.817 1394.94,156.54 1401.26,156.263 1407.58,155.986 1413.9,155.709 1420.22,155.432 1426.54,155.154 1432.86,154.877 1439.18,154.6 1445.5,154.323 1451.82,154.046 1458.14,153.769 1464.46,153.492 1470.78,153.215 1477.1,152.938 1483.42,152.661 1489.74,152.384 1496.06,152.107 1502.38,151.829 1508.7,151.552 1515.03,151.275 "/>
<polyline clip-path="url(#clip642)" style="stroke:#000000; stroke-linecap:round; stroke-linejoin:round; stroke-width:6; stroke-opacity:1; fill:none" points="797.83,181.409 896.357,181.409 "/>
<line clip-path="url(#clip642)" x1="797.83" y1="201.409" x2="797.83" y2="161.409" style="stroke:#000000; stroke-width:6; stroke-opacity:1"/>
<line clip-path="url(#clip642)" x1="896.357" y1="201.409" x2="896.357" y2="161.409" style="stroke:#000000; stroke-width:6; stroke-opacity:1"/>
<circle clip-path="url(#clip642)" cx="847.093" cy="181.409" r="18" fill="#000000" fill-rule="evenodd" fill-opacity="1" stroke="none"/>
<path clip-path="url(#clip640)" d="M1819.6 1000.1 L3152.76 1000.1 L3152.76 97.0121 L1819.6 97.0121  Z" fill="#ffffff" fill-rule="evenodd" fill-opacity="1"/>
<defs>
  <clipPath id="clip643">
    <rect x="1819" y="97" width="1334" height="904"/>
  </clipPath>
</defs>
<polyline clip-path="url(#clip643)" style="stroke:#000000; stroke-linecap:round; stroke-linejoin:round; stroke-width:2; stroke-opacity:0.1; fill:none" points="1857.33,1000.1 1857.33,97.0121 "/>
<polyline clip-path="url(#clip643)" style="stroke:#000000; stroke-linecap:round; stroke-linejoin:round; stroke-width:2; stroke-opacity:0.1; fill:none" points="2136.82,1000.1 2136.82,97.0121 "/>
<polyline clip-path="url(#clip643)" style="stroke:#000000; stroke-linecap:round; stroke-linejoin:round; stroke-width:2; stroke-opacity:0.1; fill:none" points="2416.31,1000.1 2416.31,97.0121 "/>
<polyline clip-path="url(#clip643)" style="stroke:#000000; stroke-linecap:round; stroke-linejoin:round; stroke-width:2; stroke-opacity:0.1; fill:none" points="2695.79,1000.1 2695.79,97.0121 "/>
<polyline clip-path="url(#clip643)" style="stroke:#000000; stroke-linecap:round; stroke-linejoin:round; stroke-width:2; stroke-opacity:0.1; fill:none" points="2975.28,1000.1 2975.28,97.0121 "/>
<polyline clip-path="url(#clip643)" style="stroke:#000000; stroke-linecap:round; stroke-linejoin:round; stroke-width:2; stroke-opacity:0.1; fill:none" points="1819.6,960.191 3152.76,960.191 "/>
<polyline clip-path="url(#clip643)" style="stroke:#000000; stroke-linecap:round; stroke-linejoin:round; stroke-width:2; stroke-opacity:0.1; fill:none" points="1819.6,754.008 3152.76,754.008 "/>
<polyline clip-path="url(#clip643)" style="stroke:#000000; stroke-linecap:round; stroke-linejoin:round; stroke-width:2; stroke-opacity:0.1; fill:none" points="1819.6,547.825 3152.76,547.825 "/>
<polyline clip-path="url(#clip643)" style="stroke:#000000; stroke-linecap:round; stroke-linejoin:round; stroke-width:2; stroke-opacity:0.1; fill:none" points="1819.6,341.642 3152.76,341.642 "/>
<polyline clip-path="url(#clip643)" style="stroke:#000000; stroke-linecap:round; stroke-linejoin:round; stroke-width:2; stroke-opacity:0.1; fill:none" points="1819.6,135.459 3152.76,135.459 "/>
<polyline clip-path="url(#clip640)" style="stroke:#000000; stroke-linecap:round; stroke-linejoin:round; stroke-width:4; stroke-opacity:1; fill:none" points="1819.6,1000.1 3152.76,1000.1 "/>
<polyline clip-path="url(#clip640)" style="stroke:#000000; stroke-linecap:round; stroke-linejoin:round; stroke-width:4; stroke-opacity:1; fill:none" points="1857.33,1000.1 1857.33,981.2 "/>
<polyline clip-path="url(#clip640)" style="stroke:#000000; stroke-linecap:round; stroke-linejoin:round; stroke-width:4; stroke-opacity:1; fill:none" points="2136.82,1000.1 2136.82,981.2 "/>
<polyline clip-path="url(#clip640)" style="stroke:#000000; stroke-linecap:round; stroke-linejoin:round; stroke-width:4; stroke-opacity:1; fill:none" points="2416.31,1000.1 2416.31,981.2 "/>
<polyline clip-path="url(#clip640)" style="stroke:#000000; stroke-linecap:round; stroke-linejoin:round; stroke-width:4; stroke-opacity:1; fill:none" points="2695.79,1000.1 2695.79,981.2 "/>
<polyline clip-path="url(#clip640)" style="stroke:#000000; stroke-linecap:round; stroke-linejoin:round; stroke-width:4; stroke-opacity:1; fill:none" points="2975.28,1000.1 2975.28,981.2 "/>
<path clip-path="url(#clip640)" d="M1857.33 1037.42 Q1853.72 1037.42 1851.89 1040.98 Q1850.08 1044.52 1850.08 1051.65 Q1850.08 1058.76 1851.89 1062.32 Q1853.72 1065.87 1857.33 1065.87 Q1860.96 1065.87 1862.77 1062.32 Q1864.6 1058.76 1864.6 1051.65 Q1864.6 1044.52 1862.77 1040.98 Q1860.96 1037.42 1857.33 1037.42 M1857.33 1033.71 Q1863.14 1033.71 1866.2 1038.32 Q1869.27 1042.9 1869.27 1051.65 Q1869.27 1060.38 1866.2 1064.99 Q1863.14 1069.57 1857.33 1069.57 Q1851.52 1069.57 1848.44 1064.99 Q1845.39 1060.38 1845.39 1051.65 Q1845.39 1042.9 1848.44 1038.32 Q1851.52 1033.71 1857.33 1033.71 Z" fill="#000000" fill-rule="nonzero" fill-opacity="1" /><path clip-path="url(#clip640)" d="M2115.59 1064.96 L2131.91 1064.96 L2131.91 1068.9 L2109.97 1068.9 L2109.97 1064.96 Q2112.63 1062.21 2117.21 1057.58 Q2121.82 1052.93 2123 1051.58 Q2125.24 1049.06 2126.12 1047.32 Q2127.03 1045.56 2127.03 1043.87 Q2127.03 1041.12 2125.08 1039.38 Q2123.16 1037.65 2120.06 1037.65 Q2117.86 1037.65 2115.41 1038.41 Q2112.98 1039.18 2110.2 1040.73 L2110.2 1036 Q2113.02 1034.87 2115.48 1034.29 Q2117.93 1033.71 2119.97 1033.71 Q2125.34 1033.71 2128.53 1036.4 Q2131.73 1039.08 2131.73 1043.57 Q2131.73 1045.7 2130.92 1047.62 Q2130.13 1049.52 2128.02 1052.12 Q2127.44 1052.79 2124.34 1056 Q2121.24 1059.2 2115.59 1064.96 Z" fill="#000000" fill-rule="nonzero" fill-opacity="1" /><path clip-path="url(#clip640)" d="M2151.73 1037.42 Q2148.11 1037.42 2146.29 1040.98 Q2144.48 1044.52 2144.48 1051.65 Q2144.48 1058.76 2146.29 1062.32 Q2148.11 1065.87 2151.73 1065.87 Q2155.36 1065.87 2157.17 1062.32 Q2158.99 1058.76 2158.99 1051.65 Q2158.99 1044.52 2157.17 1040.98 Q2155.36 1037.42 2151.73 1037.42 M2151.73 1033.71 Q2157.54 1033.71 2160.59 1038.32 Q2163.67 1042.9 2163.67 1051.65 Q2163.67 1060.38 2160.59 1064.99 Q2157.54 1069.57 2151.73 1069.57 Q2145.92 1069.57 2142.84 1064.99 Q2139.78 1060.38 2139.78 1051.65 Q2139.78 1042.9 2142.84 1038.32 Q2145.92 1033.71 2151.73 1033.71 Z" fill="#000000" fill-rule="nonzero" fill-opacity="1" /><path clip-path="url(#clip640)" d="M2404.48 1038.41 L2392.67 1056.86 L2404.48 1056.86 L2404.48 1038.41 M2403.25 1034.34 L2409.13 1034.34 L2409.13 1056.86 L2414.06 1056.86 L2414.06 1060.75 L2409.13 1060.75 L2409.13 1068.9 L2404.48 1068.9 L2404.48 1060.75 L2388.88 1060.75 L2388.88 1056.24 L2403.25 1034.34 Z" fill="#000000" fill-rule="nonzero" fill-opacity="1" /><path clip-path="url(#clip640)" d="M2431.79 1037.42 Q2428.18 1037.42 2426.35 1040.98 Q2424.55 1044.52 2424.55 1051.65 Q2424.55 1058.76 2426.35 1062.32 Q2428.18 1065.87 2431.79 1065.87 Q2435.43 1065.87 2437.23 1062.32 Q2439.06 1058.76 2439.06 1051.65 Q2439.06 1044.52 2437.23 1040.98 Q2435.43 1037.42 2431.79 1037.42 M2431.79 1033.71 Q2437.6 1033.71 2440.66 1038.32 Q2443.74 1042.9 2443.74 1051.65 Q2443.74 1060.38 2440.66 1064.99 Q2437.6 1069.57 2431.79 1069.57 Q2425.98 1069.57 2422.9 1064.99 Q2419.85 1060.38 2419.85 1051.65 Q2419.85 1042.9 2422.9 1038.32 Q2425.98 1033.71 2431.79 1033.71 Z" fill="#000000" fill-rule="nonzero" fill-opacity="1" /><path clip-path="url(#clip640)" d="M2681.2 1049.75 Q2678.05 1049.75 2676.2 1051.91 Q2674.37 1054.06 2674.37 1057.81 Q2674.37 1061.54 2676.2 1063.71 Q2678.05 1065.87 2681.2 1065.87 Q2684.35 1065.87 2686.18 1063.71 Q2688.03 1061.54 2688.03 1057.81 Q2688.03 1054.06 2686.18 1051.91 Q2684.35 1049.75 2681.2 1049.75 M2690.48 1035.1 L2690.48 1039.36 Q2688.72 1038.53 2686.92 1038.09 Q2685.13 1037.65 2683.37 1037.65 Q2678.74 1037.65 2676.29 1040.77 Q2673.86 1043.9 2673.51 1050.22 Q2674.88 1048.2 2676.94 1047.14 Q2679 1046.05 2681.48 1046.05 Q2686.68 1046.05 2689.69 1049.22 Q2692.73 1052.37 2692.73 1057.81 Q2692.73 1063.13 2689.58 1066.35 Q2686.43 1069.57 2681.2 1069.57 Q2675.2 1069.57 2672.03 1064.99 Q2668.86 1060.38 2668.86 1051.65 Q2668.86 1043.46 2672.75 1038.6 Q2676.64 1033.71 2683.19 1033.71 Q2684.95 1033.71 2686.73 1034.06 Q2688.54 1034.41 2690.48 1035.1 Z" fill="#000000" fill-rule="nonzero" fill-opacity="1" /><path clip-path="url(#clip640)" d="M2710.78 1037.42 Q2707.17 1037.42 2705.34 1040.98 Q2703.54 1044.52 2703.54 1051.65 Q2703.54 1058.76 2705.34 1062.32 Q2707.17 1065.87 2710.78 1065.87 Q2714.42 1065.87 2716.22 1062.32 Q2718.05 1058.76 2718.05 1051.65 Q2718.05 1044.52 2716.22 1040.98 Q2714.42 1037.42 2710.78 1037.42 M2710.78 1033.71 Q2716.59 1033.71 2719.65 1038.32 Q2722.73 1042.9 2722.73 1051.65 Q2722.73 1060.38 2719.65 1064.99 Q2716.59 1069.57 2710.78 1069.57 Q2704.97 1069.57 2701.89 1064.99 Q2698.84 1060.38 2698.84 1051.65 Q2698.84 1042.9 2701.89 1038.32 Q2704.97 1033.71 2710.78 1033.71 Z" fill="#000000" fill-rule="nonzero" fill-opacity="1" /><path clip-path="url(#clip640)" d="M2960.15 1052.49 Q2956.82 1052.49 2954.9 1054.27 Q2953 1056.05 2953 1059.18 Q2953 1062.3 2954.9 1064.08 Q2956.82 1065.87 2960.15 1065.87 Q2963.49 1065.87 2965.41 1064.08 Q2967.33 1062.28 2967.33 1059.18 Q2967.33 1056.05 2965.41 1054.27 Q2963.51 1052.49 2960.15 1052.49 M2955.48 1050.5 Q2952.47 1049.75 2950.78 1047.69 Q2949.11 1045.63 2949.11 1042.67 Q2949.11 1038.53 2952.05 1036.12 Q2955.02 1033.71 2960.15 1033.71 Q2965.32 1033.71 2968.26 1036.12 Q2971.2 1038.53 2971.2 1042.67 Q2971.2 1045.63 2969.51 1047.69 Q2967.84 1049.75 2964.85 1050.5 Q2968.23 1051.28 2970.11 1053.57 Q2972.01 1055.87 2972.01 1059.18 Q2972.01 1064.2 2968.93 1066.88 Q2965.87 1069.57 2960.15 1069.57 Q2954.44 1069.57 2951.36 1066.88 Q2948.3 1064.2 2948.3 1059.18 Q2948.3 1055.87 2950.2 1053.57 Q2952.1 1051.28 2955.48 1050.5 M2953.77 1043.11 Q2953.77 1045.8 2955.43 1047.3 Q2957.12 1048.81 2960.15 1048.81 Q2963.16 1048.81 2964.85 1047.3 Q2966.57 1045.8 2966.57 1043.11 Q2966.57 1040.43 2964.85 1038.92 Q2963.16 1037.42 2960.15 1037.42 Q2957.12 1037.42 2955.43 1038.92 Q2953.77 1040.43 2953.77 1043.11 Z" fill="#000000" fill-rule="nonzero" fill-opacity="1" /><path clip-path="url(#clip640)" d="M2990.32 1037.42 Q2986.7 1037.42 2984.88 1040.98 Q2983.07 1044.52 2983.07 1051.65 Q2983.07 1058.76 2984.88 1062.32 Q2986.7 1065.87 2990.32 1065.87 Q2993.95 1065.87 2995.76 1062.32 Q2997.58 1058.76 2997.58 1051.65 Q2997.58 1044.52 2995.76 1040.98 Q2993.95 1037.42 2990.32 1037.42 M2990.32 1033.71 Q2996.13 1033.71 2999.18 1038.32 Q3002.26 1042.9 3002.26 1051.65 Q3002.26 1060.38 2999.18 1064.99 Q2996.13 1069.57 2990.32 1069.57 Q2984.51 1069.57 2981.43 1064.99 Q2978.37 1060.38 2978.37 1051.65 Q2978.37 1042.9 2981.43 1038.32 Q2984.51 1033.71 2990.32 1033.71 Z" fill="#000000" fill-rule="nonzero" fill-opacity="1" /><path clip-path="url(#clip640)" d="M2502.79 1121.31 L2489.9 1138.66 L2503.46 1156.96 L2496.55 1156.96 L2486.18 1142.96 L2475.8 1156.96 L2468.89 1156.96 L2482.74 1138.31 L2470.07 1121.31 L2476.98 1121.31 L2486.43 1134.01 L2495.89 1121.31 L2502.79 1121.31 Z" fill="#000000" fill-rule="nonzero" fill-opacity="1" /><polyline clip-path="url(#clip640)" style="stroke:#000000; stroke-linecap:round; stroke-linejoin:round; stroke-width:4; stroke-opacity:1; fill:none" points="1819.6,1000.1 1819.6,97.0121 "/>
<polyline clip-path="url(#clip640)" style="stroke:#000000; stroke-linecap:round; stroke-linejoin:round; stroke-width:4; stroke-opacity:1; fill:none" points="1819.6,960.191 1838.5,960.191 "/>
<polyline clip-path="url(#clip640)" style="stroke:#000000; stroke-linecap:round; stroke-linejoin:round; stroke-width:4; stroke-opacity:1; fill:none" points="1819.6,754.008 1838.5,754.008 "/>
<polyline clip-path="url(#clip640)" style="stroke:#000000; stroke-linecap:round; stroke-linejoin:round; stroke-width:4; stroke-opacity:1; fill:none" points="1819.6,547.825 1838.5,547.825 "/>
<polyline clip-path="url(#clip640)" style="stroke:#000000; stroke-linecap:round; stroke-linejoin:round; stroke-width:4; stroke-opacity:1; fill:none" points="1819.6,341.642 1838.5,341.642 "/>
<polyline clip-path="url(#clip640)" style="stroke:#000000; stroke-linecap:round; stroke-linejoin:round; stroke-width:4; stroke-opacity:1; fill:none" points="1819.6,135.459 1838.5,135.459 "/>
<path clip-path="url(#clip640)" d="M1759.65 945.99 Q1756.04 945.99 1754.22 949.555 Q1752.41 953.097 1752.41 960.226 Q1752.41 967.333 1754.22 970.897 Q1756.04 974.439 1759.65 974.439 Q1763.29 974.439 1765.09 970.897 Q1766.92 967.333 1766.92 960.226 Q1766.92 953.097 1765.09 949.555 Q1763.29 945.99 1759.65 945.99 M1759.65 942.286 Q1765.47 942.286 1768.52 946.893 Q1771.6 951.476 1771.6 960.226 Q1771.6 968.953 1768.52 973.559 Q1765.47 978.143 1759.65 978.143 Q1753.84 978.143 1750.77 973.559 Q1747.71 968.953 1747.71 960.226 Q1747.71 951.476 1750.77 946.893 Q1753.84 942.286 1759.65 942.286 Z" fill="#000000" fill-rule="nonzero" fill-opacity="1" /><path clip-path="url(#clip640)" d="M1724.52 767.353 L1740.84 767.353 L1740.84 771.288 L1718.89 771.288 L1718.89 767.353 Q1721.55 764.599 1726.14 759.969 Q1730.74 755.316 1731.92 753.974 Q1734.17 751.451 1735.05 749.715 Q1735.95 747.955 1735.95 746.265 Q1735.95 743.511 1734.01 741.775 Q1732.09 740.039 1728.98 740.039 Q1726.78 740.039 1724.33 740.803 Q1721.9 741.566 1719.12 743.117 L1719.12 738.395 Q1721.95 737.261 1724.4 736.682 Q1726.85 736.103 1728.89 736.103 Q1734.26 736.103 1737.46 738.789 Q1740.65 741.474 1740.65 745.965 Q1740.65 748.094 1739.84 750.015 Q1739.05 751.914 1736.95 754.506 Q1736.37 755.177 1733.27 758.395 Q1730.16 761.589 1724.52 767.353 Z" fill="#000000" fill-rule="nonzero" fill-opacity="1" /><path clip-path="url(#clip640)" d="M1750.7 736.728 L1769.05 736.728 L1769.05 740.664 L1754.98 740.664 L1754.98 749.136 Q1756 748.789 1757.02 748.627 Q1758.03 748.441 1759.05 748.441 Q1764.84 748.441 1768.22 751.613 Q1771.6 754.784 1771.6 760.201 Q1771.6 765.779 1768.13 768.881 Q1764.65 771.96 1758.34 771.96 Q1756.16 771.96 1753.89 771.589 Q1751.65 771.219 1749.24 770.478 L1749.24 765.779 Q1751.32 766.914 1753.54 767.469 Q1755.77 768.025 1758.24 768.025 Q1762.25 768.025 1764.59 765.918 Q1766.92 763.812 1766.92 760.201 Q1766.92 756.589 1764.59 754.483 Q1762.25 752.377 1758.24 752.377 Q1756.37 752.377 1754.49 752.793 Q1752.64 753.21 1750.7 754.09 L1750.7 736.728 Z" fill="#000000" fill-rule="nonzero" fill-opacity="1" /><path clip-path="url(#clip640)" d="M1719.54 530.545 L1737.9 530.545 L1737.9 534.481 L1723.82 534.481 L1723.82 542.953 Q1724.84 542.606 1725.86 542.444 Q1726.88 542.258 1727.9 542.258 Q1733.68 542.258 1737.06 545.43 Q1740.44 548.601 1740.44 554.018 Q1740.44 559.596 1736.97 562.698 Q1733.5 565.777 1727.18 565.777 Q1725 565.777 1722.73 565.406 Q1720.49 565.036 1718.08 564.295 L1718.08 559.596 Q1720.16 560.731 1722.39 561.286 Q1724.61 561.842 1727.09 561.842 Q1731.09 561.842 1733.43 559.735 Q1735.77 557.629 1735.77 554.018 Q1735.77 550.406 1733.43 548.3 Q1731.09 546.194 1727.09 546.194 Q1725.21 546.194 1723.34 546.61 Q1721.48 547.027 1719.54 547.907 L1719.54 530.545 Z" fill="#000000" fill-rule="nonzero" fill-opacity="1" /><path clip-path="url(#clip640)" d="M1759.65 533.624 Q1756.04 533.624 1754.22 537.189 Q1752.41 540.731 1752.41 547.86 Q1752.41 554.967 1754.22 558.531 Q1756.04 562.073 1759.65 562.073 Q1763.29 562.073 1765.09 558.531 Q1766.92 554.967 1766.92 547.86 Q1766.92 540.731 1765.09 537.189 Q1763.29 533.624 1759.65 533.624 M1759.65 529.92 Q1765.47 529.92 1768.52 534.527 Q1771.6 539.11 1771.6 547.86 Q1771.6 556.587 1768.52 561.193 Q1765.47 565.777 1759.65 565.777 Q1753.84 565.777 1750.77 561.193 Q1747.71 556.587 1747.71 547.86 Q1747.71 539.11 1750.77 534.527 Q1753.84 529.92 1759.65 529.92 Z" fill="#000000" fill-rule="nonzero" fill-opacity="1" /><path clip-path="url(#clip640)" d="M1719.31 324.362 L1741.53 324.362 L1741.53 326.353 L1728.98 358.922 L1724.1 358.922 L1735.91 328.298 L1719.31 328.298 L1719.31 324.362 Z" fill="#000000" fill-rule="nonzero" fill-opacity="1" /><path clip-path="url(#clip640)" d="M1750.7 324.362 L1769.05 324.362 L1769.05 328.298 L1754.98 328.298 L1754.98 336.77 Q1756 336.423 1757.02 336.261 Q1758.03 336.075 1759.05 336.075 Q1764.84 336.075 1768.22 339.247 Q1771.6 342.418 1771.6 347.835 Q1771.6 353.413 1768.13 356.515 Q1764.65 359.594 1758.34 359.594 Q1756.16 359.594 1753.89 359.223 Q1751.65 358.853 1749.24 358.112 L1749.24 353.413 Q1751.32 354.548 1753.54 355.103 Q1755.77 355.659 1758.24 355.659 Q1762.25 355.659 1764.59 353.552 Q1766.92 351.446 1766.92 347.835 Q1766.92 344.223 1764.59 342.117 Q1762.25 340.011 1758.24 340.011 Q1756.37 340.011 1754.49 340.427 Q1752.64 340.844 1750.7 341.724 L1750.7 324.362 Z" fill="#000000" fill-rule="nonzero" fill-opacity="1" /><path clip-path="url(#clip640)" d="M1690.14 148.804 L1697.78 148.804 L1697.78 122.439 L1689.47 124.105 L1689.47 119.846 L1697.73 118.179 L1702.41 118.179 L1702.41 148.804 L1710.05 148.804 L1710.05 152.739 L1690.14 152.739 L1690.14 148.804 Z" fill="#000000" fill-rule="nonzero" fill-opacity="1" /><path clip-path="url(#clip640)" d="M1729.49 121.258 Q1725.88 121.258 1724.05 124.823 Q1722.25 128.365 1722.25 135.494 Q1722.25 142.601 1724.05 146.165 Q1725.88 149.707 1729.49 149.707 Q1733.13 149.707 1734.93 146.165 Q1736.76 142.601 1736.76 135.494 Q1736.76 128.365 1734.93 124.823 Q1733.13 121.258 1729.49 121.258 M1729.49 117.554 Q1735.3 117.554 1738.36 122.161 Q1741.44 126.744 1741.44 135.494 Q1741.44 144.221 1738.36 148.827 Q1735.3 153.411 1729.49 153.411 Q1723.68 153.411 1720.6 148.827 Q1717.55 144.221 1717.55 135.494 Q1717.55 126.744 1720.6 122.161 Q1723.68 117.554 1729.49 117.554 Z" fill="#000000" fill-rule="nonzero" fill-opacity="1" /><path clip-path="url(#clip640)" d="M1759.65 121.258 Q1756.04 121.258 1754.22 124.823 Q1752.41 128.365 1752.41 135.494 Q1752.41 142.601 1754.22 146.165 Q1756.04 149.707 1759.65 149.707 Q1763.29 149.707 1765.09 146.165 Q1766.92 142.601 1766.92 135.494 Q1766.92 128.365 1765.09 124.823 Q1763.29 121.258 1759.65 121.258 M1759.65 117.554 Q1765.47 117.554 1768.52 122.161 Q1771.6 126.744 1771.6 135.494 Q1771.6 144.221 1768.52 148.827 Q1765.47 153.411 1759.65 153.411 Q1753.84 153.411 1750.77 148.827 Q1747.71 144.221 1747.71 135.494 Q1747.71 126.744 1750.77 122.161 Q1753.84 117.554 1759.65 117.554 Z" fill="#000000" fill-rule="nonzero" fill-opacity="1" /><path clip-path="url(#clip640)" d="M1630.52 546.868 Q1636.89 549.351 1638.83 551.706 Q1640.77 554.061 1640.77 558.008 L1640.77 562.687 L1635.87 562.687 L1635.87 559.249 Q1635.87 556.83 1634.73 555.494 Q1633.58 554.157 1629.31 552.533 L1626.64 551.483 L1591.57 565.901 L1591.57 559.695 L1619.45 548.555 L1591.57 537.415 L1591.57 531.208 L1630.52 546.868 Z" fill="#000000" fill-rule="nonzero" fill-opacity="1" /><circle clip-path="url(#clip643)" cx="1857.33" cy="951.944" r="14.4" fill="#009af9" fill-rule="evenodd" fill-opacity="0.3" stroke="#000000" stroke-opacity="0.3" stroke-width="2.4"/>
<circle clip-path="url(#clip643)" cx="1997.07" cy="935.45" r="14.4" fill="#009af9" fill-rule="evenodd" fill-opacity="0.3" stroke="#000000" stroke-opacity="0.3" stroke-width="2.4"/>
<circle clip-path="url(#clip643)" cx="2136.82" cy="877.718" r="14.4" fill="#009af9" fill-rule="evenodd" fill-opacity="0.3" stroke="#000000" stroke-opacity="0.3" stroke-width="2.4"/>
<circle clip-path="url(#clip643)" cx="2276.56" cy="770.503" r="14.4" fill="#009af9" fill-rule="evenodd" fill-opacity="0.3" stroke="#000000" stroke-opacity="0.3" stroke-width="2.4"/>
<circle clip-path="url(#clip643)" cx="2416.31" cy="498.342" r="14.4" fill="#009af9" fill-rule="evenodd" fill-opacity="0.3" stroke="#000000" stroke-opacity="0.3" stroke-width="2.4"/>
<circle clip-path="url(#clip643)" cx="2556.05" cy="259.169" r="14.4" fill="#009af9" fill-rule="evenodd" fill-opacity="0.3" stroke="#000000" stroke-opacity="0.3" stroke-width="2.4"/>
<circle clip-path="url(#clip643)" cx="2695.79" cy="184.943" r="14.4" fill="#009af9" fill-rule="evenodd" fill-opacity="0.3" stroke="#000000" stroke-opacity="0.3" stroke-width="2.4"/>
<circle clip-path="url(#clip643)" cx="2835.54" cy="151.954" r="14.4" fill="#009af9" fill-rule="evenodd" fill-opacity="0.3" stroke="#000000" stroke-opacity="0.3" stroke-width="2.4"/>
<circle clip-path="url(#clip643)" cx="2975.28" cy="143.707" r="14.4" fill="#009af9" fill-rule="evenodd" fill-opacity="0.3" stroke="#000000" stroke-opacity="0.3" stroke-width="2.4"/>
<circle clip-path="url(#clip643)" cx="3115.03" cy="143.707" r="14.4" fill="#009af9" fill-rule="evenodd" fill-opacity="0.3" stroke="#000000" stroke-opacity="0.3" stroke-width="2.4"/>
<path clip-path="url(#clip643)" d="M1857.33 974.539 L1863.65 972.477 L1869.97 970.403 L1876.29 968.248 L1882.61 965.993 L1888.93 963.922 L1895.25 961.765 L1901.57 959.673 L1907.89 957.798 L1914.21 955.811 L1920.53 953.784 L1926.85 951.754 L1933.17 949.764 L1939.49 947.787 L1945.81 945.815 L1952.13 943.985 L1958.45 942.02 L1964.77 940.098 L1971.09 938.198 L1977.41 936.409 L1983.73 934.559 L1990.05 932.732 L1996.37 930.991 L2002.69 929.184 L2009.01 927.415 L2015.33 925.803 L2021.65 924.168 L2027.97 922.463 L2034.29 921.01 L2040.61 919.588 L2046.93 918.017 L2053.25 916.437 L2059.57 914.874 L2065.89 913.641 L2072.21 912.254 L2078.53 910.767 L2084.85 909.221 L2091.17 907.721 L2097.49 906.125 L2103.81 904.66 L2110.13 903.284 L2116.45 902.032 L2122.77 900.644 L2129.09 899.221 L2135.41 897.839 L2141.73 896.444 L2148.05 895.101 L2154.37 893.667 L2160.69 892.402 L2167.01 890.976 L2173.33 889.675 L2179.65 888.312 L2185.97 887.137 L2192.29 885.877 L2198.61 884.379 L2204.93 882.692 L2211.25 880.27 L2217.57 876.874 L2223.89 871.571 L2230.21 864.081 L2236.53 854.466 L2242.85 842.969 L2249.17 831.155 L2255.49 819.104 L2261.81 807.186 L2268.14 795.27 L2274.46 783.42 L2280.78 771.527 L2287.1 759.586 L2293.42 747.647 L2299.74 735.711 L2306.06 723.812 L2312.38 711.922 L2318.7 700.001 L2325.02 687.851 L2331.34 675.948 L2337.66 664.096 L2343.98 652.188 L2350.3 640.394 L2356.62 628.489 L2362.94 616.693 L2369.26 604.893 L2375.58 593.087 L2381.9 581.359 L2388.22 569.76 L2394.54 558.164 L2400.86 546.536 L2407.18 534.911 L2413.5 523.471 L2419.82 511.901 L2426.14 500.388 L2432.46 488.992 L2438.78 477.73 L2445.1 466.387 L2451.42 455.038 L2457.74 443.436 L2464.06 432.013 L2470.38 420.64 L2476.7 409.31 L2483.02 397.995 L2489.34 386.878 L2495.66 375.569 L2501.98 364.166 L2508.3 352.977 L2514.62 341.74 L2520.94 330.484 L2527.26 319.358 L2533.58 308.387 L2539.9 297.122 L2546.22 286.017 L2552.54 274.842 L2558.86 263.706 L2565.18 252.555 L2571.5 241.447 L2577.82 230.346 L2584.14 219.581 L2590.46 209.528 L2596.78 204.238 L2603.1 202.548 L2609.42 201.622 L2615.74 200.719 L2622.06 199.78 L2628.38 198.9 L2634.7 198.029 L2641.02 197.142 L2647.34 196.257 L2653.66 195.304 L2659.98 194.447 L2666.3 193.555 L2672.62 192.677 L2678.94 191.924 L2685.26 191.115 L2691.58 190.204 L2697.9 189.405 L2704.22 188.628 L2710.54 187.709 L2716.86 186.79 L2723.18 185.993 L2729.5 185.15 L2735.82 184.21 L2742.14 183.355 L2748.46 182.456 L2754.78 181.635 L2761.1 180.788 L2767.42 179.941 L2773.74 179.061 L2780.06 178.246 L2786.38 177.561 L2792.7 176.82 L2799.02 176.037 L2805.34 175.34 L2811.66 174.589 L2817.98 173.669 L2824.3 172.919 L2830.62 172.159 L2836.94 171.436 L2843.26 170.739 L2849.58 170.075 L2855.9 169.351 L2862.22 168.722 L2868.54 167.957 L2874.86 167.319 L2881.18 166.689 L2887.5 166.023 L2893.82 165.4 L2900.14 164.714 L2906.46 164.035 L2912.78 163.357 L2919.1 162.791 L2925.42 162.213 L2931.74 161.561 L2938.06 161.136 L2944.38 160.421 L2950.7 160.095 L2957.02 159.619 L2963.34 159.212 L2969.66 158.881 L2975.98 158.524 L2982.3 158.146 L2988.62 157.651 L2994.94 157.209 L3001.26 156.721 L3007.58 156.485 L3013.9 156.177 L3020.22 155.789 L3026.54 155.529 L3032.86 154.995 L3039.18 154.754 L3045.5 154.546 L3051.82 154.268 L3058.14 153.841 L3064.46 153.466 L3070.78 153.074 L3077.1 152.704 L3083.42 152.421 L3089.74 152.057 L3096.06 151.684 L3102.38 151.461 L3108.7 151.105 L3115.03 150.694 L3115.03 122.571 L3108.7 123.329 L3102.38 124.268 L3096.06 125.131 L3089.74 125.94 L3083.42 126.784 L3077.1 127.596 L3070.78 128.44 L3064.46 129.303 L3058.14 130.198 L3051.82 131.056 L3045.5 131.979 L3039.18 132.902 L3032.86 133.633 L3026.54 134.487 L3020.22 135.25 L3013.9 136.024 L3007.58 136.79 L3001.26 137.554 L2994.94 138.322 L2988.62 139.179 L2982.3 139.93 L2975.98 140.648 L2969.66 141.379 L2963.34 142.146 L2957.02 142.807 L2950.7 143.541 L2944.38 144.152 L2938.06 144.772 L2931.74 145.474 L2925.42 146.25 L2919.1 147.065 L2912.78 147.816 L2906.46 148.421 L2900.14 149.061 L2893.82 149.61 L2887.5 150.104 L2881.18 150.661 L2874.86 151.303 L2868.54 151.826 L2862.22 152.272 L2855.9 152.772 L2849.58 153.288 L2843.26 153.783 L2836.94 154.257 L2830.62 154.752 L2824.3 155.089 L2817.98 155.452 L2811.66 155.994 L2805.34 156.41 L2799.02 156.918 L2792.7 157.307 L2786.38 157.676 L2780.06 157.971 L2773.74 158.512 L2767.42 158.775 L2761.1 159 L2754.78 159.349 L2748.46 159.714 L2742.14 159.978 L2735.82 160.436 L2729.5 160.749 L2723.18 160.957 L2716.86 161.395 L2710.54 161.787 L2704.22 162.144 L2697.9 162.57 L2691.58 162.853 L2685.26 163.055 L2678.94 163.323 L2672.62 163.577 L2666.3 163.82 L2659.98 164.065 L2653.66 164.306 L2647.34 164.548 L2641.02 164.918 L2634.7 165.214 L2628.38 165.471 L2622.06 165.697 L2615.74 166.227 L2609.42 166.855 L2603.1 169.79 L2596.78 174.245 L2590.46 180.257 L2584.14 188.424 L2577.82 198.432 L2571.5 210.285 L2565.18 222.263 L2558.86 234.244 L2552.54 246.119 L2546.22 258.184 L2539.9 270.198 L2533.58 282.067 L2527.26 293.973 L2520.94 305.833 L2514.62 317.749 L2508.3 329.55 L2501.98 341.362 L2495.66 353.146 L2489.34 365.003 L2483.02 376.825 L2476.7 388.582 L2470.38 400.367 L2464.06 412.092 L2457.74 423.882 L2451.42 435.641 L2445.1 447.362 L2438.78 458.942 L2432.46 470.573 L2426.14 482.07 L2419.82 493.848 L2413.5 505.272 L2407.18 516.978 L2400.86 528.427 L2394.54 539.967 L2388.22 551.397 L2381.9 562.776 L2375.58 574.196 L2369.26 585.54 L2362.94 596.924 L2356.62 608.079 L2350.3 619.397 L2343.98 630.625 L2337.66 641.759 L2331.34 652.908 L2325.02 664.343 L2318.7 675.768 L2312.38 686.91 L2306.06 698.015 L2299.74 709.293 L2293.42 720.487 L2287.1 731.617 L2280.78 742.778 L2274.46 753.899 L2268.14 765.066 L2261.81 776.253 L2255.49 787.29 L2249.17 798.49 L2242.85 809.69 L2236.53 820.256 L2230.21 830.489 L2223.89 839.076 L2217.57 843.483 L2211.25 845.547 L2204.93 847.509 L2198.61 849.442 L2192.29 851.46 L2185.97 853.532 L2179.65 855.607 L2173.33 857.78 L2167.01 859.752 L2160.69 861.885 L2154.37 863.989 L2148.05 865.989 L2141.73 867.986 L2135.41 870.023 L2129.09 872.129 L2122.77 874.204 L2116.45 876.278 L2110.13 878.428 L2103.81 880.577 L2097.49 882.434 L2091.17 884.433 L2084.85 886.359 L2078.53 888.45 L2072.21 890.43 L2065.89 892.092 L2059.57 894.178 L2053.25 896.062 L2046.93 897.954 L2040.61 899.814 L2034.29 901.749 L2027.97 903.682 L2021.65 905.469 L2015.33 907.177 L2009.01 908.985 L2002.69 910.577 L1996.37 912.216 L1990.05 913.756 L1983.73 915.396 L1977.41 917.015 L1971.09 918.564 L1964.77 920.278 L1958.45 921.739 L1952.13 923.442 L1945.81 924.994 L1939.49 926.479 L1933.17 927.943 L1926.85 929.55 L1920.53 930.942 L1914.21 932.359 L1907.89 933.666 L1901.57 935.069 L1895.25 936.373 L1888.93 937.727 L1882.61 939.088 L1876.29 940.623 L1869.97 942.035 L1863.65 943.223 L1857.33 944.518  Z" fill="#dc143c" fill-rule="evenodd" fill-opacity="0.3"/>
<polyline clip-path="url(#clip643)" style="stroke:#dc143c; stroke-linecap:round; stroke-linejoin:round; stroke-width:8; stroke-opacity:1; fill:none" points="1857.33,959.128 1863.65,957.437 1869.97,955.746 1876.29,954.056 1882.61,952.365 1888.93,950.674 1895.25,948.984 1901.57,947.293 1907.89,945.602 1914.21,943.912 1920.53,942.221 1926.85,940.531 1933.17,938.84 1939.49,937.149 1945.81,935.459 1952.13,933.768 1958.45,932.077 1964.77,930.387 1971.09,928.696 1977.41,927.005 1983.73,925.315 1990.05,923.624 1996.37,921.933 2002.69,920.243 2009.01,918.552 2015.33,916.861 2021.65,915.171 2027.97,913.48 2034.29,911.789 2040.61,910.099 2046.93,908.408 2053.25,906.717 2059.57,905.027 2065.89,903.336 2072.21,901.645 2078.53,899.955 2084.85,898.264 2091.17,896.574 2097.49,894.883 2103.81,893.192 2110.13,891.502 2116.45,889.811 2122.77,888.12 2129.09,886.43 2135.41,884.739 2141.73,883.048 2148.05,881.358 2154.37,879.667 2160.69,877.976 2167.01,876.286 2173.33,874.595 2179.65,872.904 2185.97,871.214 2192.29,869.523 2198.61,867.831 2204.93,866.107 2211.25,864.172 2217.57,861.251 2223.89,856.089 2230.21,847.915 2236.53,837.624 2242.85,826.361 2249.17,814.866 2255.49,803.312 2261.81,791.758 2268.14,780.204 2274.46,768.65 2280.78,757.096 2287.1,745.542 2293.42,733.988 2299.74,722.434 2306.06,710.88 2312.38,699.326 2318.7,687.772 2325.02,676.217 2331.34,664.663 2337.66,653.109 2343.98,641.555 2350.3,630.001 2356.62,618.447 2362.94,606.893 2369.26,595.339 2375.58,583.785 2381.9,572.231 2388.22,560.677 2394.54,549.123 2400.86,537.568 2407.18,526.014 2413.5,514.46 2419.82,502.906 2426.14,491.352 2432.46,479.798 2438.78,468.244 2445.1,456.69 2451.42,445.136 2457.74,433.582 2464.06,422.028 2470.38,410.474 2476.7,398.919 2483.02,387.365 2489.34,375.811 2495.66,364.257 2501.98,352.703 2508.3,341.149 2514.62,329.595 2520.94,318.041 2527.26,306.487 2533.58,294.933 2539.9,283.379 2546.22,271.825 2552.54,260.27 2558.86,248.716 2565.18,237.162 2571.5,225.613 2577.82,214.156 2584.14,203.172 2590.46,193.942 2596.78,188.029 2603.1,185.329 2609.42,184.155 2615.74,183.482 2622.06,182.872 2628.38,182.268 2634.7,181.671 2641.02,181.075 2647.34,180.479 2653.66,179.883 2659.98,179.286 2666.3,178.69 2672.62,178.094 2678.94,177.498 2685.26,176.901 2691.58,176.305 2697.9,175.709 2704.22,175.113 2710.54,174.517 2716.86,173.92 2723.18,173.324 2729.5,172.728 2735.82,172.132 2742.14,171.536 2748.46,170.939 2754.78,170.343 2761.1,169.747 2767.42,169.151 2773.74,168.555 2780.06,167.958 2786.38,167.362 2792.7,166.766 2799.02,166.17 2805.34,165.573 2811.66,164.977 2817.98,164.381 2824.3,163.785 2830.62,163.189 2836.94,162.592 2843.26,161.996 2849.58,161.4 2855.9,160.804 2862.22,160.208 2868.54,159.611 2874.86,159.015 2881.18,158.419 2887.5,157.823 2893.82,157.227 2900.14,156.63 2906.46,156.034 2912.78,155.438 2919.1,154.842 2925.42,154.245 2931.74,153.649 2938.06,153.053 2944.38,152.457 2950.7,151.861 2957.02,151.264 2963.34,150.668 2969.66,150.072 2975.98,149.476 2982.3,148.88 2988.62,148.283 2994.94,147.687 3001.26,147.091 3007.58,146.495 3013.9,145.899 3020.22,145.302 3026.54,144.706 3032.86,144.11 3039.18,143.514 3045.5,142.917 3051.82,142.321 3058.14,141.725 3064.46,141.129 3070.78,140.533 3077.1,139.936 3083.42,139.34 3089.74,138.744 3096.06,138.148 3102.38,137.552 3108.7,136.955 3115.03,136.359 "/>
<polyline clip-path="url(#clip643)" style="stroke:#000000; stroke-linecap:round; stroke-linejoin:round; stroke-width:6; stroke-opacity:1; fill:none" points="2208.07,860.885 2239.74,860.885 "/>
<polyline clip-path="url(#clip643)" style="stroke:#000000; stroke-linecap:round; stroke-linejoin:round; stroke-width:6; stroke-opacity:1; fill:none" points="2578.61,185.706 2608.25,185.706 "/>
<line clip-path="url(#clip643)" x1="2208.07" y1="880.885" x2="2208.07" y2="840.885" style="stroke:#000000; stroke-width:6; stroke-opacity:1"/>
<line clip-path="url(#clip643)" x1="2239.74" y1="880.885" x2="2239.74" y2="840.885" style="stroke:#000000; stroke-width:6; stroke-opacity:1"/>
<line clip-path="url(#clip643)" x1="2578.61" y1="205.706" x2="2578.61" y2="165.706" style="stroke:#000000; stroke-width:6; stroke-opacity:1"/>
<line clip-path="url(#clip643)" x1="2608.25" y1="205.706" x2="2608.25" y2="165.706" style="stroke:#000000; stroke-width:6; stroke-opacity:1"/>
<circle clip-path="url(#clip643)" cx="2223.9" cy="860.885" r="18" fill="#000000" fill-rule="evenodd" fill-opacity="1" stroke="none"/>
<circle clip-path="url(#clip643)" cx="2593.43" cy="185.706" r="18" fill="#000000" fill-rule="evenodd" fill-opacity="1" stroke="none"/>
</svg>
