<?xml version="1.0" encoding="utf-8"?>
<svg xmlns="http://www.w3.org/2000/svg" xmlns:xlink="http://www.w3.org/1999/xlink" width="600" height="400" viewBox="0 0 2400 1600">
<defs>
  <clipPath id="clip320">
    <rect x="0" y="0" width="2400" height="1600"/>
  </clipPath>
</defs>
<path clip-path="url(#clip320)" d="M0 1600 L2400 1600 L2400 8.88178e-14 L0 8.88178e-14  Z" fill="#ffffff" fill-rule="evenodd" fill-opacity="1"/>
<defs>
  <clipPath id="clip321">
    <rect x="480" y="0" width="1681" height="1600"/>
  </clipPath>
</defs>
<path clip-path="url(#clip320)" d="M232.389 661.294 L2352.76 661.294 L2352.76 123.472 L232.389 123.472  Z" fill="#ffffff" fill-rule="evenodd" fill-opacity="1"/>
<defs>
  <clipPath id="clip322">
    <rect x="232" y="123" width="2121" height="539"/>
  </clipPath>
</defs>
<polyline clip-path="url(#clip322)" style="stroke:#000000; stroke-linecap:round; stroke-linejoin:round; stroke-width:2; stroke-opacity:0.1; fill:none" points="292.4,661.294 292.4,123.472 "/>
<polyline clip-path="url(#clip322)" style="stroke:#000000; stroke-linecap:round; stroke-linejoin:round; stroke-width:2; stroke-opacity:0.1; fill:none" points="792.486,661.294 792.486,123.472 "/>
<polyline clip-path="url(#clip322)" style="stroke:#000000; stroke-linecap:round; stroke-linejoin:round; stroke-width:2; stroke-opacity:0.1; fill:none" points="1292.57,661.294 1292.57,123.472 "/>
<polyline clip-path="url(#clip322)" style="stroke:#000000; stroke-linecap:round; stroke-linejoin:round; stroke-width:2; stroke-opacity:0.1; fill:none" points="1792.66,661.294 1792.66,123.472 "/>
<polyline clip-path="url(#clip322)" style="stroke:#000000; stroke-linecap:round; stroke-linejoin:round; stroke-width:2; stroke-opacity:0.1; fill:none" points="2292.75,661.294 2292.75,123.472 "/>
<polyline clip-path="url(#clip322)" style="stroke:#000000; stroke-linecap:round; stroke-linejoin:round; stroke-width:2; stroke-opacity:0.1; fill:none" points="232.389,567.41 2352.76,567.41 "/>
<polyline clip-path="url(#clip322)" style="stroke:#000000; stroke-linecap:round; stroke-linejoin:round; stroke-width:2; stroke-opacity:0.1; fill:none" points="232.389,462.06 2352.76,462.06 "/>
<polyline clip-path="url(#clip322)" style="stroke:#000000; stroke-linecap:round; stroke-linejoin:round; stroke-width:2; stroke-opacity:0.1; fill:none" points="232.389,356.71 2352.76,356.71 "/>
<polyline clip-path="url(#clip322)" style="stroke:#000000; stroke-linecap:round; stroke-linejoin:round; stroke-width:2; stroke-opacity:0.1; fill:none" points="232.389,251.361 2352.76,251.361 "/>
<polyline clip-path="url(#clip322)" style="stroke:#000000; stroke-linecap:round; stroke-linejoin:round; stroke-width:2; stroke-opacity:0.1; fill:none" points="232.389,146.011 2352.76,146.011 "/>
<polyline clip-path="url(#clip320)" style="stroke:#000000; stroke-linecap:round; stroke-linejoin:round; stroke-width:4; stroke-opacity:1; fill:none" points="232.389,661.294 2352.76,661.294 "/>
<polyline clip-path="url(#clip320)" style="stroke:#000000; stroke-linecap:round; stroke-linejoin:round; stroke-width:4; stroke-opacity:1; fill:none" points="292.4,661.294 292.4,642.396 "/>
<polyline clip-path="url(#clip320)" style="stroke:#000000; stroke-linecap:round; stroke-linejoin:round; stroke-width:4; stroke-opacity:1; fill:none" points="792.486,661.294 792.486,642.396 "/>
<polyline clip-path="url(#clip320)" style="stroke:#000000; stroke-linecap:round; stroke-linejoin:round; stroke-width:4; stroke-opacity:1; fill:none" points="1292.57,661.294 1292.57,642.396 "/>
<polyline clip-path="url(#clip320)" style="stroke:#000000; stroke-linecap:round; stroke-linejoin:round; stroke-width:4; stroke-opacity:1; fill:none" points="1792.66,661.294 1792.66,642.396 "/>
<polyline clip-path="url(#clip320)" style="stroke:#000000; stroke-linecap:round; stroke-linejoin:round; stroke-width:4; stroke-opacity:1; fill:none" points="2292.75,661.294 2292.75,642.396 "/>
<path clip-path="url(#clip320)" d="M292.4 692.213 Q288.789 692.213 286.96 695.777 Q285.154 699.319 285.154 706.449 Q285.154 713.555 286.96 717.12 Q288.789 720.661 292.4 720.661 Q296.034 720.661 297.84 717.12 Q299.668 713.555 299.668 706.449 Q299.668 699.319 297.84 695.777 Q296.034 692.213 292.4 692.213 M292.4 688.509 Q298.21 688.509 301.265 693.115 Q304.344 697.699 304.344 706.449 Q304.344 715.175 301.265 719.782 Q298.21 724.365 292.4 724.365 Q286.59 724.365 283.511 719.782 Q280.455 715.175 280.455 706.449 Q280.455 697.699 283.511 693.115 Q286.59 688.509 292.4 688.509 Z" fill="#000000" fill-rule="nonzero" fill-opacity="1" /><path clip-path="url(#clip320)" d="M771.757 719.759 L788.076 719.759 L788.076 723.694 L766.132 723.694 L766.132 719.759 Q768.794 717.004 773.377 712.374 Q777.984 707.722 779.164 706.379 Q781.41 703.856 782.289 702.12 Q783.192 700.361 783.192 698.671 Q783.192 695.916 781.248 694.18 Q779.327 692.444 776.225 692.444 Q774.026 692.444 771.572 693.208 Q769.141 693.972 766.364 695.523 L766.364 690.801 Q769.188 689.666 771.641 689.088 Q774.095 688.509 776.132 688.509 Q781.502 688.509 784.697 691.194 Q787.891 693.879 787.891 698.37 Q787.891 700.5 787.081 702.421 Q786.294 704.319 784.188 706.912 Q783.609 707.583 780.507 710.8 Q777.405 713.995 771.757 719.759 Z" fill="#000000" fill-rule="nonzero" fill-opacity="1" /><path clip-path="url(#clip320)" d="M797.938 689.134 L816.294 689.134 L816.294 693.069 L802.22 693.069 L802.22 701.541 Q803.238 701.194 804.257 701.032 Q805.275 700.847 806.294 700.847 Q812.081 700.847 815.461 704.018 Q818.84 707.189 818.84 712.606 Q818.84 718.185 815.368 721.286 Q811.896 724.365 805.576 724.365 Q803.4 724.365 801.132 723.995 Q798.887 723.624 796.479 722.884 L796.479 718.185 Q798.563 719.319 800.785 719.874 Q803.007 720.43 805.484 720.43 Q809.488 720.43 811.826 718.324 Q814.164 716.217 814.164 712.606 Q814.164 708.995 811.826 706.888 Q809.488 704.782 805.484 704.782 Q803.609 704.782 801.734 705.199 Q799.882 705.615 797.938 706.495 L797.938 689.134 Z" fill="#000000" fill-rule="nonzero" fill-opacity="1" /><path clip-path="url(#clip320)" d="M1267.27 689.134 L1285.63 689.134 L1285.63 693.069 L1271.55 693.069 L1271.55 701.541 Q1272.57 701.194 1273.59 701.032 Q1274.61 700.847 1275.63 700.847 Q1281.42 700.847 1284.79 704.018 Q1288.17 707.189 1288.17 712.606 Q1288.17 718.185 1284.7 721.286 Q1281.23 724.365 1274.91 724.365 Q1272.73 724.365 1270.47 723.995 Q1268.22 723.624 1265.81 722.884 L1265.81 718.185 Q1267.9 719.319 1270.12 719.874 Q1272.34 720.43 1274.82 720.43 Q1278.82 720.43 1281.16 718.324 Q1283.5 716.217 1283.5 712.606 Q1283.5 708.995 1281.16 706.888 Q1278.82 704.782 1274.82 704.782 Q1272.94 704.782 1271.07 705.199 Q1269.22 705.615 1267.27 706.495 L1267.27 689.134 Z" fill="#000000" fill-rule="nonzero" fill-opacity="1" /><path clip-path="url(#clip320)" d="M1307.39 692.213 Q1303.78 692.213 1301.95 695.777 Q1300.14 699.319 1300.14 706.449 Q1300.14 713.555 1301.95 717.12 Q1303.78 720.661 1307.39 720.661 Q1311.02 720.661 1312.83 717.12 Q1314.66 713.555 1314.66 706.449 Q1314.66 699.319 1312.83 695.777 Q1311.02 692.213 1307.39 692.213 M1307.39 688.509 Q1313.2 688.509 1316.25 693.115 Q1319.33 697.699 1319.33 706.449 Q1319.33 715.175 1316.25 719.782 Q1313.2 724.365 1307.39 724.365 Q1301.58 724.365 1298.5 719.782 Q1295.44 715.175 1295.44 706.449 Q1295.44 697.699 1298.5 693.115 Q1301.58 688.509 1307.39 688.509 Z" fill="#000000" fill-rule="nonzero" fill-opacity="1" /><path clip-path="url(#clip320)" d="M1766.51 689.134 L1788.74 689.134 L1788.74 691.125 L1776.19 723.694 L1771.31 723.694 L1783.11 693.069 L1766.51 693.069 L1766.51 689.134 Z" fill="#000000" fill-rule="nonzero" fill-opacity="1" /><path clip-path="url(#clip320)" d="M1797.9 689.134 L1816.26 689.134 L1816.26 693.069 L1802.18 693.069 L1802.18 701.541 Q1803.2 701.194 1804.22 701.032 Q1805.24 700.847 1806.26 700.847 Q1812.05 700.847 1815.43 704.018 Q1818.8 707.189 1818.8 712.606 Q1818.8 718.185 1815.33 721.286 Q1811.86 724.365 1805.54 724.365 Q1803.37 724.365 1801.1 723.995 Q1798.85 723.624 1796.44 722.884 L1796.44 718.185 Q1798.53 719.319 1800.75 719.874 Q1802.97 720.43 1805.45 720.43 Q1809.45 720.43 1811.79 718.324 Q1814.13 716.217 1814.13 712.606 Q1814.13 708.995 1811.79 706.888 Q1809.45 704.782 1805.45 704.782 Q1803.57 704.782 1801.7 705.199 Q1799.85 705.615 1797.9 706.495 L1797.9 689.134 Z" fill="#000000" fill-rule="nonzero" fill-opacity="1" /><path clip-path="url(#clip320)" d="M2252.35 719.759 L2259.99 719.759 L2259.99 693.393 L2251.68 695.06 L2251.68 690.801 L2259.94 689.134 L2264.62 689.134 L2264.62 719.759 L2272.26 719.759 L2272.26 723.694 L2252.35 723.694 L2252.35 719.759 Z" fill="#000000" fill-rule="nonzero" fill-opacity="1" /><path clip-path="url(#clip320)" d="M2291.7 692.213 Q2288.09 692.213 2286.26 695.777 Q2284.46 699.319 2284.46 706.449 Q2284.46 713.555 2286.26 717.12 Q2288.09 720.661 2291.7 720.661 Q2295.34 720.661 2297.14 717.12 Q2298.97 713.555 2298.97 706.449 Q2298.97 699.319 2297.14 695.777 Q2295.34 692.213 2291.7 692.213 M2291.7 688.509 Q2297.51 688.509 2300.57 693.115 Q2303.65 697.699 2303.65 706.449 Q2303.65 715.175 2300.57 719.782 Q2297.51 724.365 2291.7 724.365 Q2285.89 724.365 2282.82 719.782 Q2279.76 715.175 2279.76 706.449 Q2279.76 697.699 2282.82 693.115 Q2285.89 688.509 2291.7 688.509 Z" fill="#000000" fill-rule="nonzero" fill-opacity="1" /><path clip-path="url(#clip320)" d="M2321.87 692.213 Q2318.25 692.213 2316.43 695.777 Q2314.62 699.319 2314.62 706.449 Q2314.62 713.555 2316.43 717.12 Q2318.25 720.661 2321.87 720.661 Q2325.5 720.661 2327.31 717.12 Q2329.13 713.555 2329.13 706.449 Q2329.13 699.319 2327.31 695.777 Q2325.5 692.213 2321.87 692.213 M2321.87 688.509 Q2327.68 688.509 2330.73 693.115 Q2333.81 697.699 2333.81 706.449 Q2333.81 715.175 2330.73 719.782 Q2327.68 724.365 2321.87 724.365 Q2316.06 724.365 2312.98 719.782 Q2309.92 715.175 2309.92 706.449 Q2309.92 697.699 2312.98 693.115 Q2316.06 688.509 2321.87 688.509 Z" fill="#000000" fill-rule="nonzero" fill-opacity="1" /><path clip-path="url(#clip320)" d="M1309.19 770.51 L1296.3 787.856 L1309.86 806.158 L1302.95 806.158 L1292.57 792.153 L1282.2 806.158 L1275.29 806.158 L1289.14 787.506 L1276.47 770.51 L1283.37 770.51 L1292.83 783.209 L1302.28 770.51 L1309.19 770.51 Z" fill="#000000" fill-rule="nonzero" fill-opacity="1" /><polyline clip-path="url(#clip320)" style="stroke:#000000; stroke-linecap:round; stroke-linejoin:round; stroke-width:4; stroke-opacity:1; fill:none" points="232.389,661.294 232.389,123.472 "/>
<polyline clip-path="url(#clip320)" style="stroke:#000000; stroke-linecap:round; stroke-linejoin:round; stroke-width:4; stroke-opacity:1; fill:none" points="232.389,567.41 251.287,567.41 "/>
<polyline clip-path="url(#clip320)" style="stroke:#000000; stroke-linecap:round; stroke-linejoin:round; stroke-width:4; stroke-opacity:1; fill:none" points="232.389,462.06 251.287,462.06 "/>
<polyline clip-path="url(#clip320)" style="stroke:#000000; stroke-linecap:round; stroke-linejoin:round; stroke-width:4; stroke-opacity:1; fill:none" points="232.389,356.71 251.287,356.71 "/>
<polyline clip-path="url(#clip320)" style="stroke:#000000; stroke-linecap:round; stroke-linejoin:round; stroke-width:4; stroke-opacity:1; fill:none" points="232.389,251.361 251.287,251.361 "/>
<polyline clip-path="url(#clip320)" style="stroke:#000000; stroke-linecap:round; stroke-linejoin:round; stroke-width:4; stroke-opacity:1; fill:none" points="232.389,146.011 251.287,146.011 "/>
<path clip-path="url(#clip320)" d="M148.311 580.755 L164.63 580.755 L164.63 584.69 L142.686 584.69 L142.686 580.755 Q145.348 578 149.931 573.37 Q154.538 568.718 155.718 567.375 Q157.964 564.852 158.843 563.116 Q159.746 561.356 159.746 559.667 Q159.746 556.912 157.802 555.176 Q155.88 553.44 152.778 553.44 Q150.579 553.44 148.126 554.204 Q145.695 554.968 142.917 556.519 L142.917 551.796 Q145.741 550.662 148.195 550.083 Q150.649 549.505 152.686 549.505 Q158.056 549.505 161.251 552.19 Q164.445 554.875 164.445 559.366 Q164.445 561.495 163.635 563.417 Q162.848 565.315 160.741 567.907 Q160.163 568.579 157.061 571.796 Q153.959 574.991 148.311 580.755 Z" fill="#000000" fill-rule="nonzero" fill-opacity="1" /><path clip-path="url(#clip320)" d="M184.445 553.208 Q180.834 553.208 179.005 556.773 Q177.2 560.315 177.2 567.444 Q177.2 574.551 179.005 578.116 Q180.834 581.657 184.445 581.657 Q188.079 581.657 189.885 578.116 Q191.713 574.551 191.713 567.444 Q191.713 560.315 189.885 556.773 Q188.079 553.208 184.445 553.208 M184.445 549.505 Q190.255 549.505 193.311 554.111 Q196.389 558.694 196.389 567.444 Q196.389 576.171 193.311 580.778 Q190.255 585.361 184.445 585.361 Q178.635 585.361 175.556 580.778 Q172.501 576.171 172.501 567.444 Q172.501 558.694 175.556 554.111 Q178.635 549.505 184.445 549.505 Z" fill="#000000" fill-rule="nonzero" fill-opacity="1" /><path clip-path="url(#clip320)" d="M157.13 448.854 L145.325 467.303 L157.13 467.303 L157.13 448.854 M155.903 444.78 L161.783 444.78 L161.783 467.303 L166.714 467.303 L166.714 471.192 L161.783 471.192 L161.783 479.34 L157.13 479.34 L157.13 471.192 L141.529 471.192 L141.529 466.678 L155.903 444.78 Z" fill="#000000" fill-rule="nonzero" fill-opacity="1" /><path clip-path="url(#clip320)" d="M184.445 447.859 Q180.834 447.859 179.005 451.424 Q177.2 454.965 177.2 462.095 Q177.2 469.201 179.005 472.766 Q180.834 476.308 184.445 476.308 Q188.079 476.308 189.885 472.766 Q191.713 469.201 191.713 462.095 Q191.713 454.965 189.885 451.424 Q188.079 447.859 184.445 447.859 M184.445 444.155 Q190.255 444.155 193.311 448.761 Q196.389 453.345 196.389 462.095 Q196.389 470.822 193.311 475.428 Q190.255 480.011 184.445 480.011 Q178.635 480.011 175.556 475.428 Q172.501 470.822 172.501 462.095 Q172.501 453.345 175.556 448.761 Q178.635 444.155 184.445 444.155 Z" fill="#000000" fill-rule="nonzero" fill-opacity="1" /><path clip-path="url(#clip320)" d="M154.862 354.847 Q151.714 354.847 149.862 357 Q148.033 359.152 148.033 362.902 Q148.033 366.629 149.862 368.805 Q151.714 370.958 154.862 370.958 Q158.01 370.958 159.839 368.805 Q161.69 366.629 161.69 362.902 Q161.69 359.152 159.839 357 Q158.01 354.847 154.862 354.847 M164.144 340.194 L164.144 344.453 Q162.385 343.62 160.579 343.18 Q158.797 342.741 157.038 342.741 Q152.408 342.741 149.954 345.866 Q147.524 348.99 147.177 355.31 Q148.542 353.296 150.603 352.231 Q152.663 351.143 155.14 351.143 Q160.348 351.143 163.357 354.315 Q166.39 357.463 166.39 362.902 Q166.39 368.226 163.241 371.444 Q160.093 374.662 154.862 374.662 Q148.866 374.662 145.695 370.078 Q142.524 365.472 142.524 356.745 Q142.524 348.551 146.413 343.69 Q150.302 338.805 156.853 338.805 Q158.612 338.805 160.394 339.153 Q162.2 339.5 164.144 340.194 Z" fill="#000000" fill-rule="nonzero" fill-opacity="1" /><path clip-path="url(#clip320)" d="M184.445 342.509 Q180.834 342.509 179.005 346.074 Q177.2 349.615 177.2 356.745 Q177.2 363.852 179.005 367.416 Q180.834 370.958 184.445 370.958 Q188.079 370.958 189.885 367.416 Q191.713 363.852 191.713 356.745 Q191.713 349.615 189.885 346.074 Q188.079 342.509 184.445 342.509 M184.445 338.805 Q190.255 338.805 193.311 343.412 Q196.389 347.995 196.389 356.745 Q196.389 365.472 193.311 370.078 Q190.255 374.662 184.445 374.662 Q178.635 374.662 175.556 370.078 Q172.501 365.472 172.501 356.745 Q172.501 347.995 175.556 343.412 Q178.635 338.805 184.445 338.805 Z" fill="#000000" fill-rule="nonzero" fill-opacity="1" /><path clip-path="url(#clip320)" d="M154.283 252.229 Q150.95 252.229 149.028 254.011 Q147.13 255.794 147.13 258.919 Q147.13 262.043 149.028 263.826 Q150.95 265.608 154.283 265.608 Q157.616 265.608 159.538 263.826 Q161.459 262.02 161.459 258.919 Q161.459 255.794 159.538 254.011 Q157.64 252.229 154.283 252.229 M149.607 250.238 Q146.598 249.497 144.908 247.437 Q143.241 245.377 143.241 242.414 Q143.241 238.27 146.181 235.863 Q149.144 233.456 154.283 233.456 Q159.445 233.456 162.385 235.863 Q165.325 238.27 165.325 242.414 Q165.325 245.377 163.635 247.437 Q161.968 249.497 158.982 250.238 Q162.362 251.025 164.237 253.317 Q166.135 255.608 166.135 258.919 Q166.135 263.942 163.056 266.627 Q160.001 269.312 154.283 269.312 Q148.566 269.312 145.487 266.627 Q142.431 263.942 142.431 258.919 Q142.431 255.608 144.329 253.317 Q146.228 251.025 149.607 250.238 M147.894 242.854 Q147.894 245.539 149.561 247.044 Q151.251 248.548 154.283 248.548 Q157.292 248.548 158.982 247.044 Q160.695 245.539 160.695 242.854 Q160.695 240.169 158.982 238.664 Q157.292 237.159 154.283 237.159 Q151.251 237.159 149.561 238.664 Q147.894 240.169 147.894 242.854 Z" fill="#000000" fill-rule="nonzero" fill-opacity="1" /><path clip-path="url(#clip320)" d="M184.445 237.159 Q180.834 237.159 179.005 240.724 Q177.2 244.266 177.2 251.395 Q177.2 258.502 179.005 262.067 Q180.834 265.608 184.445 265.608 Q188.079 265.608 189.885 262.067 Q191.713 258.502 191.713 251.395 Q191.713 244.266 189.885 240.724 Q188.079 237.159 184.445 237.159 M184.445 233.456 Q190.255 233.456 193.311 238.062 Q196.389 242.645 196.389 251.395 Q196.389 260.122 193.311 264.729 Q190.255 269.312 184.445 269.312 Q178.635 269.312 175.556 264.729 Q172.501 260.122 172.501 251.395 Q172.501 242.645 175.556 238.062 Q178.635 233.456 184.445 233.456 Z" fill="#000000" fill-rule="nonzero" fill-opacity="1" /><path clip-path="url(#clip320)" d="M114.931 159.356 L122.57 159.356 L122.57 132.99 L114.26 134.657 L114.26 130.398 L122.524 128.731 L127.2 128.731 L127.2 159.356 L134.839 159.356 L134.839 163.291 L114.931 163.291 L114.931 159.356 Z" fill="#000000" fill-rule="nonzero" fill-opacity="1" /><path clip-path="url(#clip320)" d="M154.283 131.81 Q150.672 131.81 148.843 135.374 Q147.038 138.916 147.038 146.046 Q147.038 153.152 148.843 156.717 Q150.672 160.259 154.283 160.259 Q157.917 160.259 159.723 156.717 Q161.552 153.152 161.552 146.046 Q161.552 138.916 159.723 135.374 Q157.917 131.81 154.283 131.81 M154.283 128.106 Q160.093 128.106 163.149 132.712 Q166.227 137.296 166.227 146.046 Q166.227 154.773 163.149 159.379 Q160.093 163.962 154.283 163.962 Q148.473 163.962 145.394 159.379 Q142.339 154.773 142.339 146.046 Q142.339 137.296 145.394 132.712 Q148.473 128.106 154.283 128.106 Z" fill="#000000" fill-rule="nonzero" fill-opacity="1" /><path clip-path="url(#clip320)" d="M184.445 131.81 Q180.834 131.81 179.005 135.374 Q177.2 138.916 177.2 146.046 Q177.2 153.152 179.005 156.717 Q180.834 160.259 184.445 160.259 Q188.079 160.259 189.885 156.717 Q191.713 153.152 191.713 146.046 Q191.713 138.916 189.885 135.374 Q188.079 131.81 184.445 131.81 M184.445 128.106 Q190.255 128.106 193.311 132.712 Q196.389 137.296 196.389 146.046 Q196.389 154.773 193.311 159.379 Q190.255 163.962 184.445 163.962 Q178.635 163.962 175.556 159.379 Q172.501 154.773 172.501 146.046 Q172.501 137.296 175.556 132.712 Q178.635 128.106 184.445 128.106 Z" fill="#000000" fill-rule="nonzero" fill-opacity="1" /><path clip-path="url(#clip320)" d="M67.3143 390.696 Q73.68 393.179 75.6216 395.534 Q77.5631 397.889 77.5631 401.836 L77.5631 406.515 L72.6615 406.515 L72.6615 403.077 Q72.6615 400.658 71.5157 399.322 Q70.3699 397.985 66.1048 396.362 L63.4312 395.311 L28.3562 409.73 L28.3562 403.523 L56.238 392.383 L28.3562 381.243 L28.3562 375.036 L67.3143 390.696 Z" fill="#000000" fill-rule="nonzero" fill-opacity="1" /><path clip-path="url(#clip320)" d="M927.08 18.8205 L927.08 41.5461 L937.369 41.5461 Q943.081 41.5461 946.2 38.5889 Q949.319 35.6318 949.319 30.163 Q949.319 24.7348 946.2 21.7777 Q943.081 18.8205 937.369 18.8205 L927.08 18.8205 M918.897 12.096 L937.369 12.096 Q947.537 12.096 952.722 16.714 Q957.948 21.2916 957.948 30.163 Q957.948 39.1155 952.722 43.6931 Q947.537 48.2706 937.369 48.2706 L927.08 48.2706 L927.08 72.576 L918.897 72.576 L918.897 12.096 Z" fill="#000000" fill-rule="nonzero" fill-opacity="1" /><path clip-path="url(#clip320)" d="M983.225 32.4315 Q977.23 32.4315 973.746 37.1306 Q970.262 41.7891 970.262 49.9314 Q970.262 58.0738 973.706 62.7728 Q977.189 67.4314 983.225 67.4314 Q989.18 67.4314 992.664 62.7323 Q996.148 58.0333 996.148 49.9314 Q996.148 41.8701 992.664 37.1711 Q989.18 32.4315 983.225 32.4315 M983.225 26.1121 Q992.947 26.1121 998.497 32.4315 Q1004.05 38.7509 1004.05 49.9314 Q1004.05 61.0714 998.497 67.4314 Q992.947 73.7508 983.225 73.7508 Q973.463 73.7508 967.913 67.4314 Q962.404 61.0714 962.404 49.9314 Q962.404 38.7509 967.913 32.4315 Q973.463 26.1121 983.225 26.1121 Z" fill="#000000" fill-rule="nonzero" fill-opacity="1" /><path clip-path="url(#clip320)" d="M1023.61 65.7705 L1023.61 89.8329 L1016.12 89.8329 L1016.12 27.2059 L1023.61 27.2059 L1023.61 34.0924 Q1025.96 30.0415 1029.53 28.0971 Q1033.13 26.1121 1038.12 26.1121 Q1046.38 26.1121 1051.52 32.6746 Q1056.71 39.2371 1056.71 49.9314 Q1056.71 60.6258 1051.52 67.1883 Q1046.38 73.7508 1038.12 73.7508 Q1033.13 73.7508 1029.53 71.8063 Q1025.96 69.8214 1023.61 65.7705 M1048.97 49.9314 Q1048.97 41.7081 1045.57 37.0496 Q1042.21 32.3505 1036.29 32.3505 Q1030.38 32.3505 1026.98 37.0496 Q1023.61 41.7081 1023.61 49.9314 Q1023.61 58.1548 1026.98 62.8538 Q1030.38 67.5124 1036.29 67.5124 Q1042.21 67.5124 1045.57 62.8538 Q1048.97 58.1548 1048.97 49.9314 Z" fill="#000000" fill-rule="nonzero" fill-opacity="1" /><path clip-path="url(#clip320)" d="M1068.29 54.671 L1068.29 27.2059 L1075.75 27.2059 L1075.75 54.3874 Q1075.75 60.8284 1078.26 64.0691 Q1080.77 67.2693 1085.79 67.2693 Q1091.83 67.2693 1095.31 63.421 Q1098.84 59.5726 1098.84 52.9291 L1098.84 27.2059 L1106.29 27.2059 L1106.29 72.576 L1098.84 72.576 L1098.84 65.6084 Q1096.12 69.7404 1092.52 71.7658 Q1088.95 73.7508 1084.21 73.7508 Q1076.4 73.7508 1072.35 68.8897 Q1068.29 64.0286 1068.29 54.671 M1087.05 26.1121 L1087.05 26.1121 Z" fill="#000000" fill-rule="nonzero" fill-opacity="1" /><path clip-path="url(#clip320)" d="M1121.64 9.54393 L1129.1 9.54393 L1129.1 72.576 L1121.64 72.576 L1121.64 9.54393 Z" fill="#000000" fill-rule="nonzero" fill-opacity="1" /><path clip-path="url(#clip320)" d="M1165.31 49.7694 Q1156.28 49.7694 1152.8 51.8354 Q1149.31 53.9013 1149.31 58.8839 Q1149.31 62.8538 1151.9 65.2034 Q1154.54 67.5124 1159.03 67.5124 Q1165.23 67.5124 1168.96 63.1374 Q1172.73 58.7219 1172.73 51.4303 L1172.73 49.7694 L1165.31 49.7694 M1180.18 46.6907 L1180.18 72.576 L1172.73 72.576 L1172.73 65.6895 Q1170.17 69.8214 1166.37 71.8063 Q1162.56 73.7508 1157.05 73.7508 Q1150.08 73.7508 1145.95 69.8619 Q1141.86 65.9325 1141.86 59.3701 Q1141.86 51.7138 1146.96 47.825 Q1152.11 43.9361 1162.28 43.9361 L1172.73 43.9361 L1172.73 43.2069 Q1172.73 38.0623 1169.32 35.2672 Q1165.96 32.4315 1159.84 32.4315 Q1155.96 32.4315 1152.27 33.3632 Q1148.58 34.295 1145.18 36.1584 L1145.18 29.2718 Q1149.27 27.692 1153.12 26.9223 Q1156.97 26.1121 1160.61 26.1121 Q1170.46 26.1121 1175.32 31.2163 Q1180.18 36.3204 1180.18 46.6907 Z" fill="#000000" fill-rule="nonzero" fill-opacity="1" /><path clip-path="url(#clip320)" d="M1202.91 14.324 L1202.91 27.2059 L1218.26 27.2059 L1218.26 32.9987 L1202.91 32.9987 L1202.91 57.6282 Q1202.91 63.1779 1204.4 64.7578 Q1205.94 66.3376 1210.6 66.3376 L1218.26 66.3376 L1218.26 72.576 L1210.6 72.576 Q1201.97 72.576 1198.69 69.3758 Q1195.41 66.1351 1195.41 57.6282 L1195.41 32.9987 L1189.94 32.9987 L1189.94 27.2059 L1195.41 27.2059 L1195.41 14.324 L1202.91 14.324 Z" fill="#000000" fill-rule="nonzero" fill-opacity="1" /><path clip-path="url(#clip320)" d="M1228.06 27.2059 L1235.52 27.2059 L1235.52 72.576 L1228.06 72.576 L1228.06 27.2059 M1228.06 9.54393 L1235.52 9.54393 L1235.52 18.9825 L1228.06 18.9825 L1228.06 9.54393 Z" fill="#000000" fill-rule="nonzero" fill-opacity="1" /><path clip-path="url(#clip320)" d="M1268.69 32.4315 Q1262.7 32.4315 1259.21 37.1306 Q1255.73 41.7891 1255.73 49.9314 Q1255.73 58.0738 1259.17 62.7728 Q1262.66 67.4314 1268.69 67.4314 Q1274.65 67.4314 1278.13 62.7323 Q1281.61 58.0333 1281.61 49.9314 Q1281.61 41.8701 1278.13 37.1711 Q1274.65 32.4315 1268.69 32.4315 M1268.69 26.1121 Q1278.41 26.1121 1283.96 32.4315 Q1289.51 38.7509 1289.51 49.9314 Q1289.51 61.0714 1283.96 67.4314 Q1278.41 73.7508 1268.69 73.7508 Q1258.93 73.7508 1253.38 67.4314 Q1247.87 61.0714 1247.87 49.9314 Q1247.87 38.7509 1253.38 32.4315 Q1258.93 26.1121 1268.69 26.1121 Z" fill="#000000" fill-rule="nonzero" fill-opacity="1" /><path clip-path="url(#clip320)" d="M1339.58 45.1919 L1339.58 72.576 L1332.13 72.576 L1332.13 45.4349 Q1332.13 38.994 1329.62 35.7938 Q1327.11 32.5936 1322.08 32.5936 Q1316.05 32.5936 1312.56 36.4419 Q1309.08 40.2903 1309.08 46.9338 L1309.08 72.576 L1301.59 72.576 L1301.59 27.2059 L1309.08 27.2059 L1309.08 34.2544 Q1311.75 30.163 1315.36 28.1376 Q1319 26.1121 1323.74 26.1121 Q1331.56 26.1121 1335.57 30.9732 Q1339.58 35.7938 1339.58 45.1919 Z" fill="#000000" fill-rule="nonzero" fill-opacity="1" /><path clip-path="url(#clip320)" d="M1422.38 63.9476 L1422.38 47.7034 L1409.02 47.7034 L1409.02 40.9789 L1430.49 40.9789 L1430.49 66.9452 Q1425.75 70.3075 1420.03 72.0494 Q1414.32 73.7508 1407.84 73.7508 Q1393.66 73.7508 1385.64 65.4869 Q1377.66 57.1826 1377.66 42.3968 Q1377.66 27.5705 1385.64 19.3066 Q1393.66 11.0023 1407.84 11.0023 Q1413.76 11.0023 1419.06 12.4606 Q1424.41 13.9189 1428.91 16.7545 L1428.91 25.464 Q1424.37 21.6156 1419.26 19.6712 Q1414.16 17.7268 1408.53 17.7268 Q1397.43 17.7268 1391.84 23.9246 Q1386.29 30.1225 1386.29 42.3968 Q1386.29 54.6305 1391.84 60.8284 Q1397.43 67.0263 1408.53 67.0263 Q1412.86 67.0263 1416.27 66.2971 Q1419.67 65.5274 1422.38 63.9476 Z" fill="#000000" fill-rule="nonzero" fill-opacity="1" /><path clip-path="url(#clip320)" d="M1471.4 34.1734 Q1470.14 33.4443 1468.65 33.1202 Q1467.19 32.7556 1465.4 32.7556 Q1459.09 32.7556 1455.68 36.8875 Q1452.32 40.9789 1452.32 48.6757 L1452.32 72.576 L1444.83 72.576 L1444.83 27.2059 L1452.32 27.2059 L1452.32 34.2544 Q1454.67 30.1225 1458.44 28.1376 Q1462.2 26.1121 1467.59 26.1121 Q1468.36 26.1121 1469.29 26.2337 Q1470.23 26.3147 1471.36 26.5172 L1471.4 34.1734 Z" fill="#000000" fill-rule="nonzero" fill-opacity="1" /><path clip-path="url(#clip320)" d="M1494.98 32.4315 Q1488.98 32.4315 1485.5 37.1306 Q1482.01 41.7891 1482.01 49.9314 Q1482.01 58.0738 1485.46 62.7728 Q1488.94 67.4314 1494.98 67.4314 Q1500.93 67.4314 1504.41 62.7323 Q1507.9 58.0333 1507.9 49.9314 Q1507.9 41.8701 1504.41 37.1711 Q1500.93 32.4315 1494.98 32.4315 M1494.98 26.1121 Q1504.7 26.1121 1510.25 32.4315 Q1515.8 38.7509 1515.8 49.9314 Q1515.8 61.0714 1510.25 67.4314 Q1504.7 73.7508 1494.98 73.7508 Q1485.21 73.7508 1479.66 67.4314 Q1474.15 61.0714 1474.15 49.9314 Q1474.15 38.7509 1479.66 32.4315 Q1485.21 26.1121 1494.98 26.1121 Z" fill="#000000" fill-rule="nonzero" fill-opacity="1" /><path clip-path="url(#clip320)" d="M1523.82 27.2059 L1531.27 27.2059 L1540.59 62.6108 L1549.87 27.2059 L1558.66 27.2059 L1567.97 62.6108 L1577.25 27.2059 L1584.7 27.2059 L1572.83 72.576 L1564.04 72.576 L1554.28 35.3887 L1544.48 72.576 L1535.69 72.576 L1523.82 27.2059 Z" fill="#000000" fill-rule="nonzero" fill-opacity="1" /><path clip-path="url(#clip320)" d="M1603.38 14.324 L1603.38 27.2059 L1618.73 27.2059 L1618.73 32.9987 L1603.38 32.9987 L1603.38 57.6282 Q1603.38 63.1779 1604.88 64.7578 Q1606.42 66.3376 1611.07 66.3376 L1618.73 66.3376 L1618.73 72.576 L1611.07 72.576 Q1602.45 72.576 1599.17 69.3758 Q1595.88 66.1351 1595.88 57.6282 L1595.88 32.9987 L1590.42 32.9987 L1590.42 27.2059 L1595.88 27.2059 L1595.88 14.324 L1603.38 14.324 Z" fill="#000000" fill-rule="nonzero" fill-opacity="1" /><path clip-path="url(#clip320)" d="M1666.25 45.1919 L1666.25 72.576 L1658.79 72.576 L1658.79 45.4349 Q1658.79 38.994 1656.28 35.7938 Q1653.77 32.5936 1648.75 32.5936 Q1642.71 32.5936 1639.23 36.4419 Q1635.74 40.2903 1635.74 46.9338 L1635.74 72.576 L1628.25 72.576 L1628.25 9.54393 L1635.74 9.54393 L1635.74 34.2544 Q1638.42 30.163 1642.02 28.1376 Q1645.67 26.1121 1650.41 26.1121 Q1658.23 26.1121 1662.24 30.9732 Q1666.25 35.7938 1666.25 45.1919 Z" fill="#000000" fill-rule="nonzero" fill-opacity="1" /><circle clip-path="url(#clip322)" cx="292.4" cy="620.085" r="14.4" fill="#000000" fill-rule="evenodd" fill-opacity="1" stroke="none"/>
<circle clip-path="url(#clip322)" cx="312.403" cy="614.817" r="14.4" fill="#000000" fill-rule="evenodd" fill-opacity="1" stroke="none"/>
<circle clip-path="url(#clip322)" cx="332.407" cy="604.282" r="14.4" fill="#000000" fill-rule="evenodd" fill-opacity="1" stroke="none"/>
<circle clip-path="url(#clip322)" cx="352.41" cy="599.015" r="14.4" fill="#000000" fill-rule="evenodd" fill-opacity="1" stroke="none"/>
<circle clip-path="url(#clip322)" cx="372.414" cy="593.747" r="14.4" fill="#000000" fill-rule="evenodd" fill-opacity="1" stroke="none"/>
<circle clip-path="url(#clip322)" cx="392.417" cy="588.48" r="14.4" fill="#000000" fill-rule="evenodd" fill-opacity="1" stroke="none"/>
<circle clip-path="url(#clip322)" cx="412.42" cy="577.945" r="14.4" fill="#000000" fill-rule="evenodd" fill-opacity="1" stroke="none"/>
<circle clip-path="url(#clip322)" cx="432.424" cy="572.677" r="14.4" fill="#000000" fill-rule="evenodd" fill-opacity="1" stroke="none"/>
<circle clip-path="url(#clip322)" cx="452.427" cy="567.41" r="14.4" fill="#000000" fill-rule="evenodd" fill-opacity="1" stroke="none"/>
<circle clip-path="url(#clip322)" cx="472.431" cy="551.607" r="14.4" fill="#000000" fill-rule="evenodd" fill-opacity="1" stroke="none"/>
<circle clip-path="url(#clip322)" cx="492.434" cy="541.072" r="14.4" fill="#000000" fill-rule="evenodd" fill-opacity="1" stroke="none"/>
<circle clip-path="url(#clip322)" cx="512.438" cy="535.805" r="14.4" fill="#000000" fill-rule="evenodd" fill-opacity="1" stroke="none"/>
<circle clip-path="url(#clip322)" cx="532.441" cy="530.537" r="14.4" fill="#000000" fill-rule="evenodd" fill-opacity="1" stroke="none"/>
<circle clip-path="url(#clip322)" cx="552.445" cy="520.002" r="14.4" fill="#000000" fill-rule="evenodd" fill-opacity="1" stroke="none"/>
<circle clip-path="url(#clip322)" cx="572.448" cy="509.467" r="14.4" fill="#000000" fill-rule="evenodd" fill-opacity="1" stroke="none"/>
<circle clip-path="url(#clip322)" cx="592.452" cy="493.665" r="14.4" fill="#000000" fill-rule="evenodd" fill-opacity="1" stroke="none"/>
<circle clip-path="url(#clip322)" cx="612.455" cy="483.13" r="14.4" fill="#000000" fill-rule="evenodd" fill-opacity="1" stroke="none"/>
<circle clip-path="url(#clip322)" cx="632.459" cy="477.862" r="14.4" fill="#000000" fill-rule="evenodd" fill-opacity="1" stroke="none"/>
<circle clip-path="url(#clip322)" cx="652.462" cy="467.328" r="14.4" fill="#000000" fill-rule="evenodd" fill-opacity="1" stroke="none"/>
<circle clip-path="url(#clip322)" cx="672.465" cy="451.525" r="14.4" fill="#000000" fill-rule="evenodd" fill-opacity="1" stroke="none"/>
<circle clip-path="url(#clip322)" cx="692.469" cy="440.99" r="14.4" fill="#000000" fill-rule="evenodd" fill-opacity="1" stroke="none"/>
<circle clip-path="url(#clip322)" cx="712.472" cy="430.455" r="14.4" fill="#000000" fill-rule="evenodd" fill-opacity="1" stroke="none"/>
<circle clip-path="url(#clip322)" cx="732.476" cy="409.385" r="14.4" fill="#000000" fill-rule="evenodd" fill-opacity="1" stroke="none"/>
<circle clip-path="url(#clip322)" cx="752.479" cy="393.583" r="14.4" fill="#000000" fill-rule="evenodd" fill-opacity="1" stroke="none"/>
<circle clip-path="url(#clip322)" cx="772.483" cy="388.315" r="14.4" fill="#000000" fill-rule="evenodd" fill-opacity="1" stroke="none"/>
<circle clip-path="url(#clip322)" cx="792.486" cy="388.315" r="14.4" fill="#000000" fill-rule="evenodd" fill-opacity="1" stroke="none"/>
<circle clip-path="url(#clip322)" cx="812.49" cy="372.513" r="14.4" fill="#000000" fill-rule="evenodd" fill-opacity="1" stroke="none"/>
<circle clip-path="url(#clip322)" cx="832.493" cy="335.64" r="14.4" fill="#000000" fill-rule="evenodd" fill-opacity="1" stroke="none"/>
<circle clip-path="url(#clip322)" cx="852.497" cy="330.373" r="14.4" fill="#000000" fill-rule="evenodd" fill-opacity="1" stroke="none"/>
<circle clip-path="url(#clip322)" cx="872.5" cy="325.105" r="14.4" fill="#000000" fill-rule="evenodd" fill-opacity="1" stroke="none"/>
<circle clip-path="url(#clip322)" cx="892.503" cy="309.303" r="14.4" fill="#000000" fill-rule="evenodd" fill-opacity="1" stroke="none"/>
<circle clip-path="url(#clip322)" cx="912.507" cy="309.303" r="14.4" fill="#000000" fill-rule="evenodd" fill-opacity="1" stroke="none"/>
<circle clip-path="url(#clip322)" cx="932.51" cy="288.233" r="14.4" fill="#000000" fill-rule="evenodd" fill-opacity="1" stroke="none"/>
<circle clip-path="url(#clip322)" cx="952.514" cy="272.431" r="14.4" fill="#000000" fill-rule="evenodd" fill-opacity="1" stroke="none"/>
<circle clip-path="url(#clip322)" cx="972.517" cy="256.628" r="14.4" fill="#000000" fill-rule="evenodd" fill-opacity="1" stroke="none"/>
<circle clip-path="url(#clip322)" cx="992.521" cy="246.093" r="14.4" fill="#000000" fill-rule="evenodd" fill-opacity="1" stroke="none"/>
<circle clip-path="url(#clip322)" cx="1012.52" cy="246.093" r="14.4" fill="#000000" fill-rule="evenodd" fill-opacity="1" stroke="none"/>
<circle clip-path="url(#clip322)" cx="1032.53" cy="246.093" r="14.4" fill="#000000" fill-rule="evenodd" fill-opacity="1" stroke="none"/>
<circle clip-path="url(#clip322)" cx="1052.53" cy="240.826" r="14.4" fill="#000000" fill-rule="evenodd" fill-opacity="1" stroke="none"/>
<circle clip-path="url(#clip322)" cx="1072.53" cy="235.558" r="14.4" fill="#000000" fill-rule="evenodd" fill-opacity="1" stroke="none"/>
<circle clip-path="url(#clip322)" cx="1092.54" cy="219.756" r="14.4" fill="#000000" fill-rule="evenodd" fill-opacity="1" stroke="none"/>
<circle clip-path="url(#clip322)" cx="1112.54" cy="219.756" r="14.4" fill="#000000" fill-rule="evenodd" fill-opacity="1" stroke="none"/>
<circle clip-path="url(#clip322)" cx="1132.54" cy="214.488" r="14.4" fill="#000000" fill-rule="evenodd" fill-opacity="1" stroke="none"/>
<circle clip-path="url(#clip322)" cx="1152.55" cy="209.221" r="14.4" fill="#000000" fill-rule="evenodd" fill-opacity="1" stroke="none"/>
<circle clip-path="url(#clip322)" cx="1172.55" cy="188.151" r="14.4" fill="#000000" fill-rule="evenodd" fill-opacity="1" stroke="none"/>
<circle clip-path="url(#clip322)" cx="1192.56" cy="177.616" r="14.4" fill="#000000" fill-rule="evenodd" fill-opacity="1" stroke="none"/>
<circle clip-path="url(#clip322)" cx="1212.56" cy="167.081" r="14.4" fill="#000000" fill-rule="evenodd" fill-opacity="1" stroke="none"/>
<circle clip-path="url(#clip322)" cx="1232.56" cy="161.813" r="14.4" fill="#000000" fill-rule="evenodd" fill-opacity="1" stroke="none"/>
<circle clip-path="url(#clip322)" cx="1252.57" cy="161.813" r="14.4" fill="#000000" fill-rule="evenodd" fill-opacity="1" stroke="none"/>
<circle clip-path="url(#clip322)" cx="1272.57" cy="161.813" r="14.4" fill="#000000" fill-rule="evenodd" fill-opacity="1" stroke="none"/>
<circle clip-path="url(#clip322)" cx="1292.57" cy="161.813" r="14.4" fill="#000000" fill-rule="evenodd" fill-opacity="1" stroke="none"/>
<circle clip-path="url(#clip322)" cx="1312.58" cy="156.546" r="14.4" fill="#000000" fill-rule="evenodd" fill-opacity="1" stroke="none"/>
<circle clip-path="url(#clip322)" cx="1332.58" cy="156.546" r="14.4" fill="#000000" fill-rule="evenodd" fill-opacity="1" stroke="none"/>
<circle clip-path="url(#clip322)" cx="1352.58" cy="151.278" r="14.4" fill="#000000" fill-rule="evenodd" fill-opacity="1" stroke="none"/>
<circle clip-path="url(#clip322)" cx="1372.59" cy="151.278" r="14.4" fill="#000000" fill-rule="evenodd" fill-opacity="1" stroke="none"/>
<circle clip-path="url(#clip322)" cx="1392.59" cy="151.278" r="14.4" fill="#000000" fill-rule="evenodd" fill-opacity="1" stroke="none"/>
<circle clip-path="url(#clip322)" cx="1412.59" cy="151.278" r="14.4" fill="#000000" fill-rule="evenodd" fill-opacity="1" stroke="none"/>
<circle clip-path="url(#clip322)" cx="1432.6" cy="151.278" r="14.4" fill="#000000" fill-rule="evenodd" fill-opacity="1" stroke="none"/>
<circle clip-path="url(#clip322)" cx="1452.6" cy="151.278" r="14.4" fill="#000000" fill-rule="evenodd" fill-opacity="1" stroke="none"/>
<circle clip-path="url(#clip322)" cx="1472.6" cy="151.278" r="14.4" fill="#000000" fill-rule="evenodd" fill-opacity="1" stroke="none"/>
<circle clip-path="url(#clip322)" cx="1492.61" cy="151.278" r="14.4" fill="#000000" fill-rule="evenodd" fill-opacity="1" stroke="none"/>
<circle clip-path="url(#clip322)" cx="1512.61" cy="151.278" r="14.4" fill="#000000" fill-rule="evenodd" fill-opacity="1" stroke="none"/>
<circle clip-path="url(#clip322)" cx="1532.61" cy="151.278" r="14.4" fill="#000000" fill-rule="evenodd" fill-opacity="1" stroke="none"/>
<circle clip-path="url(#clip322)" cx="1552.62" cy="151.278" r="14.4" fill="#000000" fill-rule="evenodd" fill-opacity="1" stroke="none"/>
<circle clip-path="url(#clip322)" cx="1572.62" cy="151.278" r="14.4" fill="#000000" fill-rule="evenodd" fill-opacity="1" stroke="none"/>
<circle clip-path="url(#clip322)" cx="1592.62" cy="151.278" r="14.4" fill="#000000" fill-rule="evenodd" fill-opacity="1" stroke="none"/>
<circle clip-path="url(#clip322)" cx="1612.63" cy="151.278" r="14.4" fill="#000000" fill-rule="evenodd" fill-opacity="1" stroke="none"/>
<circle clip-path="url(#clip322)" cx="1632.63" cy="151.278" r="14.4" fill="#000000" fill-rule="evenodd" fill-opacity="1" stroke="none"/>
<circle clip-path="url(#clip322)" cx="1652.63" cy="151.278" r="14.4" fill="#000000" fill-rule="evenodd" fill-opacity="1" stroke="none"/>
<circle clip-path="url(#clip322)" cx="1672.64" cy="151.278" r="14.4" fill="#000000" fill-rule="evenodd" fill-opacity="1" stroke="none"/>
<circle clip-path="url(#clip322)" cx="1692.64" cy="151.278" r="14.4" fill="#000000" fill-rule="evenodd" fill-opacity="1" stroke="none"/>
<circle clip-path="url(#clip322)" cx="1712.65" cy="151.278" r="14.4" fill="#000000" fill-rule="evenodd" fill-opacity="1" stroke="none"/>
<circle clip-path="url(#clip322)" cx="1732.65" cy="151.278" r="14.4" fill="#000000" fill-rule="evenodd" fill-opacity="1" stroke="none"/>
<circle clip-path="url(#clip322)" cx="1752.65" cy="151.278" r="14.4" fill="#000000" fill-rule="evenodd" fill-opacity="1" stroke="none"/>
<circle clip-path="url(#clip322)" cx="1772.66" cy="151.278" r="14.4" fill="#000000" fill-rule="evenodd" fill-opacity="1" stroke="none"/>
<circle clip-path="url(#clip322)" cx="1792.66" cy="151.278" r="14.4" fill="#000000" fill-rule="evenodd" fill-opacity="1" stroke="none"/>
<circle clip-path="url(#clip322)" cx="1812.66" cy="151.278" r="14.4" fill="#000000" fill-rule="evenodd" fill-opacity="1" stroke="none"/>
<circle clip-path="url(#clip322)" cx="1832.67" cy="146.011" r="14.4" fill="#000000" fill-rule="evenodd" fill-opacity="1" stroke="none"/>
<circle clip-path="url(#clip322)" cx="1852.67" cy="146.011" r="14.4" fill="#000000" fill-rule="evenodd" fill-opacity="1" stroke="none"/>
<circle clip-path="url(#clip322)" cx="1872.67" cy="146.011" r="14.4" fill="#000000" fill-rule="evenodd" fill-opacity="1" stroke="none"/>
<circle clip-path="url(#clip322)" cx="1892.68" cy="146.011" r="14.4" fill="#000000" fill-rule="evenodd" fill-opacity="1" stroke="none"/>
<circle clip-path="url(#clip322)" cx="1912.68" cy="146.011" r="14.4" fill="#000000" fill-rule="evenodd" fill-opacity="1" stroke="none"/>
<circle clip-path="url(#clip322)" cx="1932.68" cy="146.011" r="14.4" fill="#000000" fill-rule="evenodd" fill-opacity="1" stroke="none"/>
<circle clip-path="url(#clip322)" cx="1952.69" cy="146.011" r="14.4" fill="#000000" fill-rule="evenodd" fill-opacity="1" stroke="none"/>
<circle clip-path="url(#clip322)" cx="1972.69" cy="146.011" r="14.4" fill="#000000" fill-rule="evenodd" fill-opacity="1" stroke="none"/>
<circle clip-path="url(#clip322)" cx="1992.69" cy="146.011" r="14.4" fill="#000000" fill-rule="evenodd" fill-opacity="1" stroke="none"/>
<circle clip-path="url(#clip322)" cx="2012.7" cy="146.011" r="14.4" fill="#000000" fill-rule="evenodd" fill-opacity="1" stroke="none"/>
<circle clip-path="url(#clip322)" cx="2032.7" cy="146.011" r="14.4" fill="#000000" fill-rule="evenodd" fill-opacity="1" stroke="none"/>
<circle clip-path="url(#clip322)" cx="2052.7" cy="146.011" r="14.4" fill="#000000" fill-rule="evenodd" fill-opacity="1" stroke="none"/>
<circle clip-path="url(#clip322)" cx="2072.71" cy="146.011" r="14.4" fill="#000000" fill-rule="evenodd" fill-opacity="1" stroke="none"/>
<circle clip-path="url(#clip322)" cx="2092.71" cy="146.011" r="14.4" fill="#000000" fill-rule="evenodd" fill-opacity="1" stroke="none"/>
<circle clip-path="url(#clip322)" cx="2112.71" cy="146.011" r="14.4" fill="#000000" fill-rule="evenodd" fill-opacity="1" stroke="none"/>
<circle clip-path="url(#clip322)" cx="2132.72" cy="146.011" r="14.4" fill="#000000" fill-rule="evenodd" fill-opacity="1" stroke="none"/>
<circle clip-path="url(#clip322)" cx="2152.72" cy="146.011" r="14.4" fill="#000000" fill-rule="evenodd" fill-opacity="1" stroke="none"/>
<circle clip-path="url(#clip322)" cx="2172.72" cy="146.011" r="14.4" fill="#000000" fill-rule="evenodd" fill-opacity="1" stroke="none"/>
<circle clip-path="url(#clip322)" cx="2192.73" cy="146.011" r="14.4" fill="#000000" fill-rule="evenodd" fill-opacity="1" stroke="none"/>
<circle clip-path="url(#clip322)" cx="2212.73" cy="146.011" r="14.4" fill="#000000" fill-rule="evenodd" fill-opacity="1" stroke="none"/>
<circle clip-path="url(#clip322)" cx="2232.74" cy="146.011" r="14.4" fill="#000000" fill-rule="evenodd" fill-opacity="1" stroke="none"/>
<circle clip-path="url(#clip322)" cx="2252.74" cy="146.011" r="14.4" fill="#000000" fill-rule="evenodd" fill-opacity="1" stroke="none"/>
<circle clip-path="url(#clip322)" cx="2272.74" cy="146.011" r="14.4" fill="#000000" fill-rule="evenodd" fill-opacity="1" stroke="none"/>
<circle clip-path="url(#clip322)" cx="2292.75" cy="146.011" r="14.4" fill="#000000" fill-rule="evenodd" fill-opacity="1" stroke="none"/>
<path clip-path="url(#clip322)" d="M292.4 646.072 L302.452 640.706 L312.504 635.314 L322.556 629.914 L332.608 624.541 L342.66 619.2 L352.712 613.864 L362.764 608.5 L372.816 603.129 L382.868 597.757 L392.92 592.343 L402.972 586.964 L413.024 581.606 L423.076 576.267 L433.128 570.899 L443.18 565.529 L453.232 560.171 L463.284 554.812 L473.336 549.453 L483.388 544.094 L493.44 538.728 L503.491 533.378 L513.543 528.024 L523.595 522.704 L533.647 517.344 L543.699 512 L553.751 506.677 L563.803 501.395 L573.855 496.071 L583.907 490.704 L593.959 485.365 L604.011 480.04 L614.063 474.705 L624.115 469.42 L634.167 464.045 L644.219 458.723 L654.271 453.37 L664.323 448.072 L674.375 442.752 L684.427 437.45 L694.479 432.181 L704.531 426.885 L714.583 421.596 L724.635 416.272 L734.687 410.982 L744.739 405.714 L754.791 400.419 L764.843 395.096 L774.895 389.829 L784.947 384.532 L794.999 379.239 L805.051 373.958 L815.103 368.691 L825.155 363.413 L835.207 358.154 L845.259 352.858 L855.311 347.622 L865.363 342.414 L875.415 337.138 L885.467 331.907 L895.519 326.676 L905.571 321.445 L915.623 316.234 L925.675 310.985 L935.727 305.718 L945.779 300.451 L955.831 295.193 L965.883 289.978 L975.935 284.765 L985.987 279.529 L996.039 274.301 L1006.09 269.057 L1016.14 263.832 L1026.19 258.627 L1036.25 253.396 L1046.3 248.191 L1056.35 242.978 L1066.4 237.77 L1076.45 232.56 L1086.51 227.351 L1096.56 222.14 L1106.61 216.933 L1116.66 211.73 L1126.71 206.516 L1136.77 201.302 L1146.82 196.098 L1156.87 190.889 L1166.92 185.705 L1176.97 180.484 L1187.03 175.268 L1197.08 170.063 L1207.13 164.851 L1217.18 161.539 L1227.23 161.234 L1237.29 161.066 L1247.34 160.852 L1257.39 160.648 L1267.44 160.473 L1277.49 160.301 L1287.55 160.127 L1297.6 159.931 L1307.65 159.743 L1317.7 159.543 L1327.75 159.343 L1337.81 159.132 L1347.86 158.932 L1357.91 158.745 L1367.96 158.553 L1378.01 158.367 L1388.07 158.195 L1398.12 157.997 L1408.17 157.806 L1418.22 157.619 L1428.27 157.433 L1438.33 157.246 L1448.38 157.06 L1458.43 156.873 L1468.48 156.686 L1478.53 156.5 L1488.59 156.321 L1498.64 156.147 L1508.69 155.973 L1518.74 155.779 L1528.79 155.617 L1538.85 155.43 L1548.9 155.247 L1558.95 155.097 L1569 154.933 L1579.05 154.792 L1589.11 154.592 L1599.16 154.444 L1609.21 154.287 L1619.26 154.15 L1629.31 153.972 L1639.37 153.796 L1649.42 153.644 L1659.47 153.5 L1669.52 153.366 L1679.57 153.215 L1689.63 153.054 L1699.68 152.917 L1709.73 152.795 L1719.78 152.661 L1729.83 152.543 L1739.89 152.424 L1749.94 152.291 L1759.99 152.175 L1770.04 152.049 L1780.09 151.938 L1790.15 151.825 L1800.2 151.713 L1810.25 151.586 L1820.3 151.467 L1830.35 151.354 L1840.41 151.239 L1850.46 151.141 L1860.51 151.04 L1870.56 150.952 L1880.61 150.866 L1890.67 150.765 L1900.72 150.672 L1910.77 150.599 L1920.82 150.462 L1930.87 150.377 L1940.93 150.295 L1950.98 150.177 L1961.03 150.096 L1971.08 149.985 L1981.13 149.911 L1991.19 149.874 L2001.24 149.795 L2011.29 149.674 L2021.34 149.615 L2031.39 149.542 L2041.45 149.461 L2051.5 149.371 L2061.55 149.248 L2071.6 149.145 L2081.65 149.075 L2091.71 148.989 L2101.76 148.906 L2111.81 148.803 L2121.86 148.748 L2131.91 148.66 L2141.97 148.562 L2152.02 148.47 L2162.07 148.416 L2172.12 148.334 L2182.17 148.235 L2192.23 148.161 L2202.28 148.087 L2212.33 148.013 L2222.38 147.969 L2232.43 147.912 L2242.49 147.869 L2252.54 147.789 L2262.59 147.74 L2272.64 147.673 L2282.69 147.585 L2292.75 147.519 L2292.75 138.693 L2282.69 138.887 L2272.64 139.093 L2262.59 139.306 L2252.54 139.497 L2242.49 139.69 L2232.43 139.872 L2222.38 140.065 L2212.33 140.247 L2202.28 140.426 L2192.23 140.6 L2182.17 140.782 L2172.12 140.961 L2162.07 141.157 L2152.02 141.357 L2141.97 141.543 L2131.91 141.746 L2121.86 141.928 L2111.81 142.103 L2101.76 142.274 L2091.71 142.446 L2081.65 142.624 L2071.6 142.813 L2061.55 143.018 L2051.5 143.196 L2041.45 143.361 L2031.39 143.497 L2021.34 143.637 L2011.29 143.8 L2001.24 143.993 L1991.19 144.172 L1981.13 144.349 L1971.08 144.504 L1961.03 144.662 L1950.98 144.811 L1940.93 144.969 L1930.87 145.147 L1920.82 145.34 L1910.77 145.51 L1900.72 145.683 L1890.67 145.851 L1880.61 146.034 L1870.56 146.211 L1860.51 146.387 L1850.46 146.497 L1840.41 146.657 L1830.35 146.82 L1820.3 146.991 L1810.25 147.127 L1800.2 147.246 L1790.15 147.359 L1780.09 147.473 L1770.04 147.599 L1759.99 147.727 L1749.94 147.836 L1739.89 147.95 L1729.83 148.09 L1719.78 148.206 L1709.73 148.324 L1699.68 148.441 L1689.63 148.571 L1679.57 148.655 L1669.52 148.764 L1659.47 148.858 L1649.42 148.947 L1639.37 149.046 L1629.31 149.157 L1619.26 149.243 L1609.21 149.329 L1599.16 149.429 L1589.11 149.524 L1579.05 149.631 L1569 149.715 L1558.95 149.799 L1548.9 149.885 L1538.85 149.967 L1528.79 150.052 L1518.74 150.146 L1508.69 150.225 L1498.64 150.321 L1488.59 150.395 L1478.53 150.479 L1468.48 150.535 L1458.43 150.589 L1448.38 150.643 L1438.33 150.711 L1428.27 150.797 L1418.22 150.856 L1408.17 150.919 L1398.12 150.984 L1388.07 151.054 L1378.01 151.124 L1367.96 151.175 L1357.91 151.227 L1347.86 151.29 L1337.81 151.361 L1327.75 151.458 L1317.7 151.541 L1307.65 151.599 L1297.6 151.68 L1287.55 151.733 L1277.49 151.786 L1267.44 151.832 L1257.39 151.88 L1247.34 151.936 L1237.29 151.992 L1227.23 152.388 L1217.18 153.681 L1207.13 156.01 L1197.08 159.913 L1187.03 165.063 L1176.97 170.474 L1166.92 175.832 L1156.87 181.19 L1146.82 186.547 L1136.77 191.95 L1126.71 197.303 L1116.66 202.653 L1106.61 208.063 L1096.56 213.446 L1086.51 218.843 L1076.45 224.22 L1066.4 229.588 L1056.35 234.96 L1046.3 240.32 L1036.25 245.657 L1026.19 251.003 L1016.14 256.36 L1006.09 261.723 L996.039 267.101 L985.987 272.475 L975.935 277.857 L965.883 283.19 L955.831 288.551 L945.779 293.94 L935.727 299.29 L925.675 304.63 L915.623 309.987 L905.571 315.336 L895.519 320.683 L885.467 326.014 L875.415 331.355 L865.363 336.688 L855.311 341.973 L845.259 347.296 L835.207 352.624 L825.155 357.97 L815.103 363.282 L805.051 368.591 L794.999 373.895 L784.947 379.185 L774.895 384.53 L764.843 389.851 L754.791 395.184 L744.739 400.49 L734.687 405.804 L724.635 411.073 L714.583 416.379 L704.531 421.642 L694.479 426.91 L684.427 432.196 L674.375 437.46 L664.323 442.703 L654.271 447.968 L644.219 453.215 L634.167 458.456 L624.115 463.688 L614.063 468.944 L604.011 474.222 L593.959 479.455 L583.907 484.689 L573.855 489.919 L563.803 495.157 L553.751 500.387 L543.699 505.593 L533.647 510.832 L523.595 516.037 L513.543 521.261 L503.491 526.502 L493.44 531.731 L483.388 536.945 L473.336 542.176 L463.284 547.403 L453.232 552.614 L443.18 557.838 L433.128 563.026 L423.076 568.244 L413.024 573.466 L402.972 578.695 L392.92 583.931 L382.868 589.173 L372.816 594.434 L362.764 599.667 L352.712 604.873 L342.66 610.109 L332.608 615.322 L322.556 620.543 L312.504 625.738 L302.452 630.934 L292.4 636.119  Z" fill="#c271d2" fill-rule="evenodd" fill-opacity="0.3"/>
<polyline clip-path="url(#clip322)" style="stroke:#c271d2; stroke-linecap:round; stroke-linejoin:round; stroke-width:8; stroke-opacity:1; fill:none" points="292.4,641.209 302.452,635.918 312.504,630.626 322.556,625.334 332.608,620.042 342.66,614.75 352.712,609.459 362.764,604.167 372.816,598.875 382.868,593.583 392.92,588.292 402.972,583 413.024,577.708 423.076,572.416 433.128,567.124 443.18,561.833 453.232,556.541 463.284,551.249 473.336,545.957 483.388,540.666 493.44,535.374 503.491,530.082 513.543,524.79 523.595,519.498 533.647,514.207 543.699,508.915 553.751,503.623 563.803,498.331 573.855,493.04 583.907,487.748 593.959,482.456 604.011,477.164 614.063,471.872 624.115,466.581 634.167,461.289 644.219,455.997 654.271,450.705 664.323,445.414 674.375,440.122 684.427,434.83 694.479,429.538 704.531,424.246 714.583,418.955 724.635,413.663 734.687,408.371 744.739,403.079 754.791,397.788 764.843,392.496 774.895,387.204 784.947,381.912 794.999,376.621 805.051,371.329 815.103,366.037 825.155,360.745 835.207,355.453 845.259,350.162 855.311,344.87 865.363,339.578 875.415,334.286 885.467,328.995 895.519,323.703 905.571,318.411 915.623,313.119 925.675,307.827 935.727,302.536 945.779,297.244 955.831,291.952 965.883,286.66 975.935,281.369 985.987,276.077 996.039,270.785 1006.09,265.493 1016.14,260.201 1026.19,254.91 1036.25,249.618 1046.3,244.326 1056.35,239.034 1066.4,233.743 1076.45,228.451 1086.51,223.159 1096.56,217.867 1106.61,212.575 1116.66,207.284 1126.71,201.992 1136.77,196.7 1146.82,191.408 1156.87,186.117 1166.92,180.825 1176.97,175.533 1187.03,170.241 1197.08,164.973 1207.13,160.199 1217.18,157.462 1227.23,156.766 1237.29,156.616 1247.34,156.488 1257.39,156.361 1267.44,156.234 1277.49,156.106 1287.55,155.979 1297.6,155.851 1307.65,155.724 1317.7,155.597 1327.75,155.469 1337.81,155.342 1347.86,155.214 1357.91,155.087 1367.96,154.96 1378.01,154.832 1388.07,154.705 1398.12,154.578 1408.17,154.45 1418.22,154.323 1428.27,154.195 1438.33,154.068 1448.38,153.941 1458.43,153.813 1468.48,153.686 1478.53,153.558 1488.59,153.431 1498.64,153.304 1508.69,153.176 1518.74,153.049 1528.79,152.922 1538.85,152.794 1548.9,152.667 1558.95,152.539 1569,152.412 1579.05,152.285 1589.11,152.157 1599.16,152.03 1609.21,151.902 1619.26,151.775 1629.31,151.648 1639.37,151.52 1649.42,151.393 1659.47,151.265 1669.52,151.138 1679.57,151.011 1689.63,150.883 1699.68,150.756 1709.73,150.629 1719.78,150.501 1729.83,150.374 1739.89,150.246 1749.94,150.119 1759.99,149.992 1770.04,149.864 1780.09,149.737 1790.15,149.609 1800.2,149.482 1810.25,149.355 1820.3,149.227 1830.35,149.1 1840.41,148.973 1850.46,148.845 1860.51,148.718 1870.56,148.59 1880.61,148.463 1890.67,148.336 1900.72,148.208 1910.77,148.081 1920.82,147.953 1930.87,147.826 1940.93,147.699 1950.98,147.571 1961.03,147.444 1971.08,147.316 1981.13,147.189 1991.19,147.062 2001.24,146.934 2011.29,146.807 2021.34,146.68 2031.39,146.552 2041.45,146.425 2051.5,146.297 2061.55,146.17 2071.6,146.043 2081.65,145.915 2091.71,145.788 2101.76,145.66 2111.81,145.533 2121.86,145.406 2131.91,145.278 2141.97,145.151 2152.02,145.024 2162.07,144.896 2172.12,144.769 2182.17,144.641 2192.23,144.514 2202.28,144.387 2212.33,144.259 2222.38,144.132 2232.43,144.004 2242.49,143.877 2252.54,143.75 2262.59,143.622 2272.64,143.495 2282.69,143.368 2292.75,143.24 "/>
<polyline clip-path="url(#clip322)" style="stroke:#000000; stroke-linecap:round; stroke-linejoin:round; stroke-width:8; stroke-opacity:1; fill:none" points="1197.86,156.949 1226.78,156.949 "/>
<line clip-path="url(#clip322)" x1="1197.86" y1="176.949" x2="1197.86" y2="136.949" style="stroke:#c271d2; stroke-width:8; stroke-opacity:1"/>
<line clip-path="url(#clip322)" x1="1226.78" y1="176.949" x2="1226.78" y2="136.949" style="stroke:#c271d2; stroke-width:8; stroke-opacity:1"/>
<circle clip-path="url(#clip322)" cx="1212.32" cy="156.949" r="18" fill="#c271d2" fill-rule="evenodd" fill-opacity="1" stroke="#000000" stroke-opacity="1" stroke-width="6.4"/>
<path clip-path="url(#clip320)" d="M232.389 1423.18 L2352.76 1423.18 L2352.76 885.358 L232.389 885.358  Z" fill="#ffffff" fill-rule="evenodd" fill-opacity="1"/>
<defs>
  <clipPath id="clip323">
    <rect x="232" y="885" width="2121" height="539"/>
  </clipPath>
</defs>
<polyline clip-path="url(#clip323)" style="stroke:#000000; stroke-linecap:round; stroke-linejoin:round; stroke-width:2; stroke-opacity:0.1; fill:none" points="292.4,1423.18 292.4,885.358 "/>
<polyline clip-path="url(#clip323)" style="stroke:#000000; stroke-linecap:round; stroke-linejoin:round; stroke-width:2; stroke-opacity:0.1; fill:none" points="792.486,1423.18 792.486,885.358 "/>
<polyline clip-path="url(#clip323)" style="stroke:#000000; stroke-linecap:round; stroke-linejoin:round; stroke-width:2; stroke-opacity:0.1; fill:none" points="1292.57,1423.18 1292.57,885.358 "/>
<polyline clip-path="url(#clip323)" style="stroke:#000000; stroke-linecap:round; stroke-linejoin:round; stroke-width:2; stroke-opacity:0.1; fill:none" points="1792.66,1423.18 1792.66,885.358 "/>
<polyline clip-path="url(#clip323)" style="stroke:#000000; stroke-linecap:round; stroke-linejoin:round; stroke-width:2; stroke-opacity:0.1; fill:none" points="2292.75,1423.18 2292.75,885.358 "/>
<polyline clip-path="url(#clip323)" style="stroke:#000000; stroke-linecap:round; stroke-linejoin:round; stroke-width:2; stroke-opacity:0.1; fill:none" points="232.389,1407.49 2352.76,1407.49 "/>
<polyline clip-path="url(#clip323)" style="stroke:#000000; stroke-linecap:round; stroke-linejoin:round; stroke-width:2; stroke-opacity:0.1; fill:none" points="232.389,1282.63 2352.76,1282.63 "/>
<polyline clip-path="url(#clip323)" style="stroke:#000000; stroke-linecap:round; stroke-linejoin:round; stroke-width:2; stroke-opacity:0.1; fill:none" points="232.389,1157.77 2352.76,1157.77 "/>
<polyline clip-path="url(#clip323)" style="stroke:#000000; stroke-linecap:round; stroke-linejoin:round; stroke-width:2; stroke-opacity:0.1; fill:none" points="232.389,1032.9 2352.76,1032.9 "/>
<polyline clip-path="url(#clip323)" style="stroke:#000000; stroke-linecap:round; stroke-linejoin:round; stroke-width:2; stroke-opacity:0.1; fill:none" points="232.389,908.044 2352.76,908.044 "/>
<polyline clip-path="url(#clip320)" style="stroke:#000000; stroke-linecap:round; stroke-linejoin:round; stroke-width:4; stroke-opacity:1; fill:none" points="232.389,1423.18 2352.76,1423.18 "/>
<polyline clip-path="url(#clip320)" style="stroke:#000000; stroke-linecap:round; stroke-linejoin:round; stroke-width:4; stroke-opacity:1; fill:none" points="292.4,1423.18 292.4,1404.28 "/>
<polyline clip-path="url(#clip320)" style="stroke:#000000; stroke-linecap:round; stroke-linejoin:round; stroke-width:4; stroke-opacity:1; fill:none" points="792.486,1423.18 792.486,1404.28 "/>
<polyline clip-path="url(#clip320)" style="stroke:#000000; stroke-linecap:round; stroke-linejoin:round; stroke-width:4; stroke-opacity:1; fill:none" points="1292.57,1423.18 1292.57,1404.28 "/>
<polyline clip-path="url(#clip320)" style="stroke:#000000; stroke-linecap:round; stroke-linejoin:round; stroke-width:4; stroke-opacity:1; fill:none" points="1792.66,1423.18 1792.66,1404.28 "/>
<polyline clip-path="url(#clip320)" style="stroke:#000000; stroke-linecap:round; stroke-linejoin:round; stroke-width:4; stroke-opacity:1; fill:none" points="2292.75,1423.18 2292.75,1404.28 "/>
<path clip-path="url(#clip320)" d="M292.4 1454.1 Q288.789 1454.1 286.96 1457.66 Q285.154 1461.2 285.154 1468.33 Q285.154 1475.44 286.96 1479.01 Q288.789 1482.55 292.4 1482.55 Q296.034 1482.55 297.84 1479.01 Q299.668 1475.44 299.668 1468.33 Q299.668 1461.2 297.84 1457.66 Q296.034 1454.1 292.4 1454.1 M292.4 1450.39 Q298.21 1450.39 301.265 1455 Q304.344 1459.58 304.344 1468.33 Q304.344 1477.06 301.265 1481.67 Q298.21 1486.25 292.4 1486.25 Q286.59 1486.25 283.511 1481.67 Q280.455 1477.06 280.455 1468.33 Q280.455 1459.58 283.511 1455 Q286.59 1450.39 292.4 1450.39 Z" fill="#000000" fill-rule="nonzero" fill-opacity="1" /><path clip-path="url(#clip320)" d="M771.757 1481.64 L788.076 1481.64 L788.076 1485.58 L766.132 1485.58 L766.132 1481.64 Q768.794 1478.89 773.377 1474.26 Q777.984 1469.61 779.164 1468.27 Q781.41 1465.74 782.289 1464.01 Q783.192 1462.25 783.192 1460.56 Q783.192 1457.8 781.248 1456.07 Q779.327 1454.33 776.225 1454.33 Q774.026 1454.33 771.572 1455.09 Q769.141 1455.86 766.364 1457.41 L766.364 1452.69 Q769.188 1451.55 771.641 1450.97 Q774.095 1450.39 776.132 1450.39 Q781.502 1450.39 784.697 1453.08 Q787.891 1455.77 787.891 1460.26 Q787.891 1462.39 787.081 1464.31 Q786.294 1466.2 784.188 1468.8 Q783.609 1469.47 780.507 1472.69 Q777.405 1475.88 771.757 1481.64 Z" fill="#000000" fill-rule="nonzero" fill-opacity="1" /><path clip-path="url(#clip320)" d="M797.938 1451.02 L816.294 1451.02 L816.294 1454.96 L802.22 1454.96 L802.22 1463.43 Q803.238 1463.08 804.257 1462.92 Q805.275 1462.73 806.294 1462.73 Q812.081 1462.73 815.461 1465.9 Q818.84 1469.08 818.84 1474.49 Q818.84 1480.07 815.368 1483.17 Q811.896 1486.25 805.576 1486.25 Q803.4 1486.25 801.132 1485.88 Q798.887 1485.51 796.479 1484.77 L796.479 1480.07 Q798.563 1481.2 800.785 1481.76 Q803.007 1482.32 805.484 1482.32 Q809.488 1482.32 811.826 1480.21 Q814.164 1478.1 814.164 1474.49 Q814.164 1470.88 811.826 1468.77 Q809.488 1466.67 805.484 1466.67 Q803.609 1466.67 801.734 1467.08 Q799.882 1467.5 797.938 1468.38 L797.938 1451.02 Z" fill="#000000" fill-rule="nonzero" fill-opacity="1" /><path clip-path="url(#clip320)" d="M1267.27 1451.02 L1285.63 1451.02 L1285.63 1454.96 L1271.55 1454.96 L1271.55 1463.43 Q1272.57 1463.08 1273.59 1462.92 Q1274.61 1462.73 1275.63 1462.73 Q1281.42 1462.73 1284.79 1465.9 Q1288.17 1469.08 1288.17 1474.49 Q1288.17 1480.07 1284.7 1483.17 Q1281.23 1486.25 1274.91 1486.25 Q1272.73 1486.25 1270.47 1485.88 Q1268.22 1485.51 1265.81 1484.77 L1265.81 1480.07 Q1267.9 1481.2 1270.12 1481.76 Q1272.34 1482.32 1274.82 1482.32 Q1278.82 1482.32 1281.16 1480.21 Q1283.5 1478.1 1283.5 1474.49 Q1283.5 1470.88 1281.16 1468.77 Q1278.82 1466.67 1274.82 1466.67 Q1272.94 1466.67 1271.07 1467.08 Q1269.22 1467.5 1267.27 1468.38 L1267.27 1451.02 Z" fill="#000000" fill-rule="nonzero" fill-opacity="1" /><path clip-path="url(#clip320)" d="M1307.39 1454.1 Q1303.78 1454.1 1301.95 1457.66 Q1300.14 1461.2 1300.14 1468.33 Q1300.14 1475.44 1301.95 1479.01 Q1303.78 1482.55 1307.39 1482.55 Q1311.02 1482.55 1312.83 1479.01 Q1314.66 1475.44 1314.66 1468.33 Q1314.66 1461.2 1312.83 1457.66 Q1311.02 1454.1 1307.39 1454.1 M1307.39 1450.39 Q1313.2 1450.39 1316.25 1455 Q1319.33 1459.58 1319.33 1468.33 Q1319.33 1477.06 1316.25 1481.67 Q1313.2 1486.25 1307.39 1486.25 Q1301.58 1486.25 1298.5 1481.67 Q1295.44 1477.06 1295.44 1468.33 Q1295.44 1459.58 1298.5 1455 Q1301.58 1450.39 1307.39 1450.39 Z" fill="#000000" fill-rule="nonzero" fill-opacity="1" /><path clip-path="url(#clip320)" d="M1766.51 1451.02 L1788.74 1451.02 L1788.74 1453.01 L1776.19 1485.58 L1771.31 1485.58 L1783.11 1454.96 L1766.51 1454.96 L1766.51 1451.02 Z" fill="#000000" fill-rule="nonzero" fill-opacity="1" /><path clip-path="url(#clip320)" d="M1797.9 1451.02 L1816.26 1451.02 L1816.26 1454.96 L1802.18 1454.96 L1802.18 1463.43 Q1803.2 1463.08 1804.22 1462.92 Q1805.24 1462.73 1806.26 1462.73 Q1812.05 1462.73 1815.43 1465.9 Q1818.8 1469.08 1818.8 1474.49 Q1818.8 1480.07 1815.33 1483.17 Q1811.86 1486.25 1805.54 1486.25 Q1803.37 1486.25 1801.1 1485.88 Q1798.85 1485.51 1796.44 1484.77 L1796.44 1480.07 Q1798.53 1481.2 1800.75 1481.76 Q1802.97 1482.32 1805.45 1482.32 Q1809.45 1482.32 1811.79 1480.21 Q1814.13 1478.1 1814.13 1474.49 Q1814.13 1470.88 1811.79 1468.77 Q1809.45 1466.67 1805.45 1466.67 Q1803.57 1466.67 1801.7 1467.08 Q1799.85 1467.5 1797.9 1468.38 L1797.9 1451.02 Z" fill="#000000" fill-rule="nonzero" fill-opacity="1" /><path clip-path="url(#clip320)" d="M2252.35 1481.64 L2259.99 1481.64 L2259.99 1455.28 L2251.68 1456.95 L2251.68 1452.69 L2259.94 1451.02 L2264.62 1451.02 L2264.62 1481.64 L2272.26 1481.64 L2272.26 1485.58 L2252.35 1485.58 L2252.35 1481.64 Z" fill="#000000" fill-rule="nonzero" fill-opacity="1" /><path clip-path="url(#clip320)" d="M2291.7 1454.1 Q2288.09 1454.1 2286.26 1457.66 Q2284.46 1461.2 2284.46 1468.33 Q2284.46 1475.44 2286.26 1479.01 Q2288.09 1482.55 2291.7 1482.55 Q2295.34 1482.55 2297.14 1479.01 Q2298.97 1475.44 2298.97 1468.33 Q2298.97 1461.2 2297.14 1457.66 Q2295.34 1454.1 2291.7 1454.1 M2291.7 1450.39 Q2297.51 1450.39 2300.57 1455 Q2303.65 1459.58 2303.65 1468.33 Q2303.65 1477.06 2300.57 1481.67 Q2297.51 1486.25 2291.7 1486.25 Q2285.89 1486.25 2282.82 1481.67 Q2279.76 1477.06 2279.76 1468.33 Q2279.76 1459.58 2282.82 1455 Q2285.89 1450.39 2291.7 1450.39 Z" fill="#000000" fill-rule="nonzero" fill-opacity="1" /><path clip-path="url(#clip320)" d="M2321.87 1454.1 Q2318.25 1454.1 2316.43 1457.66 Q2314.62 1461.2 2314.62 1468.33 Q2314.62 1475.44 2316.43 1479.01 Q2318.25 1482.55 2321.87 1482.55 Q2325.5 1482.55 2327.31 1479.01 Q2329.13 1475.44 2329.13 1468.33 Q2329.13 1461.2 2327.31 1457.66 Q2325.5 1454.1 2321.87 1454.1 M2321.87 1450.39 Q2327.68 1450.39 2330.73 1455 Q2333.81 1459.58 2333.81 1468.33 Q2333.81 1477.06 2330.73 1481.67 Q2327.68 1486.25 2321.87 1486.25 Q2316.06 1486.25 2312.98 1481.67 Q2309.92 1477.06 2309.92 1468.33 Q2309.92 1459.58 2312.98 1455 Q2316.06 1450.39 2321.87 1450.39 Z" fill="#000000" fill-rule="nonzero" fill-opacity="1" /><path clip-path="url(#clip320)" d="M1309.19 1532.4 L1296.3 1549.74 L1309.86 1568.04 L1302.95 1568.04 L1292.57 1554.04 L1282.2 1568.04 L1275.29 1568.04 L1289.14 1549.39 L1276.47 1532.4 L1283.37 1532.4 L1292.83 1545.1 L1302.28 1532.4 L1309.19 1532.4 Z" fill="#000000" fill-rule="nonzero" fill-opacity="1" /><polyline clip-path="url(#clip320)" style="stroke:#000000; stroke-linecap:round; stroke-linejoin:round; stroke-width:4; stroke-opacity:1; fill:none" points="232.389,1423.18 232.389,885.358 "/>
<polyline clip-path="url(#clip320)" style="stroke:#000000; stroke-linecap:round; stroke-linejoin:round; stroke-width:4; stroke-opacity:1; fill:none" points="232.389,1407.49 251.287,1407.49 "/>
<polyline clip-path="url(#clip320)" style="stroke:#000000; stroke-linecap:round; stroke-linejoin:round; stroke-width:4; stroke-opacity:1; fill:none" points="232.389,1282.63 251.287,1282.63 "/>
<polyline clip-path="url(#clip320)" style="stroke:#000000; stroke-linecap:round; stroke-linejoin:round; stroke-width:4; stroke-opacity:1; fill:none" points="232.389,1157.77 251.287,1157.77 "/>
<polyline clip-path="url(#clip320)" style="stroke:#000000; stroke-linecap:round; stroke-linejoin:round; stroke-width:4; stroke-opacity:1; fill:none" points="232.389,1032.9 251.287,1032.9 "/>
<polyline clip-path="url(#clip320)" style="stroke:#000000; stroke-linecap:round; stroke-linejoin:round; stroke-width:4; stroke-opacity:1; fill:none" points="232.389,908.044 251.287,908.044 "/>
<path clip-path="url(#clip320)" d="M184.445 1393.29 Q180.834 1393.29 179.005 1396.85 Q177.2 1400.39 177.2 1407.52 Q177.2 1414.63 179.005 1418.19 Q180.834 1421.73 184.445 1421.73 Q188.079 1421.73 189.885 1418.19 Q191.713 1414.63 191.713 1407.52 Q191.713 1400.39 189.885 1396.85 Q188.079 1393.29 184.445 1393.29 M184.445 1389.58 Q190.255 1389.58 193.311 1394.19 Q196.389 1398.77 196.389 1407.52 Q196.389 1416.25 193.311 1420.86 Q190.255 1425.44 184.445 1425.44 Q178.635 1425.44 175.556 1420.86 Q172.501 1416.25 172.501 1407.52 Q172.501 1398.77 175.556 1394.19 Q178.635 1389.58 184.445 1389.58 Z" fill="#000000" fill-rule="nonzero" fill-opacity="1" /><path clip-path="url(#clip320)" d="M149.306 1295.97 L165.626 1295.97 L165.626 1299.91 L143.681 1299.91 L143.681 1295.97 Q146.343 1293.22 150.927 1288.59 Q155.533 1283.93 156.714 1282.59 Q158.959 1280.07 159.839 1278.33 Q160.741 1276.57 160.741 1274.88 Q160.741 1272.13 158.797 1270.39 Q156.876 1268.66 153.774 1268.66 Q151.575 1268.66 149.121 1269.42 Q146.691 1270.18 143.913 1271.74 L143.913 1267.01 Q146.737 1265.88 149.191 1265.3 Q151.644 1264.72 153.681 1264.72 Q159.052 1264.72 162.246 1267.41 Q165.44 1270.09 165.44 1274.58 Q165.44 1276.71 164.63 1278.63 Q163.843 1280.53 161.737 1283.12 Q161.158 1283.8 158.056 1287.01 Q154.954 1290.21 149.306 1295.97 Z" fill="#000000" fill-rule="nonzero" fill-opacity="1" /><path clip-path="url(#clip320)" d="M175.487 1265.35 L193.843 1265.35 L193.843 1269.28 L179.769 1269.28 L179.769 1277.75 Q180.788 1277.41 181.806 1277.24 Q182.825 1277.06 183.843 1277.06 Q189.63 1277.06 193.01 1280.23 Q196.389 1283.4 196.389 1288.82 Q196.389 1294.4 192.917 1297.5 Q189.445 1300.58 183.126 1300.58 Q180.95 1300.58 178.681 1300.21 Q176.436 1299.84 174.028 1299.1 L174.028 1294.4 Q176.112 1295.53 178.334 1296.09 Q180.556 1296.64 183.033 1296.64 Q187.038 1296.64 189.375 1294.54 Q191.713 1292.43 191.713 1288.82 Q191.713 1285.21 189.375 1283.1 Q187.038 1280.99 183.033 1280.99 Q181.158 1280.99 179.283 1281.41 Q177.431 1281.83 175.487 1282.71 L175.487 1265.35 Z" fill="#000000" fill-rule="nonzero" fill-opacity="1" /><path clip-path="url(#clip320)" d="M144.329 1140.49 L162.686 1140.49 L162.686 1144.42 L148.612 1144.42 L148.612 1152.89 Q149.63 1152.55 150.649 1152.38 Q151.667 1152.2 152.686 1152.2 Q158.473 1152.2 161.852 1155.37 Q165.232 1158.54 165.232 1163.96 Q165.232 1169.54 161.76 1172.64 Q158.288 1175.72 151.968 1175.72 Q149.792 1175.72 147.524 1175.35 Q145.279 1174.98 142.871 1174.24 L142.871 1169.54 Q144.954 1170.67 147.177 1171.23 Q149.399 1171.78 151.876 1171.78 Q155.88 1171.78 158.218 1169.68 Q160.556 1167.57 160.556 1163.96 Q160.556 1160.35 158.218 1158.24 Q155.88 1156.13 151.876 1156.13 Q150.001 1156.13 148.126 1156.55 Q146.274 1156.97 144.329 1157.85 L144.329 1140.49 Z" fill="#000000" fill-rule="nonzero" fill-opacity="1" /><path clip-path="url(#clip320)" d="M184.445 1143.56 Q180.834 1143.56 179.005 1147.13 Q177.2 1150.67 177.2 1157.8 Q177.2 1164.91 179.005 1168.47 Q180.834 1172.01 184.445 1172.01 Q188.079 1172.01 189.885 1168.47 Q191.713 1164.91 191.713 1157.8 Q191.713 1150.67 189.885 1147.13 Q188.079 1143.56 184.445 1143.56 M184.445 1139.86 Q190.255 1139.86 193.311 1144.47 Q196.389 1149.05 196.389 1157.8 Q196.389 1166.53 193.311 1171.13 Q190.255 1175.72 184.445 1175.72 Q178.635 1175.72 175.556 1171.13 Q172.501 1166.53 172.501 1157.8 Q172.501 1149.05 175.556 1144.47 Q178.635 1139.86 184.445 1139.86 Z" fill="#000000" fill-rule="nonzero" fill-opacity="1" /><path clip-path="url(#clip320)" d="M144.098 1015.62 L166.32 1015.62 L166.32 1017.62 L153.774 1050.18 L148.89 1050.18 L160.695 1019.56 L144.098 1019.56 L144.098 1015.62 Z" fill="#000000" fill-rule="nonzero" fill-opacity="1" /><path clip-path="url(#clip320)" d="M175.487 1015.62 L193.843 1015.62 L193.843 1019.56 L179.769 1019.56 L179.769 1028.03 Q180.788 1027.68 181.806 1027.52 Q182.825 1027.34 183.843 1027.34 Q189.63 1027.34 193.01 1030.51 Q196.389 1033.68 196.389 1039.1 Q196.389 1044.68 192.917 1047.78 Q189.445 1050.86 183.126 1050.86 Q180.95 1050.86 178.681 1050.49 Q176.436 1050.12 174.028 1049.37 L174.028 1044.68 Q176.112 1045.81 178.334 1046.37 Q180.556 1046.92 183.033 1046.92 Q187.038 1046.92 189.375 1044.81 Q191.713 1042.71 191.713 1039.1 Q191.713 1035.49 189.375 1033.38 Q187.038 1031.27 183.033 1031.27 Q181.158 1031.27 179.283 1031.69 Q177.431 1032.11 175.487 1032.99 L175.487 1015.62 Z" fill="#000000" fill-rule="nonzero" fill-opacity="1" /><path clip-path="url(#clip320)" d="M114.931 921.389 L122.57 921.389 L122.57 895.023 L114.26 896.69 L114.26 892.431 L122.524 890.764 L127.2 890.764 L127.2 921.389 L134.839 921.389 L134.839 925.324 L114.931 925.324 L114.931 921.389 Z" fill="#000000" fill-rule="nonzero" fill-opacity="1" /><path clip-path="url(#clip320)" d="M154.283 893.843 Q150.672 893.843 148.843 897.407 Q147.038 900.949 147.038 908.079 Q147.038 915.185 148.843 918.75 Q150.672 922.292 154.283 922.292 Q157.917 922.292 159.723 918.75 Q161.552 915.185 161.552 908.079 Q161.552 900.949 159.723 897.407 Q157.917 893.843 154.283 893.843 M154.283 890.139 Q160.093 890.139 163.149 894.745 Q166.227 899.329 166.227 908.079 Q166.227 916.806 163.149 921.412 Q160.093 925.995 154.283 925.995 Q148.473 925.995 145.394 921.412 Q142.339 916.806 142.339 908.079 Q142.339 899.329 145.394 894.745 Q148.473 890.139 154.283 890.139 Z" fill="#000000" fill-rule="nonzero" fill-opacity="1" /><path clip-path="url(#clip320)" d="M184.445 893.843 Q180.834 893.843 179.005 897.407 Q177.2 900.949 177.2 908.079 Q177.2 915.185 179.005 918.75 Q180.834 922.292 184.445 922.292 Q188.079 922.292 189.885 918.75 Q191.713 915.185 191.713 908.079 Q191.713 900.949 189.885 897.407 Q188.079 893.843 184.445 893.843 M184.445 890.139 Q190.255 890.139 193.311 894.745 Q196.389 899.329 196.389 908.079 Q196.389 916.806 193.311 921.412 Q190.255 925.995 184.445 925.995 Q178.635 925.995 175.556 921.412 Q172.501 916.806 172.501 908.079 Q172.501 899.329 175.556 894.745 Q178.635 890.139 184.445 890.139 Z" fill="#000000" fill-rule="nonzero" fill-opacity="1" /><path clip-path="url(#clip320)" d="M67.3143 1152.58 Q73.68 1155.06 75.6216 1157.42 Q77.5631 1159.78 77.5631 1163.72 L77.5631 1168.4 L72.6615 1168.4 L72.6615 1164.96 Q72.6615 1162.54 71.5157 1161.21 Q70.3699 1159.87 66.1048 1158.25 L63.4312 1157.2 L28.3562 1171.62 L28.3562 1165.41 L56.238 1154.27 L28.3562 1143.13 L28.3562 1136.92 L67.3143 1152.58 Z" fill="#000000" fill-rule="nonzero" fill-opacity="1" /><circle clip-path="url(#clip323)" cx="292.4" cy="1402.49" r="14.4" fill="#000000" fill-rule="evenodd" fill-opacity="1" stroke="none"/>
<circle clip-path="url(#clip323)" cx="312.403" cy="1402.49" r="14.4" fill="#000000" fill-rule="evenodd" fill-opacity="1" stroke="none"/>
<circle clip-path="url(#clip323)" cx="332.407" cy="1402.49" r="14.4" fill="#000000" fill-rule="evenodd" fill-opacity="1" stroke="none"/>
<circle clip-path="url(#clip323)" cx="352.41" cy="1402.49" r="14.4" fill="#000000" fill-rule="evenodd" fill-opacity="1" stroke="none"/>
<circle clip-path="url(#clip323)" cx="372.414" cy="1397.5" r="14.4" fill="#000000" fill-rule="evenodd" fill-opacity="1" stroke="none"/>
<circle clip-path="url(#clip323)" cx="392.417" cy="1397.5" r="14.4" fill="#000000" fill-rule="evenodd" fill-opacity="1" stroke="none"/>
<circle clip-path="url(#clip323)" cx="412.42" cy="1397.5" r="14.4" fill="#000000" fill-rule="evenodd" fill-opacity="1" stroke="none"/>
<circle clip-path="url(#clip323)" cx="432.424" cy="1397.5" r="14.4" fill="#000000" fill-rule="evenodd" fill-opacity="1" stroke="none"/>
<circle clip-path="url(#clip323)" cx="452.427" cy="1397.5" r="14.4" fill="#000000" fill-rule="evenodd" fill-opacity="1" stroke="none"/>
<circle clip-path="url(#clip323)" cx="472.431" cy="1397.5" r="14.4" fill="#000000" fill-rule="evenodd" fill-opacity="1" stroke="none"/>
<circle clip-path="url(#clip323)" cx="492.434" cy="1397.5" r="14.4" fill="#000000" fill-rule="evenodd" fill-opacity="1" stroke="none"/>
<circle clip-path="url(#clip323)" cx="512.438" cy="1397.5" r="14.4" fill="#000000" fill-rule="evenodd" fill-opacity="1" stroke="none"/>
<circle clip-path="url(#clip323)" cx="532.441" cy="1392.5" r="14.4" fill="#000000" fill-rule="evenodd" fill-opacity="1" stroke="none"/>
<circle clip-path="url(#clip323)" cx="552.445" cy="1387.51" r="14.4" fill="#000000" fill-rule="evenodd" fill-opacity="1" stroke="none"/>
<circle clip-path="url(#clip323)" cx="572.448" cy="1387.51" r="14.4" fill="#000000" fill-rule="evenodd" fill-opacity="1" stroke="none"/>
<circle clip-path="url(#clip323)" cx="592.452" cy="1387.51" r="14.4" fill="#000000" fill-rule="evenodd" fill-opacity="1" stroke="none"/>
<circle clip-path="url(#clip323)" cx="612.455" cy="1387.51" r="14.4" fill="#000000" fill-rule="evenodd" fill-opacity="1" stroke="none"/>
<circle clip-path="url(#clip323)" cx="632.459" cy="1387.51" r="14.4" fill="#000000" fill-rule="evenodd" fill-opacity="1" stroke="none"/>
<circle clip-path="url(#clip323)" cx="652.462" cy="1387.51" r="14.4" fill="#000000" fill-rule="evenodd" fill-opacity="1" stroke="none"/>
<circle clip-path="url(#clip323)" cx="672.465" cy="1387.51" r="14.4" fill="#000000" fill-rule="evenodd" fill-opacity="1" stroke="none"/>
<circle clip-path="url(#clip323)" cx="692.469" cy="1387.51" r="14.4" fill="#000000" fill-rule="evenodd" fill-opacity="1" stroke="none"/>
<circle clip-path="url(#clip323)" cx="712.472" cy="1387.51" r="14.4" fill="#000000" fill-rule="evenodd" fill-opacity="1" stroke="none"/>
<circle clip-path="url(#clip323)" cx="732.476" cy="1387.51" r="14.4" fill="#000000" fill-rule="evenodd" fill-opacity="1" stroke="none"/>
<circle clip-path="url(#clip323)" cx="752.479" cy="1387.51" r="14.4" fill="#000000" fill-rule="evenodd" fill-opacity="1" stroke="none"/>
<circle clip-path="url(#clip323)" cx="772.483" cy="1387.51" r="14.4" fill="#000000" fill-rule="evenodd" fill-opacity="1" stroke="none"/>
<circle clip-path="url(#clip323)" cx="792.486" cy="1387.51" r="14.4" fill="#000000" fill-rule="evenodd" fill-opacity="1" stroke="none"/>
<circle clip-path="url(#clip323)" cx="812.49" cy="1387.51" r="14.4" fill="#000000" fill-rule="evenodd" fill-opacity="1" stroke="none"/>
<circle clip-path="url(#clip323)" cx="832.493" cy="1387.51" r="14.4" fill="#000000" fill-rule="evenodd" fill-opacity="1" stroke="none"/>
<circle clip-path="url(#clip323)" cx="852.497" cy="1387.51" r="14.4" fill="#000000" fill-rule="evenodd" fill-opacity="1" stroke="none"/>
<circle clip-path="url(#clip323)" cx="872.5" cy="1382.51" r="14.4" fill="#000000" fill-rule="evenodd" fill-opacity="1" stroke="none"/>
<circle clip-path="url(#clip323)" cx="892.503" cy="1382.51" r="14.4" fill="#000000" fill-rule="evenodd" fill-opacity="1" stroke="none"/>
<circle clip-path="url(#clip323)" cx="912.507" cy="1382.51" r="14.4" fill="#000000" fill-rule="evenodd" fill-opacity="1" stroke="none"/>
<circle clip-path="url(#clip323)" cx="932.51" cy="1377.52" r="14.4" fill="#000000" fill-rule="evenodd" fill-opacity="1" stroke="none"/>
<circle clip-path="url(#clip323)" cx="952.514" cy="1367.53" r="14.4" fill="#000000" fill-rule="evenodd" fill-opacity="1" stroke="none"/>
<circle clip-path="url(#clip323)" cx="972.517" cy="1367.53" r="14.4" fill="#000000" fill-rule="evenodd" fill-opacity="1" stroke="none"/>
<circle clip-path="url(#clip323)" cx="992.521" cy="1362.54" r="14.4" fill="#000000" fill-rule="evenodd" fill-opacity="1" stroke="none"/>
<circle clip-path="url(#clip323)" cx="1012.52" cy="1352.55" r="14.4" fill="#000000" fill-rule="evenodd" fill-opacity="1" stroke="none"/>
<circle clip-path="url(#clip323)" cx="1032.53" cy="1347.55" r="14.4" fill="#000000" fill-rule="evenodd" fill-opacity="1" stroke="none"/>
<circle clip-path="url(#clip323)" cx="1052.53" cy="1337.57" r="14.4" fill="#000000" fill-rule="evenodd" fill-opacity="1" stroke="none"/>
<circle clip-path="url(#clip323)" cx="1072.53" cy="1322.58" r="14.4" fill="#000000" fill-rule="evenodd" fill-opacity="1" stroke="none"/>
<circle clip-path="url(#clip323)" cx="1092.54" cy="1312.59" r="14.4" fill="#000000" fill-rule="evenodd" fill-opacity="1" stroke="none"/>
<circle clip-path="url(#clip323)" cx="1112.54" cy="1307.6" r="14.4" fill="#000000" fill-rule="evenodd" fill-opacity="1" stroke="none"/>
<circle clip-path="url(#clip323)" cx="1132.54" cy="1307.6" r="14.4" fill="#000000" fill-rule="evenodd" fill-opacity="1" stroke="none"/>
<circle clip-path="url(#clip323)" cx="1152.55" cy="1297.61" r="14.4" fill="#000000" fill-rule="evenodd" fill-opacity="1" stroke="none"/>
<circle clip-path="url(#clip323)" cx="1172.55" cy="1292.62" r="14.4" fill="#000000" fill-rule="evenodd" fill-opacity="1" stroke="none"/>
<circle clip-path="url(#clip323)" cx="1192.56" cy="1282.63" r="14.4" fill="#000000" fill-rule="evenodd" fill-opacity="1" stroke="none"/>
<circle clip-path="url(#clip323)" cx="1212.56" cy="1282.63" r="14.4" fill="#000000" fill-rule="evenodd" fill-opacity="1" stroke="none"/>
<circle clip-path="url(#clip323)" cx="1232.56" cy="1272.64" r="14.4" fill="#000000" fill-rule="evenodd" fill-opacity="1" stroke="none"/>
<circle clip-path="url(#clip323)" cx="1252.57" cy="1272.64" r="14.4" fill="#000000" fill-rule="evenodd" fill-opacity="1" stroke="none"/>
<circle clip-path="url(#clip323)" cx="1272.57" cy="1262.65" r="14.4" fill="#000000" fill-rule="evenodd" fill-opacity="1" stroke="none"/>
<circle clip-path="url(#clip323)" cx="1292.57" cy="1252.66" r="14.4" fill="#000000" fill-rule="evenodd" fill-opacity="1" stroke="none"/>
<circle clip-path="url(#clip323)" cx="1312.58" cy="1242.67" r="14.4" fill="#000000" fill-rule="evenodd" fill-opacity="1" stroke="none"/>
<circle clip-path="url(#clip323)" cx="1332.58" cy="1232.68" r="14.4" fill="#000000" fill-rule="evenodd" fill-opacity="1" stroke="none"/>
<circle clip-path="url(#clip323)" cx="1352.58" cy="1227.69" r="14.4" fill="#000000" fill-rule="evenodd" fill-opacity="1" stroke="none"/>
<circle clip-path="url(#clip323)" cx="1372.59" cy="1227.69" r="14.4" fill="#000000" fill-rule="evenodd" fill-opacity="1" stroke="none"/>
<circle clip-path="url(#clip323)" cx="1392.59" cy="1212.7" r="14.4" fill="#000000" fill-rule="evenodd" fill-opacity="1" stroke="none"/>
<circle clip-path="url(#clip323)" cx="1412.59" cy="1202.72" r="14.4" fill="#000000" fill-rule="evenodd" fill-opacity="1" stroke="none"/>
<circle clip-path="url(#clip323)" cx="1432.6" cy="1197.72" r="14.4" fill="#000000" fill-rule="evenodd" fill-opacity="1" stroke="none"/>
<circle clip-path="url(#clip323)" cx="1452.6" cy="1182.74" r="14.4" fill="#000000" fill-rule="evenodd" fill-opacity="1" stroke="none"/>
<circle clip-path="url(#clip323)" cx="1472.6" cy="1172.75" r="14.4" fill="#000000" fill-rule="evenodd" fill-opacity="1" stroke="none"/>
<circle clip-path="url(#clip323)" cx="1492.61" cy="1157.77" r="14.4" fill="#000000" fill-rule="evenodd" fill-opacity="1" stroke="none"/>
<circle clip-path="url(#clip323)" cx="1512.61" cy="1147.78" r="14.4" fill="#000000" fill-rule="evenodd" fill-opacity="1" stroke="none"/>
<circle clip-path="url(#clip323)" cx="1532.61" cy="1137.79" r="14.4" fill="#000000" fill-rule="evenodd" fill-opacity="1" stroke="none"/>
<circle clip-path="url(#clip323)" cx="1552.62" cy="1132.79" r="14.4" fill="#000000" fill-rule="evenodd" fill-opacity="1" stroke="none"/>
<circle clip-path="url(#clip323)" cx="1572.62" cy="1127.8" r="14.4" fill="#000000" fill-rule="evenodd" fill-opacity="1" stroke="none"/>
<circle clip-path="url(#clip323)" cx="1592.62" cy="1122.8" r="14.4" fill="#000000" fill-rule="evenodd" fill-opacity="1" stroke="none"/>
<circle clip-path="url(#clip323)" cx="1612.63" cy="1107.82" r="14.4" fill="#000000" fill-rule="evenodd" fill-opacity="1" stroke="none"/>
<circle clip-path="url(#clip323)" cx="1632.63" cy="1092.84" r="14.4" fill="#000000" fill-rule="evenodd" fill-opacity="1" stroke="none"/>
<circle clip-path="url(#clip323)" cx="1652.63" cy="1077.85" r="14.4" fill="#000000" fill-rule="evenodd" fill-opacity="1" stroke="none"/>
<circle clip-path="url(#clip323)" cx="1672.64" cy="1067.87" r="14.4" fill="#000000" fill-rule="evenodd" fill-opacity="1" stroke="none"/>
<circle clip-path="url(#clip323)" cx="1692.64" cy="1057.88" r="14.4" fill="#000000" fill-rule="evenodd" fill-opacity="1" stroke="none"/>
<circle clip-path="url(#clip323)" cx="1712.65" cy="1047.89" r="14.4" fill="#000000" fill-rule="evenodd" fill-opacity="1" stroke="none"/>
<circle clip-path="url(#clip323)" cx="1732.65" cy="1047.89" r="14.4" fill="#000000" fill-rule="evenodd" fill-opacity="1" stroke="none"/>
<circle clip-path="url(#clip323)" cx="1752.65" cy="1022.92" r="14.4" fill="#000000" fill-rule="evenodd" fill-opacity="1" stroke="none"/>
<circle clip-path="url(#clip323)" cx="1772.66" cy="1007.93" r="14.4" fill="#000000" fill-rule="evenodd" fill-opacity="1" stroke="none"/>
<circle clip-path="url(#clip323)" cx="1792.66" cy="1002.94" r="14.4" fill="#000000" fill-rule="evenodd" fill-opacity="1" stroke="none"/>
<circle clip-path="url(#clip323)" cx="1812.66" cy="992.949" r="14.4" fill="#000000" fill-rule="evenodd" fill-opacity="1" stroke="none"/>
<circle clip-path="url(#clip323)" cx="1832.67" cy="992.949" r="14.4" fill="#000000" fill-rule="evenodd" fill-opacity="1" stroke="none"/>
<circle clip-path="url(#clip323)" cx="1852.67" cy="987.955" r="14.4" fill="#000000" fill-rule="evenodd" fill-opacity="1" stroke="none"/>
<circle clip-path="url(#clip323)" cx="1872.67" cy="982.96" r="14.4" fill="#000000" fill-rule="evenodd" fill-opacity="1" stroke="none"/>
<circle clip-path="url(#clip323)" cx="1892.68" cy="977.966" r="14.4" fill="#000000" fill-rule="evenodd" fill-opacity="1" stroke="none"/>
<circle clip-path="url(#clip323)" cx="1912.68" cy="977.966" r="14.4" fill="#000000" fill-rule="evenodd" fill-opacity="1" stroke="none"/>
<circle clip-path="url(#clip323)" cx="1932.68" cy="967.977" r="14.4" fill="#000000" fill-rule="evenodd" fill-opacity="1" stroke="none"/>
<circle clip-path="url(#clip323)" cx="1952.69" cy="962.983" r="14.4" fill="#000000" fill-rule="evenodd" fill-opacity="1" stroke="none"/>
<circle clip-path="url(#clip323)" cx="1972.69" cy="947.999" r="14.4" fill="#000000" fill-rule="evenodd" fill-opacity="1" stroke="none"/>
<circle clip-path="url(#clip323)" cx="1992.69" cy="943.005" r="14.4" fill="#000000" fill-rule="evenodd" fill-opacity="1" stroke="none"/>
<circle clip-path="url(#clip323)" cx="2012.7" cy="938.011" r="14.4" fill="#000000" fill-rule="evenodd" fill-opacity="1" stroke="none"/>
<circle clip-path="url(#clip323)" cx="2032.7" cy="933.016" r="14.4" fill="#000000" fill-rule="evenodd" fill-opacity="1" stroke="none"/>
<circle clip-path="url(#clip323)" cx="2052.7" cy="928.022" r="14.4" fill="#000000" fill-rule="evenodd" fill-opacity="1" stroke="none"/>
<circle clip-path="url(#clip323)" cx="2072.71" cy="923.027" r="14.4" fill="#000000" fill-rule="evenodd" fill-opacity="1" stroke="none"/>
<circle clip-path="url(#clip323)" cx="2092.71" cy="923.027" r="14.4" fill="#000000" fill-rule="evenodd" fill-opacity="1" stroke="none"/>
<circle clip-path="url(#clip323)" cx="2112.71" cy="918.033" r="14.4" fill="#000000" fill-rule="evenodd" fill-opacity="1" stroke="none"/>
<circle clip-path="url(#clip323)" cx="2132.72" cy="918.033" r="14.4" fill="#000000" fill-rule="evenodd" fill-opacity="1" stroke="none"/>
<circle clip-path="url(#clip323)" cx="2152.72" cy="918.033" r="14.4" fill="#000000" fill-rule="evenodd" fill-opacity="1" stroke="none"/>
<circle clip-path="url(#clip323)" cx="2172.72" cy="918.033" r="14.4" fill="#000000" fill-rule="evenodd" fill-opacity="1" stroke="none"/>
<circle clip-path="url(#clip323)" cx="2192.73" cy="913.038" r="14.4" fill="#000000" fill-rule="evenodd" fill-opacity="1" stroke="none"/>
<circle clip-path="url(#clip323)" cx="2212.73" cy="913.038" r="14.4" fill="#000000" fill-rule="evenodd" fill-opacity="1" stroke="none"/>
<circle clip-path="url(#clip323)" cx="2232.74" cy="913.038" r="14.4" fill="#000000" fill-rule="evenodd" fill-opacity="1" stroke="none"/>
<circle clip-path="url(#clip323)" cx="2252.74" cy="913.038" r="14.4" fill="#000000" fill-rule="evenodd" fill-opacity="1" stroke="none"/>
<circle clip-path="url(#clip323)" cx="2272.74" cy="913.038" r="14.4" fill="#000000" fill-rule="evenodd" fill-opacity="1" stroke="none"/>
<circle clip-path="url(#clip323)" cx="2292.75" cy="913.038" r="14.4" fill="#000000" fill-rule="evenodd" fill-opacity="1" stroke="none"/>
<path clip-path="url(#clip323)" d="M292.4 1407.96 L302.452 1407.45 L312.504 1406.94 L322.556 1406.42 L332.608 1405.91 L342.66 1405.43 L352.712 1404.95 L362.764 1404.44 L372.816 1403.97 L382.868 1403.45 L392.92 1402.96 L402.972 1402.47 L413.024 1402.06 L423.076 1401.56 L433.128 1401.09 L443.18 1400.65 L453.232 1400.17 L463.284 1399.67 L473.336 1399.19 L483.388 1398.7 L493.44 1398.24 L503.491 1397.78 L513.543 1397.29 L523.595 1396.81 L533.647 1396.37 L543.699 1395.91 L553.751 1395.48 L563.803 1395.02 L573.855 1394.57 L583.907 1394.13 L593.959 1393.69 L604.011 1393.26 L614.063 1392.84 L624.115 1392.5 L634.167 1392.09 L644.219 1391.77 L654.271 1391.41 L664.323 1391.04 L674.375 1390.73 L684.427 1390.42 L694.479 1390.05 L704.531 1389.75 L714.583 1389.46 L724.635 1389.14 L734.687 1388.81 L744.739 1388.46 L754.791 1388.13 L764.843 1387.82 L774.895 1387.54 L784.947 1387.21 L794.999 1386.88 L805.051 1386.59 L815.103 1386.26 L825.155 1385.96 L835.207 1385.64 L845.259 1385.32 L855.311 1385.03 L865.363 1384.75 L875.415 1384.45 L885.467 1384.19 L895.519 1383.91 L905.571 1383.63 L915.623 1383.35 L925.675 1383.07 L935.727 1382.79 L945.779 1382.51 L955.831 1382.2 L965.883 1381.59 L975.935 1380.53 L985.987 1378.32 L996.039 1375.44 L1006.09 1371.85 L1016.14 1367.92 L1026.19 1363.46 L1036.25 1358.96 L1046.3 1354.47 L1056.35 1349.98 L1066.4 1345.47 L1076.45 1340.95 L1086.51 1336.45 L1096.56 1331.95 L1106.61 1327.46 L1116.66 1322.98 L1126.71 1318.47 L1136.77 1314 L1146.82 1309.52 L1156.87 1305.03 L1166.92 1300.53 L1176.97 1296.04 L1187.03 1291.55 L1197.08 1287.08 L1207.13 1282.59 L1217.18 1278.12 L1227.23 1273.63 L1237.29 1269.16 L1247.34 1264.7 L1257.39 1260.21 L1267.44 1255.76 L1277.49 1251.31 L1287.55 1246.88 L1297.6 1242.44 L1307.65 1237.98 L1317.7 1233.48 L1327.75 1229.07 L1337.81 1224.6 L1347.86 1220.16 L1357.91 1215.69 L1367.96 1211.24 L1378.01 1206.8 L1388.07 1202.37 L1398.12 1197.9 L1408.17 1193.47 L1418.22 1189.01 L1428.27 1184.6 L1438.33 1180.17 L1448.38 1175.77 L1458.43 1171.37 L1468.48 1166.93 L1478.53 1162.52 L1488.59 1158.1 L1498.64 1153.69 L1508.69 1149.29 L1518.74 1144.9 L1528.79 1140.52 L1538.85 1136.1 L1548.9 1131.69 L1558.95 1127.32 L1569 1122.93 L1579.05 1118.53 L1589.11 1114.15 L1599.16 1109.76 L1609.21 1105.38 L1619.26 1101.01 L1629.31 1096.64 L1639.37 1092.25 L1649.42 1087.9 L1659.47 1083.5 L1669.52 1079.1 L1679.57 1074.75 L1689.63 1070.43 L1699.68 1066.06 L1709.73 1061.72 L1719.78 1057.35 L1729.83 1052.95 L1739.89 1048.6 L1749.94 1044.22 L1759.99 1039.86 L1770.04 1035.5 L1780.09 1031.13 L1790.15 1026.79 L1800.2 1022.42 L1810.25 1018.11 L1820.3 1013.73 L1830.35 1009.39 L1840.41 1005.05 L1850.46 1000.7 L1860.51 996.362 L1870.56 992.001 L1880.61 987.675 L1890.67 983.344 L1900.72 978.999 L1910.77 974.653 L1920.82 970.311 L1930.87 965.961 L1940.93 961.617 L1950.98 957.27 L1961.03 952.944 L1971.08 948.763 L1981.13 945.036 L1991.19 942.657 L2001.24 941.253 L2011.29 939.963 L2021.34 938.762 L2031.39 937.534 L2041.45 936.233 L2051.5 934.93 L2061.55 933.73 L2071.6 932.51 L2081.65 931.242 L2091.71 930.048 L2101.76 928.961 L2111.81 927.874 L2121.86 926.757 L2131.91 925.783 L2141.97 924.806 L2152.02 923.907 L2162.07 923.064 L2172.12 922.158 L2182.17 921.468 L2192.23 920.798 L2202.28 920.21 L2212.33 919.658 L2222.38 919.283 L2232.43 918.786 L2242.49 918.414 L2252.54 917.957 L2262.59 917.486 L2272.64 917.142 L2282.69 916.829 L2292.75 916.535 L2292.75 900.579 L2282.69 901.845 L2272.64 903.118 L2262.59 904.372 L2252.54 905.564 L2242.49 906.713 L2232.43 907.817 L2222.38 908.988 L2212.33 910.07 L2202.28 911.084 L2192.23 912.044 L2182.17 913.057 L2172.12 913.908 L2162.07 914.738 L2152.02 915.449 L2141.97 916.026 L2131.91 916.613 L2121.86 917.119 L2111.81 917.495 L2101.76 917.984 L2091.71 918.325 L2081.65 918.718 L2071.6 919.074 L2061.55 919.432 L2051.5 919.878 L2041.45 920.237 L2031.39 921.067 L2021.34 923.095 L2011.29 925.952 L2001.24 928.754 L1991.19 932.246 L1981.13 936.026 L1971.08 939.938 L1961.03 944.208 L1950.98 948.64 L1940.93 953.084 L1930.87 957.553 L1920.82 961.949 L1910.77 966.406 L1900.72 970.892 L1890.67 975.38 L1880.61 979.843 L1870.56 984.305 L1860.51 988.794 L1850.46 993.29 L1840.41 997.794 L1830.35 1002.25 L1820.3 1006.72 L1810.25 1011.18 L1800.2 1015.69 L1790.15 1020.16 L1780.09 1024.62 L1770.04 1029.11 L1759.99 1033.58 L1749.94 1038.06 L1739.89 1042.52 L1729.83 1046.98 L1719.78 1051.46 L1709.73 1055.95 L1699.68 1060.42 L1689.63 1064.87 L1679.57 1069.32 L1669.52 1073.78 L1659.47 1078.24 L1649.42 1082.7 L1639.37 1087.15 L1629.31 1091.63 L1619.26 1096.1 L1609.21 1100.56 L1599.16 1105.01 L1589.11 1109.47 L1579.05 1113.88 L1569 1118.29 L1558.95 1122.73 L1548.9 1127.17 L1538.85 1131.61 L1528.79 1136.04 L1518.74 1140.46 L1508.69 1144.87 L1498.64 1149.26 L1488.59 1153.66 L1478.53 1158.07 L1468.48 1162.49 L1458.43 1166.9 L1448.38 1171.3 L1438.33 1175.72 L1428.27 1180.1 L1418.22 1184.46 L1408.17 1188.87 L1398.12 1193.27 L1388.07 1197.65 L1378.01 1202 L1367.96 1206.37 L1357.91 1210.75 L1347.86 1215.12 L1337.81 1219.5 L1327.75 1223.87 L1317.7 1228.23 L1307.65 1232.61 L1297.6 1236.98 L1287.55 1241.34 L1277.49 1245.66 L1267.44 1249.99 L1257.39 1254.36 L1247.34 1258.73 L1237.29 1263.11 L1227.23 1267.47 L1217.18 1271.86 L1207.13 1276.2 L1197.08 1280.53 L1187.03 1284.87 L1176.97 1289.21 L1166.92 1293.57 L1156.87 1297.96 L1146.82 1302.28 L1136.77 1306.59 L1126.71 1310.9 L1116.66 1315.22 L1106.61 1319.54 L1096.56 1323.87 L1086.51 1328.22 L1076.45 1332.56 L1066.4 1336.88 L1056.35 1341.21 L1046.3 1345.57 L1036.25 1349.93 L1026.19 1354.28 L1016.14 1358.61 L1006.09 1362.94 L996.039 1367.19 L985.987 1370.26 L975.935 1371.16 L965.883 1371.65 L955.831 1372.17 L945.779 1372.67 L935.727 1373.17 L925.675 1373.67 L915.623 1374.18 L905.571 1374.7 L895.519 1375.21 L885.467 1375.69 L875.415 1376.17 L865.363 1376.67 L855.311 1377.16 L845.259 1377.64 L835.207 1378.12 L825.155 1378.63 L815.103 1379.11 L805.051 1379.6 L794.999 1380.05 L784.947 1380.51 L774.895 1381.01 L764.843 1381.44 L754.791 1381.89 L744.739 1382.37 L734.687 1382.8 L724.635 1383.24 L714.583 1383.75 L704.531 1384.18 L694.479 1384.58 L684.427 1385.01 L674.375 1385.42 L664.323 1385.84 L654.271 1386.26 L644.219 1386.65 L634.167 1387.06 L624.115 1387.46 L614.063 1387.85 L604.011 1388.22 L593.959 1388.58 L583.907 1388.96 L573.855 1389.34 L563.803 1389.72 L553.751 1390.06 L543.699 1390.38 L533.647 1390.72 L523.595 1391.07 L513.543 1391.4 L503.491 1391.71 L493.44 1392.01 L483.388 1392.3 L473.336 1392.59 L463.284 1392.91 L453.232 1393.26 L443.18 1393.6 L433.128 1393.88 L423.076 1394.15 L413.024 1394.41 L402.972 1394.7 L392.92 1394.97 L382.868 1395.24 L372.816 1395.55 L362.764 1395.81 L352.712 1396.07 L342.66 1396.36 L332.608 1396.66 L322.556 1396.94 L312.504 1397.26 L302.452 1397.53 L292.4 1397.8  Z" fill="#c271d2" fill-rule="evenodd" fill-opacity="0.3"/>
<polyline clip-path="url(#clip323)" style="stroke:#c271d2; stroke-linecap:round; stroke-linejoin:round; stroke-width:8; stroke-opacity:1; fill:none" points="292.4,1402.86 302.452,1402.47 312.504,1402.08 322.556,1401.7 332.608,1401.31 342.66,1400.92 352.712,1400.53 362.764,1400.15 372.816,1399.76 382.868,1399.37 392.92,1398.98 402.972,1398.6 413.024,1398.21 423.076,1397.82 433.128,1397.44 443.18,1397.05 453.232,1396.66 463.284,1396.27 473.336,1395.89 483.388,1395.5 493.44,1395.11 503.491,1394.72 513.543,1394.34 523.595,1393.95 533.647,1393.56 543.699,1393.17 553.751,1392.79 563.803,1392.4 573.855,1392.01 583.907,1391.62 593.959,1391.24 604.011,1390.85 614.063,1390.46 624.115,1390.08 634.167,1389.69 644.219,1389.3 654.271,1388.91 664.323,1388.53 674.375,1388.14 684.427,1387.75 694.479,1387.36 704.531,1386.98 714.583,1386.59 724.635,1386.2 734.687,1385.81 744.739,1385.43 754.791,1385.04 764.843,1384.65 774.895,1384.26 784.947,1383.88 794.999,1383.49 805.051,1383.1 815.103,1382.72 825.155,1382.33 835.207,1381.94 845.259,1381.55 855.311,1381.17 865.363,1380.78 875.415,1380.39 885.467,1380 895.519,1379.62 905.571,1379.23 915.623,1378.84 925.675,1378.45 935.727,1378.07 945.779,1377.68 955.831,1377.29 965.883,1376.87 975.935,1376.27 985.987,1374.67 996.039,1371.53 1006.09,1367.47 1016.14,1363.1 1026.19,1358.69 1036.25,1354.28 1046.3,1349.87 1056.35,1345.46 1066.4,1341.05 1076.45,1336.65 1086.51,1332.24 1096.56,1327.83 1106.61,1323.42 1116.66,1319.01 1126.71,1314.6 1136.77,1310.19 1146.82,1305.79 1156.87,1301.38 1166.92,1296.97 1176.97,1292.56 1187.03,1288.15 1197.08,1283.74 1207.13,1279.33 1217.18,1274.92 1227.23,1270.52 1237.29,1266.11 1247.34,1261.7 1257.39,1257.29 1267.44,1252.88 1277.49,1248.47 1287.55,1244.06 1297.6,1239.65 1307.65,1235.25 1317.7,1230.84 1327.75,1226.43 1337.81,1222.02 1347.86,1217.61 1357.91,1213.2 1367.96,1208.79 1378.01,1204.38 1388.07,1199.98 1398.12,1195.57 1408.17,1191.16 1418.22,1186.75 1428.27,1182.34 1438.33,1177.93 1448.38,1173.52 1458.43,1169.12 1468.48,1164.71 1478.53,1160.3 1488.59,1155.89 1498.64,1151.48 1508.69,1147.07 1518.74,1142.66 1528.79,1138.25 1538.85,1133.85 1548.9,1129.44 1558.95,1125.03 1569,1120.62 1579.05,1116.21 1589.11,1111.8 1599.16,1107.39 1609.21,1102.98 1619.26,1098.58 1629.31,1094.17 1639.37,1089.76 1649.42,1085.35 1659.47,1080.94 1669.52,1076.53 1679.57,1072.12 1689.63,1067.72 1699.68,1063.31 1709.73,1058.9 1719.78,1054.49 1729.83,1050.08 1739.89,1045.67 1749.94,1041.26 1759.99,1036.85 1770.04,1032.45 1780.09,1028.04 1790.15,1023.63 1800.2,1019.22 1810.25,1014.81 1820.3,1010.4 1830.35,1005.99 1840.41,1001.58 1850.46,997.176 1860.51,992.767 1870.56,988.358 1880.61,983.95 1890.67,979.541 1900.72,975.132 1910.77,970.724 1920.82,966.315 1930.87,961.907 1940.93,957.502 1950.98,953.104 1961.03,948.73 1971.08,944.443 1981.13,940.394 1991.19,936.807 2001.24,933.92 2011.29,931.894 2021.34,930.516 2031.39,929.519 2041.45,928.662 2051.5,927.847 2061.55,927.035 2071.6,926.225 2081.65,925.414 2091.71,924.603 2101.76,923.793 2111.81,922.982 2121.86,922.171 2131.91,921.361 2141.97,920.55 2152.02,919.739 2162.07,918.929 2172.12,918.118 2182.17,917.308 2192.23,916.497 2202.28,915.686 2212.33,914.876 2222.38,914.065 2232.43,913.254 2242.49,912.444 2252.54,911.633 2262.59,910.823 2272.64,910.012 2282.69,909.201 2292.75,908.391 "/>
<polyline clip-path="url(#clip323)" style="stroke:#000000; stroke-linecap:round; stroke-linejoin:round; stroke-width:8; stroke-opacity:1; fill:none" points="967.233,1376.06 1005.82,1376.06 "/>
<polyline clip-path="url(#clip323)" style="stroke:#000000; stroke-linecap:round; stroke-linejoin:round; stroke-width:8; stroke-opacity:1; fill:none" points="1963.9,932.57 2031.8,932.57 "/>
<line clip-path="url(#clip323)" x1="967.233" y1="1396.06" x2="967.233" y2="1356.06" style="stroke:#c271d2; stroke-width:8; stroke-opacity:1"/>
<line clip-path="url(#clip323)" x1="1005.82" y1="1396.06" x2="1005.82" y2="1356.06" style="stroke:#c271d2; stroke-width:8; stroke-opacity:1"/>
<line clip-path="url(#clip323)" x1="1963.9" y1="952.57" x2="1963.9" y2="912.57" style="stroke:#c271d2; stroke-width:8; stroke-opacity:1"/>
<line clip-path="url(#clip323)" x1="2031.8" y1="952.57" x2="2031.8" y2="912.57" style="stroke:#c271d2; stroke-width:8; stroke-opacity:1"/>
<circle clip-path="url(#clip323)" cx="986.526" cy="1376.06" r="18" fill="#c271d2" fill-rule="evenodd" fill-opacity="1" stroke="#000000" stroke-opacity="1" stroke-width="6.4"/>
<circle clip-path="url(#clip323)" cx="1997.85" cy="932.57" r="18" fill="#c271d2" fill-rule="evenodd" fill-opacity="1" stroke="#000000" stroke-opacity="1" stroke-width="6.4"/>
</svg>
