<?xml version="1.0" encoding="utf-8"?>
<svg xmlns="http://www.w3.org/2000/svg" xmlns:xlink="http://www.w3.org/1999/xlink" width="600" height="400" viewBox="0 0 2400 1600">
<defs>
  <clipPath id="clip510">
    <rect x="0" y="0" width="2400" height="1600"/>
  </clipPath>
</defs>
<path clip-path="url(#clip510)" d="M0 1600 L2400 1600 L2400 8.88178e-14 L0 8.88178e-14  Z" fill="#ffffff" fill-rule="evenodd" fill-opacity="1"/>
<defs>
  <clipPath id="clip511">
    <rect x="480" y="0" width="1681" height="1600"/>
  </clipPath>
</defs>
<path clip-path="url(#clip510)" d="M242.135 1423.18 L2352.76 1423.18 L2352.76 114.832 L242.135 114.832  Z" fill="#ffffff" fill-rule="evenodd" fill-opacity="1"/>
<defs>
  <clipPath id="clip512">
    <rect x="242" y="114" width="2112" height="1309"/>
  </clipPath>
</defs>
<polyline clip-path="url(#clip512)" style="stroke:#000000; stroke-linecap:round; stroke-linejoin:round; stroke-width:2; stroke-opacity:0.1; fill:none" points="301.869,1423.18 301.869,114.832 "/>
<polyline clip-path="url(#clip512)" style="stroke:#000000; stroke-linecap:round; stroke-linejoin:round; stroke-width:2; stroke-opacity:0.1; fill:none" points="618.771,1423.18 618.771,114.832 "/>
<polyline clip-path="url(#clip512)" style="stroke:#000000; stroke-linecap:round; stroke-linejoin:round; stroke-width:2; stroke-opacity:0.1; fill:none" points="935.673,1423.18 935.673,114.832 "/>
<polyline clip-path="url(#clip512)" style="stroke:#000000; stroke-linecap:round; stroke-linejoin:round; stroke-width:2; stroke-opacity:0.1; fill:none" points="1252.57,1423.18 1252.57,114.832 "/>
<polyline clip-path="url(#clip512)" style="stroke:#000000; stroke-linecap:round; stroke-linejoin:round; stroke-width:2; stroke-opacity:0.1; fill:none" points="1569.48,1423.18 1569.48,114.832 "/>
<polyline clip-path="url(#clip512)" style="stroke:#000000; stroke-linecap:round; stroke-linejoin:round; stroke-width:2; stroke-opacity:0.1; fill:none" points="1886.38,1423.18 1886.38,114.832 "/>
<polyline clip-path="url(#clip512)" style="stroke:#000000; stroke-linecap:round; stroke-linejoin:round; stroke-width:2; stroke-opacity:0.1; fill:none" points="2203.28,1423.18 2203.28,114.832 "/>
<polyline clip-path="url(#clip512)" style="stroke:#000000; stroke-linecap:round; stroke-linejoin:round; stroke-width:2; stroke-opacity:0.1; fill:none" points="242.135,1227.54 2352.76,1227.54 "/>
<polyline clip-path="url(#clip512)" style="stroke:#000000; stroke-linecap:round; stroke-linejoin:round; stroke-width:2; stroke-opacity:0.1; fill:none" points="242.135,980.416 2352.76,980.416 "/>
<polyline clip-path="url(#clip512)" style="stroke:#000000; stroke-linecap:round; stroke-linejoin:round; stroke-width:2; stroke-opacity:0.1; fill:none" points="242.135,733.29 2352.76,733.29 "/>
<polyline clip-path="url(#clip512)" style="stroke:#000000; stroke-linecap:round; stroke-linejoin:round; stroke-width:2; stroke-opacity:0.1; fill:none" points="242.135,486.165 2352.76,486.165 "/>
<polyline clip-path="url(#clip512)" style="stroke:#000000; stroke-linecap:round; stroke-linejoin:round; stroke-width:2; stroke-opacity:0.1; fill:none" points="242.135,239.039 2352.76,239.039 "/>
<polyline clip-path="url(#clip510)" style="stroke:#000000; stroke-linecap:round; stroke-linejoin:round; stroke-width:4; stroke-opacity:1; fill:none" points="242.135,1423.18 2352.76,1423.18 "/>
<polyline clip-path="url(#clip510)" style="stroke:#000000; stroke-linecap:round; stroke-linejoin:round; stroke-width:4; stroke-opacity:1; fill:none" points="301.869,1423.18 301.869,1404.28 "/>
<polyline clip-path="url(#clip510)" style="stroke:#000000; stroke-linecap:round; stroke-linejoin:round; stroke-width:4; stroke-opacity:1; fill:none" points="618.771,1423.18 618.771,1404.28 "/>
<polyline clip-path="url(#clip510)" style="stroke:#000000; stroke-linecap:round; stroke-linejoin:round; stroke-width:4; stroke-opacity:1; fill:none" points="935.673,1423.18 935.673,1404.28 "/>
<polyline clip-path="url(#clip510)" style="stroke:#000000; stroke-linecap:round; stroke-linejoin:round; stroke-width:4; stroke-opacity:1; fill:none" points="1252.57,1423.18 1252.57,1404.28 "/>
<polyline clip-path="url(#clip510)" style="stroke:#000000; stroke-linecap:round; stroke-linejoin:round; stroke-width:4; stroke-opacity:1; fill:none" points="1569.48,1423.18 1569.48,1404.28 "/>
<polyline clip-path="url(#clip510)" style="stroke:#000000; stroke-linecap:round; stroke-linejoin:round; stroke-width:4; stroke-opacity:1; fill:none" points="1886.38,1423.18 1886.38,1404.28 "/>
<polyline clip-path="url(#clip510)" style="stroke:#000000; stroke-linecap:round; stroke-linejoin:round; stroke-width:4; stroke-opacity:1; fill:none" points="2203.28,1423.18 2203.28,1404.28 "/>
<path clip-path="url(#clip510)" d="M301.869 1454.1 Q298.258 1454.1 296.429 1457.66 Q294.624 1461.2 294.624 1468.33 Q294.624 1475.44 296.429 1479.01 Q298.258 1482.55 301.869 1482.55 Q305.503 1482.55 307.309 1479.01 Q309.138 1475.44 309.138 1468.33 Q309.138 1461.2 307.309 1457.66 Q305.503 1454.1 301.869 1454.1 M301.869 1450.39 Q307.679 1450.39 310.735 1455 Q313.814 1459.58 313.814 1468.33 Q313.814 1477.06 310.735 1481.67 Q307.679 1486.25 301.869 1486.25 Q296.059 1486.25 292.98 1481.67 Q289.925 1477.06 289.925 1468.33 Q289.925 1459.58 292.98 1455 Q296.059 1450.39 301.869 1450.39 Z" fill="#000000" fill-rule="nonzero" fill-opacity="1" /><path clip-path="url(#clip510)" d="M609.153 1481.64 L616.792 1481.64 L616.792 1455.28 L608.482 1456.95 L608.482 1452.69 L616.745 1451.02 L621.421 1451.02 L621.421 1481.64 L629.06 1481.64 L629.06 1485.58 L609.153 1485.58 L609.153 1481.64 Z" fill="#000000" fill-rule="nonzero" fill-opacity="1" /><path clip-path="url(#clip510)" d="M930.325 1481.64 L946.645 1481.64 L946.645 1485.58 L924.7 1485.58 L924.7 1481.64 Q927.362 1478.89 931.946 1474.26 Q936.552 1469.61 937.733 1468.27 Q939.978 1465.74 940.858 1464.01 Q941.761 1462.25 941.761 1460.56 Q941.761 1457.8 939.816 1456.07 Q937.895 1454.33 934.793 1454.33 Q932.594 1454.33 930.14 1455.09 Q927.71 1455.86 924.932 1457.41 L924.932 1452.69 Q927.756 1451.55 930.21 1450.97 Q932.663 1450.39 934.7 1450.39 Q940.071 1450.39 943.265 1453.08 Q946.46 1455.77 946.46 1460.26 Q946.46 1462.39 945.649 1464.31 Q944.862 1466.2 942.756 1468.8 Q942.177 1469.47 939.075 1472.69 Q935.974 1475.88 930.325 1481.64 Z" fill="#000000" fill-rule="nonzero" fill-opacity="1" /><path clip-path="url(#clip510)" d="M1256.82 1466.95 Q1260.18 1467.66 1262.05 1469.93 Q1263.95 1472.2 1263.95 1475.53 Q1263.95 1480.65 1260.43 1483.45 Q1256.91 1486.25 1250.43 1486.25 Q1248.26 1486.25 1245.94 1485.81 Q1243.65 1485.39 1241.2 1484.54 L1241.2 1480.02 Q1243.14 1481.16 1245.46 1481.74 Q1247.77 1482.32 1250.29 1482.32 Q1254.69 1482.32 1256.98 1480.58 Q1259.3 1478.84 1259.3 1475.53 Q1259.3 1472.48 1257.15 1470.77 Q1255.02 1469.03 1251.2 1469.03 L1247.17 1469.03 L1247.17 1465.19 L1251.38 1465.19 Q1254.83 1465.19 1256.66 1463.82 Q1258.49 1462.43 1258.49 1459.84 Q1258.49 1457.18 1256.59 1455.77 Q1254.72 1454.33 1251.2 1454.33 Q1249.28 1454.33 1247.08 1454.75 Q1244.88 1455.16 1242.24 1456.04 L1242.24 1451.88 Q1244.9 1451.14 1247.22 1450.77 Q1249.55 1450.39 1251.61 1450.39 Q1256.94 1450.39 1260.04 1452.83 Q1263.14 1455.23 1263.14 1459.35 Q1263.14 1462.22 1261.5 1464.21 Q1259.85 1466.18 1256.82 1466.95 Z" fill="#000000" fill-rule="nonzero" fill-opacity="1" /><path clip-path="url(#clip510)" d="M1572.49 1455.09 L1560.68 1473.54 L1572.49 1473.54 L1572.49 1455.09 M1571.26 1451.02 L1577.14 1451.02 L1577.14 1473.54 L1582.07 1473.54 L1582.07 1477.43 L1577.14 1477.43 L1577.14 1485.58 L1572.49 1485.58 L1572.49 1477.43 L1556.88 1477.43 L1556.88 1472.92 L1571.26 1451.02 Z" fill="#000000" fill-rule="nonzero" fill-opacity="1" /><path clip-path="url(#clip510)" d="M1876.66 1451.02 L1895.01 1451.02 L1895.01 1454.96 L1880.94 1454.96 L1880.94 1463.43 Q1881.96 1463.08 1882.97 1462.92 Q1883.99 1462.73 1885.01 1462.73 Q1890.8 1462.73 1894.18 1465.9 Q1897.56 1469.08 1897.56 1474.49 Q1897.56 1480.07 1894.09 1483.17 Q1890.61 1486.25 1884.29 1486.25 Q1882.12 1486.25 1879.85 1485.88 Q1877.6 1485.51 1875.2 1484.77 L1875.2 1480.07 Q1877.28 1481.2 1879.5 1481.76 Q1881.72 1482.32 1884.2 1482.32 Q1888.21 1482.32 1890.54 1480.21 Q1892.88 1478.1 1892.88 1474.49 Q1892.88 1470.88 1890.54 1468.77 Q1888.21 1466.67 1884.2 1466.67 Q1882.33 1466.67 1880.45 1467.08 Q1878.6 1467.5 1876.66 1468.38 L1876.66 1451.02 Z" fill="#000000" fill-rule="nonzero" fill-opacity="1" /><path clip-path="url(#clip510)" d="M2203.68 1466.44 Q2200.54 1466.44 2198.68 1468.59 Q2196.86 1470.74 2196.86 1474.49 Q2196.86 1478.22 2198.68 1480.39 Q2200.54 1482.55 2203.68 1482.55 Q2206.83 1482.55 2208.66 1480.39 Q2210.51 1478.22 2210.51 1474.49 Q2210.51 1470.74 2208.66 1468.59 Q2206.83 1466.44 2203.68 1466.44 M2212.97 1451.78 L2212.97 1456.04 Q2211.21 1455.21 2209.4 1454.77 Q2207.62 1454.33 2205.86 1454.33 Q2201.23 1454.33 2198.78 1457.45 Q2196.35 1460.58 2196 1466.9 Q2197.37 1464.89 2199.43 1463.82 Q2201.49 1462.73 2203.96 1462.73 Q2209.17 1462.73 2212.18 1465.9 Q2215.21 1469.05 2215.21 1474.49 Q2215.21 1479.82 2212.06 1483.03 Q2208.92 1486.25 2203.68 1486.25 Q2197.69 1486.25 2194.52 1481.67 Q2191.35 1477.06 2191.35 1468.33 Q2191.35 1460.14 2195.24 1455.28 Q2199.12 1450.39 2205.68 1450.39 Q2207.43 1450.39 2209.22 1450.74 Q2211.02 1451.09 2212.97 1451.78 Z" fill="#000000" fill-rule="nonzero" fill-opacity="1" /><path clip-path="url(#clip510)" d="M1314.06 1532.4 L1301.17 1549.74 L1314.73 1568.04 L1307.82 1568.04 L1297.45 1554.04 L1287.07 1568.04 L1280.16 1568.04 L1294.01 1549.39 L1281.34 1532.4 L1288.25 1532.4 L1297.7 1545.1 L1307.15 1532.4 L1314.06 1532.4 Z" fill="#000000" fill-rule="nonzero" fill-opacity="1" /><polyline clip-path="url(#clip510)" style="stroke:#000000; stroke-linecap:round; stroke-linejoin:round; stroke-width:4; stroke-opacity:1; fill:none" points="242.135,1423.18 242.135,114.832 "/>
<polyline clip-path="url(#clip510)" style="stroke:#000000; stroke-linecap:round; stroke-linejoin:round; stroke-width:4; stroke-opacity:1; fill:none" points="242.135,1227.54 261.032,1227.54 "/>
<polyline clip-path="url(#clip510)" style="stroke:#000000; stroke-linecap:round; stroke-linejoin:round; stroke-width:4; stroke-opacity:1; fill:none" points="242.135,980.416 261.032,980.416 "/>
<polyline clip-path="url(#clip510)" style="stroke:#000000; stroke-linecap:round; stroke-linejoin:round; stroke-width:4; stroke-opacity:1; fill:none" points="242.135,733.29 261.032,733.29 "/>
<polyline clip-path="url(#clip510)" style="stroke:#000000; stroke-linecap:round; stroke-linejoin:round; stroke-width:4; stroke-opacity:1; fill:none" points="242.135,486.165 261.032,486.165 "/>
<polyline clip-path="url(#clip510)" style="stroke:#000000; stroke-linecap:round; stroke-linejoin:round; stroke-width:4; stroke-opacity:1; fill:none" points="242.135,239.039 261.032,239.039 "/>
<path clip-path="url(#clip510)" d="M114.26 1227.99 L143.936 1227.99 L143.936 1231.93 L114.26 1231.93 L114.26 1227.99 Z" fill="#000000" fill-rule="nonzero" fill-opacity="1" /><path clip-path="url(#clip510)" d="M154.839 1240.89 L162.477 1240.89 L162.477 1214.52 L154.167 1216.19 L154.167 1211.93 L162.431 1210.26 L167.107 1210.26 L167.107 1240.89 L174.746 1240.89 L174.746 1244.82 L154.839 1244.82 L154.839 1240.89 Z" fill="#000000" fill-rule="nonzero" fill-opacity="1" /><path clip-path="url(#clip510)" d="M194.19 1213.34 Q190.579 1213.34 188.75 1216.91 Q186.945 1220.45 186.945 1227.58 Q186.945 1234.68 188.75 1238.25 Q190.579 1241.79 194.19 1241.79 Q197.825 1241.79 199.63 1238.25 Q201.459 1234.68 201.459 1227.58 Q201.459 1220.45 199.63 1216.91 Q197.825 1213.34 194.19 1213.34 M194.19 1209.64 Q200 1209.64 203.056 1214.24 Q206.135 1218.83 206.135 1227.58 Q206.135 1236.3 203.056 1240.91 Q200 1245.49 194.19 1245.49 Q188.38 1245.49 185.301 1240.91 Q182.246 1236.3 182.246 1227.58 Q182.246 1218.83 185.301 1214.24 Q188.38 1209.64 194.19 1209.64 Z" fill="#000000" fill-rule="nonzero" fill-opacity="1" /><path clip-path="url(#clip510)" d="M145.417 980.868 L175.093 980.868 L175.093 984.803 L145.417 984.803 L145.417 980.868 Z" fill="#000000" fill-rule="nonzero" fill-opacity="1" /><path clip-path="url(#clip510)" d="M185.232 963.136 L203.588 963.136 L203.588 967.072 L189.514 967.072 L189.514 975.544 Q190.533 975.197 191.551 975.034 Q192.57 974.849 193.588 974.849 Q199.375 974.849 202.755 978.021 Q206.135 981.192 206.135 986.609 Q206.135 992.187 202.662 995.289 Q199.19 998.368 192.871 998.368 Q190.695 998.368 188.426 997.997 Q186.181 997.627 183.774 996.886 L183.774 992.187 Q185.857 993.321 188.079 993.877 Q190.301 994.433 192.778 994.433 Q196.783 994.433 199.121 992.326 Q201.459 990.22 201.459 986.609 Q201.459 982.997 199.121 980.891 Q196.783 978.784 192.778 978.784 Q190.903 978.784 189.028 979.201 Q187.176 979.618 185.232 980.497 L185.232 963.136 Z" fill="#000000" fill-rule="nonzero" fill-opacity="1" /><path clip-path="url(#clip510)" d="M194.19 719.089 Q190.579 719.089 188.75 722.654 Q186.945 726.196 186.945 733.325 Q186.945 740.432 188.75 743.996 Q190.579 747.538 194.19 747.538 Q197.825 747.538 199.63 743.996 Q201.459 740.432 201.459 733.325 Q201.459 726.196 199.63 722.654 Q197.825 719.089 194.19 719.089 M194.19 715.385 Q200 715.385 203.056 719.992 Q206.135 724.575 206.135 733.325 Q206.135 742.052 203.056 746.658 Q200 751.242 194.19 751.242 Q188.38 751.242 185.301 746.658 Q182.246 742.052 182.246 733.325 Q182.246 724.575 185.301 719.992 Q188.38 715.385 194.19 715.385 Z" fill="#000000" fill-rule="nonzero" fill-opacity="1" /><path clip-path="url(#clip510)" d="M185.232 468.885 L203.588 468.885 L203.588 472.82 L189.514 472.82 L189.514 481.292 Q190.533 480.945 191.551 480.783 Q192.57 480.597 193.588 480.597 Q199.375 480.597 202.755 483.769 Q206.135 486.94 206.135 492.357 Q206.135 497.935 202.662 501.037 Q199.19 504.116 192.871 504.116 Q190.695 504.116 188.426 503.745 Q186.181 503.375 183.774 502.634 L183.774 497.935 Q185.857 499.07 188.079 499.625 Q190.301 500.181 192.778 500.181 Q196.783 500.181 199.121 498.074 Q201.459 495.968 201.459 492.357 Q201.459 488.746 199.121 486.639 Q196.783 484.533 192.778 484.533 Q190.903 484.533 189.028 484.949 Q187.176 485.366 185.232 486.246 L185.232 468.885 Z" fill="#000000" fill-rule="nonzero" fill-opacity="1" /><path clip-path="url(#clip510)" d="M154.839 252.383 L162.477 252.383 L162.477 226.018 L154.167 227.684 L154.167 223.425 L162.431 221.759 L167.107 221.759 L167.107 252.383 L174.746 252.383 L174.746 256.319 L154.839 256.319 L154.839 252.383 Z" fill="#000000" fill-rule="nonzero" fill-opacity="1" /><path clip-path="url(#clip510)" d="M194.19 224.837 Q190.579 224.837 188.75 228.402 Q186.945 231.944 186.945 239.073 Q186.945 246.18 188.75 249.745 Q190.579 253.286 194.19 253.286 Q197.825 253.286 199.63 249.745 Q201.459 246.18 201.459 239.073 Q201.459 231.944 199.63 228.402 Q197.825 224.837 194.19 224.837 M194.19 221.134 Q200 221.134 203.056 225.74 Q206.135 230.323 206.135 239.073 Q206.135 247.8 203.056 252.407 Q200 256.99 194.19 256.99 Q188.38 256.99 185.301 252.407 Q182.246 247.8 182.246 239.073 Q182.246 230.323 185.301 225.74 Q188.38 221.134 194.19 221.134 Z" fill="#000000" fill-rule="nonzero" fill-opacity="1" /><path clip-path="url(#clip510)" d="M67.3143 767.319 Q73.68 769.802 75.6216 772.157 Q77.5631 774.512 77.5631 778.459 L77.5631 783.138 L72.6615 783.138 L72.6615 779.7 Q72.6615 777.281 71.5157 775.945 Q70.3699 774.608 66.1048 772.985 L63.4312 771.934 L28.3562 786.353 L28.3562 780.146 L56.238 769.006 L28.3562 757.866 L28.3562 751.659 L67.3143 767.319 Z" fill="#000000" fill-rule="nonzero" fill-opacity="1" /><path clip-path="url(#clip510)" d="M275.503 12.0694 L275.503 18.9096 Q271.51 16.9999 267.968 16.0624 Q264.426 15.1249 261.128 15.1249 Q255.398 15.1249 252.273 17.3471 Q249.183 19.5693 249.183 23.6665 Q249.183 27.104 251.232 28.8748 Q253.315 30.6109 259.079 31.6873 L263.315 32.5554 Q271.162 34.0484 274.878 37.8331 Q278.628 41.5831 278.628 47.9025 Q278.628 55.4372 273.558 59.3261 Q268.523 63.2149 258.767 63.2149 Q255.086 63.2149 250.919 62.3816 Q246.787 61.5483 242.343 59.9163 L242.343 52.6942 Q246.614 55.09 250.711 56.3053 Q254.808 57.5205 258.767 57.5205 Q264.773 57.5205 268.037 55.1594 Q271.301 52.7983 271.301 48.4234 Q271.301 44.6039 268.94 42.4512 Q266.614 40.2984 261.267 39.222 L256.996 38.3887 Q249.149 36.8262 245.642 33.4929 Q242.135 30.1596 242.135 24.2221 Q242.135 17.3471 246.961 13.3888 Q251.822 9.43051 260.329 9.43051 Q263.975 9.43051 267.76 10.0902 Q271.544 10.7499 275.503 12.0694 Z" fill="#000000" fill-rule="nonzero" fill-opacity="1" /><path clip-path="url(#clip510)" d="M289.287 8.18051 L295.676 8.18051 L295.676 62.208 L289.287 62.208 L289.287 8.18051 Z" fill="#000000" fill-rule="nonzero" fill-opacity="1" /><path clip-path="url(#clip510)" d="M309.044 23.3193 L315.433 23.3193 L315.433 62.208 L309.044 62.208 L309.044 23.3193 M309.044 8.18051 L315.433 8.18051 L315.433 16.2707 L309.044 16.2707 L309.044 8.18051 Z" fill="#000000" fill-rule="nonzero" fill-opacity="1" /><path clip-path="url(#clip510)" d="M354.391 42.3123 Q354.391 35.3679 351.509 31.5484 Q348.662 27.729 343.488 27.729 Q338.349 27.729 335.467 31.5484 Q332.62 35.3679 332.62 42.3123 Q332.62 49.222 335.467 53.0414 Q338.349 56.8608 343.488 56.8608 Q348.662 56.8608 351.509 53.0414 Q354.391 49.222 354.391 42.3123 M360.78 57.3816 Q360.78 67.3121 356.37 72.1385 Q351.96 76.9996 342.863 76.9996 Q339.495 76.9996 336.509 76.4788 Q333.523 75.9926 330.711 74.951 L330.711 68.7357 Q333.523 70.2635 336.266 70.9927 Q339.009 71.7218 341.856 71.7218 Q348.141 71.7218 351.266 68.4232 Q354.391 65.1594 354.391 58.5275 L354.391 55.3678 Q352.412 58.8052 349.322 60.5066 Q346.231 62.208 341.926 62.208 Q334.773 62.208 330.398 56.7566 Q326.023 51.3053 326.023 42.3123 Q326.023 33.2845 330.398 27.8332 Q334.773 22.3818 341.926 22.3818 Q346.231 22.3818 349.322 24.0832 Q352.412 25.7846 354.391 29.2221 L354.391 23.3193 L360.78 23.3193 L360.78 57.3816 Z" fill="#000000" fill-rule="nonzero" fill-opacity="1" /><path clip-path="url(#clip510)" d="M406.266 38.7359 L406.266 62.208 L399.877 62.208 L399.877 38.9442 Q399.877 33.4234 397.724 30.6804 Q395.571 27.9374 391.266 27.9374 Q386.092 27.9374 383.106 31.2359 Q380.12 34.5345 380.12 40.229 L380.12 62.208 L373.696 62.208 L373.696 8.18051 L380.12 8.18051 L380.12 29.361 Q382.412 25.854 385.502 24.1179 Q388.627 22.3818 392.689 22.3818 Q399.391 22.3818 402.828 26.5485 Q406.266 30.6804 406.266 38.7359 Z" fill="#000000" fill-rule="nonzero" fill-opacity="1" /><path clip-path="url(#clip510)" d="M425.328 12.2777 L425.328 23.3193 L438.488 23.3193 L438.488 28.2846 L425.328 28.2846 L425.328 49.3956 Q425.328 54.1525 426.613 55.5066 Q427.932 56.8608 431.925 56.8608 L438.488 56.8608 L438.488 62.208 L431.925 62.208 Q424.53 62.208 421.717 59.465 Q418.905 56.6872 418.905 49.3956 L418.905 28.2846 L414.217 28.2846 L414.217 23.3193 L418.905 23.3193 L418.905 12.2777 L425.328 12.2777 Z" fill="#000000" fill-rule="nonzero" fill-opacity="1" /><path clip-path="url(#clip510)" d="M446.891 8.18051 L453.279 8.18051 L453.279 62.208 L446.891 62.208 L446.891 8.18051 Z" fill="#000000" fill-rule="nonzero" fill-opacity="1" /><path clip-path="url(#clip510)" d="M482.828 65.8191 Q480.12 72.7635 477.55 74.8815 Q474.981 76.9996 470.675 76.9996 L465.571 76.9996 L465.571 71.6524 L469.321 71.6524 Q471.96 71.6524 473.418 70.4024 Q474.876 69.1524 476.647 64.4997 L477.793 61.583 L462.064 23.3193 L468.835 23.3193 L480.988 53.7358 L493.14 23.3193 L499.911 23.3193 L482.828 65.8191 Z" fill="#000000" fill-rule="nonzero" fill-opacity="1" /><path clip-path="url(#clip510)" d="M531.612 10.368 L538.626 10.368 L538.626 56.3053 L563.869 56.3053 L563.869 62.208 L531.612 62.208 L531.612 10.368 Z" fill="#000000" fill-rule="nonzero" fill-opacity="1" /><path clip-path="url(#clip510)" d="M602.966 41.1664 L602.966 44.2914 L573.591 44.2914 Q574.008 50.8886 577.55 54.3608 Q581.126 57.7983 587.48 57.7983 Q591.161 57.7983 594.598 56.8955 Q598.07 55.9928 601.473 54.1872 L601.473 60.2288 Q598.036 61.6872 594.424 62.4511 Q590.813 63.2149 587.098 63.2149 Q577.793 63.2149 572.341 57.7983 Q566.925 52.3817 566.925 43.1456 Q566.925 33.597 572.063 28.0068 Q577.237 22.3818 585.987 22.3818 Q593.834 22.3818 598.383 27.4512 Q602.966 32.4859 602.966 41.1664 M596.577 39.2915 Q596.508 34.0484 593.626 30.9234 Q590.779 27.7985 586.056 27.7985 Q580.709 27.7985 577.48 30.8193 Q574.286 33.8401 573.8 39.3262 L596.577 39.2915 Z" fill="#000000" fill-rule="nonzero" fill-opacity="1" /><path clip-path="url(#clip510)" d="M638.244 24.4651 L638.244 30.5068 Q635.535 29.1179 632.619 28.4235 Q629.702 27.729 626.577 27.729 Q621.82 27.729 619.424 29.1873 Q617.063 30.6457 617.063 33.5623 Q617.063 35.7845 618.765 37.0692 Q620.466 38.3192 625.605 39.4651 L627.792 39.9512 Q634.598 41.4095 637.445 44.0831 Q640.327 46.722 640.327 51.4789 Q640.327 56.8955 636.021 60.0552 Q631.751 63.2149 624.251 63.2149 Q621.126 63.2149 617.723 62.5899 Q614.355 61.9997 610.605 60.7844 L610.605 54.1872 Q614.147 56.0275 617.584 56.965 Q621.022 57.8677 624.39 57.8677 Q628.903 57.8677 631.334 56.34 Q633.765 54.7775 633.765 51.965 Q633.765 49.3608 631.994 47.972 Q630.258 46.5831 624.32 45.2984 L622.098 44.7775 Q616.16 43.5275 613.522 40.9581 Q610.883 38.354 610.883 33.8401 Q610.883 28.354 614.772 25.3679 Q618.66 22.3818 625.813 22.3818 Q629.355 22.3818 632.48 22.9027 Q635.605 23.4235 638.244 24.4651 Z" fill="#000000" fill-rule="nonzero" fill-opacity="1" /><path clip-path="url(#clip510)" d="M675.292 24.4651 L675.292 30.5068 Q672.584 29.1179 669.667 28.4235 Q666.75 27.729 663.625 27.729 Q658.869 27.729 656.473 29.1873 Q654.112 30.6457 654.112 33.5623 Q654.112 35.7845 655.813 37.0692 Q657.514 38.3192 662.653 39.4651 L664.841 39.9512 Q671.646 41.4095 674.493 44.0831 Q677.375 46.722 677.375 51.4789 Q677.375 56.8955 673.07 60.0552 Q668.799 63.2149 661.299 63.2149 Q658.174 63.2149 654.771 62.5899 Q651.403 61.9997 647.653 60.7844 L647.653 54.1872 Q651.195 56.0275 654.632 56.965 Q658.07 57.8677 661.438 57.8677 Q665.952 57.8677 668.382 56.34 Q670.813 54.7775 670.813 51.965 Q670.813 49.3608 669.042 47.972 Q667.306 46.5831 661.369 45.2984 L659.146 44.7775 Q653.209 43.5275 650.57 40.9581 Q647.931 38.354 647.931 33.8401 Q647.931 28.354 651.82 25.3679 Q655.709 22.3818 662.862 22.3818 Q666.403 22.3818 669.528 22.9027 Q672.653 23.4235 675.292 24.4651 Z" fill="#000000" fill-rule="nonzero" fill-opacity="1" /><path clip-path="url(#clip510)" d="M710.431 10.368 L719.875 10.368 L742.861 53.7358 L742.861 10.368 L749.667 10.368 L749.667 62.208 L740.222 62.208 L717.236 18.8402 L717.236 62.208 L710.431 62.208 L710.431 10.368 Z" fill="#000000" fill-rule="nonzero" fill-opacity="1" /><path clip-path="url(#clip510)" d="M778.417 27.7985 Q773.278 27.7985 770.292 31.8262 Q767.305 35.8193 767.305 42.7984 Q767.305 49.7775 770.257 53.8053 Q773.243 57.7983 778.417 57.7983 Q783.521 57.7983 786.507 53.7705 Q789.493 49.7428 789.493 42.7984 Q789.493 35.8887 786.507 31.8609 Q783.521 27.7985 778.417 27.7985 M778.417 22.3818 Q786.75 22.3818 791.507 27.7985 Q796.264 33.2151 796.264 42.7984 Q796.264 52.3469 791.507 57.7983 Q786.75 63.2149 778.417 63.2149 Q770.049 63.2149 765.292 57.7983 Q760.569 52.3469 760.569 42.7984 Q760.569 33.2151 765.292 27.7985 Q770.049 22.3818 778.417 22.3818 Z" fill="#000000" fill-rule="nonzero" fill-opacity="1" /><path clip-path="url(#clip510)" d="M806.854 23.3193 L813.243 23.3193 L813.243 62.208 L806.854 62.208 L806.854 23.3193 M806.854 8.18051 L813.243 8.18051 L813.243 16.2707 L806.854 16.2707 L806.854 8.18051 Z" fill="#000000" fill-rule="nonzero" fill-opacity="1" /><path clip-path="url(#clip510)" d="M851.402 24.4651 L851.402 30.5068 Q848.694 29.1179 845.777 28.4235 Q842.861 27.729 839.736 27.729 Q834.979 27.729 832.583 29.1873 Q830.222 30.6457 830.222 33.5623 Q830.222 35.7845 831.923 37.0692 Q833.625 38.3192 838.763 39.4651 L840.951 39.9512 Q847.756 41.4095 850.604 44.0831 Q853.486 46.722 853.486 51.4789 Q853.486 56.8955 849.18 60.0552 Q844.909 63.2149 837.409 63.2149 Q834.284 63.2149 830.882 62.5899 Q827.513 61.9997 823.763 60.7844 L823.763 54.1872 Q827.305 56.0275 830.743 56.965 Q834.18 57.8677 837.548 57.8677 Q842.062 57.8677 844.493 56.34 Q846.923 54.7775 846.923 51.965 Q846.923 49.3608 845.152 47.972 Q843.416 46.5831 837.479 45.2984 L835.256 44.7775 Q829.319 43.5275 826.68 40.9581 Q824.041 38.354 824.041 33.8401 Q824.041 28.354 827.93 25.3679 Q831.819 22.3818 838.972 22.3818 Q842.513 22.3818 845.638 22.9027 Q848.763 23.4235 851.402 24.4651 Z" fill="#000000" fill-rule="nonzero" fill-opacity="1" /><path clip-path="url(#clip510)" d="M896.923 41.1664 L896.923 44.2914 L867.548 44.2914 Q867.965 50.8886 871.506 54.3608 Q875.083 57.7983 881.437 57.7983 Q885.117 57.7983 888.555 56.8955 Q892.027 55.9928 895.43 54.1872 L895.43 60.2288 Q891.992 61.6872 888.381 62.4511 Q884.77 63.2149 881.055 63.2149 Q871.749 63.2149 866.298 57.7983 Q860.881 52.3817 860.881 43.1456 Q860.881 33.597 866.02 28.0068 Q871.194 22.3818 879.944 22.3818 Q887.791 22.3818 892.34 27.4512 Q896.923 32.4859 896.923 41.1664 M890.534 39.2915 Q890.465 34.0484 887.583 30.9234 Q884.735 27.7985 880.013 27.7985 Q874.666 27.7985 871.437 30.8193 Q868.242 33.8401 867.756 39.3262 L890.534 39.2915 Z" fill="#000000" fill-rule="nonzero" fill-opacity="1" /><circle clip-path="url(#clip512)" cx="301.869" cy="787.168" r="14.4" fill="#009af9" fill-rule="evenodd" fill-opacity="0.3" stroke="#000000" stroke-opacity="0.3" stroke-width="3.2"/>
<circle clip-path="url(#clip512)" cx="311.875" cy="680.369" r="14.4" fill="#009af9" fill-rule="evenodd" fill-opacity="0.3" stroke="#000000" stroke-opacity="0.3" stroke-width="3.2"/>
<circle clip-path="url(#clip512)" cx="321.881" cy="748.868" r="14.4" fill="#009af9" fill-rule="evenodd" fill-opacity="0.3" stroke="#000000" stroke-opacity="0.3" stroke-width="3.2"/>
<circle clip-path="url(#clip512)" cx="331.887" cy="732.905" r="14.4" fill="#009af9" fill-rule="evenodd" fill-opacity="0.3" stroke="#000000" stroke-opacity="0.3" stroke-width="3.2"/>
<circle clip-path="url(#clip512)" cx="341.892" cy="550.492" r="14.4" fill="#009af9" fill-rule="evenodd" fill-opacity="0.3" stroke="#000000" stroke-opacity="0.3" stroke-width="3.2"/>
<circle clip-path="url(#clip512)" cx="351.898" cy="585.865" r="14.4" fill="#009af9" fill-rule="evenodd" fill-opacity="0.3" stroke="#000000" stroke-opacity="0.3" stroke-width="3.2"/>
<circle clip-path="url(#clip512)" cx="361.904" cy="769.333" r="14.4" fill="#009af9" fill-rule="evenodd" fill-opacity="0.3" stroke="#000000" stroke-opacity="0.3" stroke-width="3.2"/>
<circle clip-path="url(#clip512)" cx="371.91" cy="845.435" r="14.4" fill="#009af9" fill-rule="evenodd" fill-opacity="0.3" stroke="#000000" stroke-opacity="0.3" stroke-width="3.2"/>
<circle clip-path="url(#clip512)" cx="381.916" cy="927.194" r="14.4" fill="#009af9" fill-rule="evenodd" fill-opacity="0.3" stroke="#000000" stroke-opacity="0.3" stroke-width="3.2"/>
<circle clip-path="url(#clip512)" cx="391.921" cy="593.79" r="14.4" fill="#009af9" fill-rule="evenodd" fill-opacity="0.3" stroke="#000000" stroke-opacity="0.3" stroke-width="3.2"/>
<circle clip-path="url(#clip512)" cx="401.927" cy="709.78" r="14.4" fill="#009af9" fill-rule="evenodd" fill-opacity="0.3" stroke="#000000" stroke-opacity="0.3" stroke-width="3.2"/>
<circle clip-path="url(#clip512)" cx="411.933" cy="450.512" r="14.4" fill="#009af9" fill-rule="evenodd" fill-opacity="0.3" stroke="#000000" stroke-opacity="0.3" stroke-width="3.2"/>
<circle clip-path="url(#clip512)" cx="421.939" cy="499.105" r="14.4" fill="#009af9" fill-rule="evenodd" fill-opacity="0.3" stroke="#000000" stroke-opacity="0.3" stroke-width="3.2"/>
<circle clip-path="url(#clip512)" cx="431.944" cy="611.085" r="14.4" fill="#009af9" fill-rule="evenodd" fill-opacity="0.3" stroke="#000000" stroke-opacity="0.3" stroke-width="3.2"/>
<circle clip-path="url(#clip512)" cx="441.95" cy="465.504" r="14.4" fill="#009af9" fill-rule="evenodd" fill-opacity="0.3" stroke="#000000" stroke-opacity="0.3" stroke-width="3.2"/>
<circle clip-path="url(#clip512)" cx="451.956" cy="318.088" r="14.4" fill="#009af9" fill-rule="evenodd" fill-opacity="0.3" stroke="#000000" stroke-opacity="0.3" stroke-width="3.2"/>
<circle clip-path="url(#clip512)" cx="461.962" cy="537.77" r="14.4" fill="#009af9" fill-rule="evenodd" fill-opacity="0.3" stroke="#000000" stroke-opacity="0.3" stroke-width="3.2"/>
<circle clip-path="url(#clip512)" cx="471.968" cy="704.79" r="14.4" fill="#009af9" fill-rule="evenodd" fill-opacity="0.3" stroke="#000000" stroke-opacity="0.3" stroke-width="3.2"/>
<circle clip-path="url(#clip512)" cx="481.973" cy="555.166" r="14.4" fill="#009af9" fill-rule="evenodd" fill-opacity="0.3" stroke="#000000" stroke-opacity="0.3" stroke-width="3.2"/>
<circle clip-path="url(#clip512)" cx="491.979" cy="517.298" r="14.4" fill="#009af9" fill-rule="evenodd" fill-opacity="0.3" stroke="#000000" stroke-opacity="0.3" stroke-width="3.2"/>
<circle clip-path="url(#clip512)" cx="501.985" cy="702.819" r="14.4" fill="#009af9" fill-rule="evenodd" fill-opacity="0.3" stroke="#000000" stroke-opacity="0.3" stroke-width="3.2"/>
<circle clip-path="url(#clip512)" cx="511.991" cy="710.371" r="14.4" fill="#009af9" fill-rule="evenodd" fill-opacity="0.3" stroke="#000000" stroke-opacity="0.3" stroke-width="3.2"/>
<circle clip-path="url(#clip512)" cx="521.997" cy="297.324" r="14.4" fill="#009af9" fill-rule="evenodd" fill-opacity="0.3" stroke="#000000" stroke-opacity="0.3" stroke-width="3.2"/>
<circle clip-path="url(#clip512)" cx="532.002" cy="151.861" r="14.4" fill="#009af9" fill-rule="evenodd" fill-opacity="0.3" stroke="#000000" stroke-opacity="0.3" stroke-width="3.2"/>
<circle clip-path="url(#clip512)" cx="542.008" cy="262.291" r="14.4" fill="#009af9" fill-rule="evenodd" fill-opacity="0.3" stroke="#000000" stroke-opacity="0.3" stroke-width="3.2"/>
<circle clip-path="url(#clip512)" cx="552.014" cy="389.964" r="14.4" fill="#009af9" fill-rule="evenodd" fill-opacity="0.3" stroke="#000000" stroke-opacity="0.3" stroke-width="3.2"/>
<circle clip-path="url(#clip512)" cx="562.02" cy="353.348" r="14.4" fill="#009af9" fill-rule="evenodd" fill-opacity="0.3" stroke="#000000" stroke-opacity="0.3" stroke-width="3.2"/>
<circle clip-path="url(#clip512)" cx="572.026" cy="446.252" r="14.4" fill="#009af9" fill-rule="evenodd" fill-opacity="0.3" stroke="#000000" stroke-opacity="0.3" stroke-width="3.2"/>
<circle clip-path="url(#clip512)" cx="582.031" cy="327.325" r="14.4" fill="#009af9" fill-rule="evenodd" fill-opacity="0.3" stroke="#000000" stroke-opacity="0.3" stroke-width="3.2"/>
<circle clip-path="url(#clip512)" cx="592.037" cy="396.064" r="14.4" fill="#009af9" fill-rule="evenodd" fill-opacity="0.3" stroke="#000000" stroke-opacity="0.3" stroke-width="3.2"/>
<circle clip-path="url(#clip512)" cx="602.043" cy="473.598" r="14.4" fill="#009af9" fill-rule="evenodd" fill-opacity="0.3" stroke="#000000" stroke-opacity="0.3" stroke-width="3.2"/>
<circle clip-path="url(#clip512)" cx="612.049" cy="338.363" r="14.4" fill="#009af9" fill-rule="evenodd" fill-opacity="0.3" stroke="#000000" stroke-opacity="0.3" stroke-width="3.2"/>
<circle clip-path="url(#clip512)" cx="622.054" cy="225.958" r="14.4" fill="#009af9" fill-rule="evenodd" fill-opacity="0.3" stroke="#000000" stroke-opacity="0.3" stroke-width="3.2"/>
<circle clip-path="url(#clip512)" cx="632.06" cy="399.268" r="14.4" fill="#009af9" fill-rule="evenodd" fill-opacity="0.3" stroke="#000000" stroke-opacity="0.3" stroke-width="3.2"/>
<circle clip-path="url(#clip512)" cx="642.066" cy="583.245" r="14.4" fill="#009af9" fill-rule="evenodd" fill-opacity="0.3" stroke="#000000" stroke-opacity="0.3" stroke-width="3.2"/>
<circle clip-path="url(#clip512)" cx="652.072" cy="600.179" r="14.4" fill="#009af9" fill-rule="evenodd" fill-opacity="0.3" stroke="#000000" stroke-opacity="0.3" stroke-width="3.2"/>
<circle clip-path="url(#clip512)" cx="662.078" cy="451.283" r="14.4" fill="#009af9" fill-rule="evenodd" fill-opacity="0.3" stroke="#000000" stroke-opacity="0.3" stroke-width="3.2"/>
<circle clip-path="url(#clip512)" cx="672.083" cy="565.454" r="14.4" fill="#009af9" fill-rule="evenodd" fill-opacity="0.3" stroke="#000000" stroke-opacity="0.3" stroke-width="3.2"/>
<circle clip-path="url(#clip512)" cx="682.089" cy="681.788" r="14.4" fill="#009af9" fill-rule="evenodd" fill-opacity="0.3" stroke="#000000" stroke-opacity="0.3" stroke-width="3.2"/>
<circle clip-path="url(#clip512)" cx="692.095" cy="708.419" r="14.4" fill="#009af9" fill-rule="evenodd" fill-opacity="0.3" stroke="#000000" stroke-opacity="0.3" stroke-width="3.2"/>
<circle clip-path="url(#clip512)" cx="702.101" cy="554.383" r="14.4" fill="#009af9" fill-rule="evenodd" fill-opacity="0.3" stroke="#000000" stroke-opacity="0.3" stroke-width="3.2"/>
<circle clip-path="url(#clip512)" cx="712.107" cy="555.786" r="14.4" fill="#009af9" fill-rule="evenodd" fill-opacity="0.3" stroke="#000000" stroke-opacity="0.3" stroke-width="3.2"/>
<circle clip-path="url(#clip512)" cx="722.112" cy="314.473" r="14.4" fill="#009af9" fill-rule="evenodd" fill-opacity="0.3" stroke="#000000" stroke-opacity="0.3" stroke-width="3.2"/>
<circle clip-path="url(#clip512)" cx="732.118" cy="655.615" r="14.4" fill="#009af9" fill-rule="evenodd" fill-opacity="0.3" stroke="#000000" stroke-opacity="0.3" stroke-width="3.2"/>
<circle clip-path="url(#clip512)" cx="742.124" cy="670.867" r="14.4" fill="#009af9" fill-rule="evenodd" fill-opacity="0.3" stroke="#000000" stroke-opacity="0.3" stroke-width="3.2"/>
<circle clip-path="url(#clip512)" cx="752.13" cy="781.133" r="14.4" fill="#009af9" fill-rule="evenodd" fill-opacity="0.3" stroke="#000000" stroke-opacity="0.3" stroke-width="3.2"/>
<circle clip-path="url(#clip512)" cx="762.136" cy="808.844" r="14.4" fill="#009af9" fill-rule="evenodd" fill-opacity="0.3" stroke="#000000" stroke-opacity="0.3" stroke-width="3.2"/>
<circle clip-path="url(#clip512)" cx="772.141" cy="719.209" r="14.4" fill="#009af9" fill-rule="evenodd" fill-opacity="0.3" stroke="#000000" stroke-opacity="0.3" stroke-width="3.2"/>
<circle clip-path="url(#clip512)" cx="782.147" cy="854.071" r="14.4" fill="#009af9" fill-rule="evenodd" fill-opacity="0.3" stroke="#000000" stroke-opacity="0.3" stroke-width="3.2"/>
<circle clip-path="url(#clip512)" cx="792.153" cy="950.093" r="14.4" fill="#009af9" fill-rule="evenodd" fill-opacity="0.3" stroke="#000000" stroke-opacity="0.3" stroke-width="3.2"/>
<circle clip-path="url(#clip512)" cx="802.159" cy="829.079" r="14.4" fill="#009af9" fill-rule="evenodd" fill-opacity="0.3" stroke="#000000" stroke-opacity="0.3" stroke-width="3.2"/>
<circle clip-path="url(#clip512)" cx="812.164" cy="658.518" r="14.4" fill="#009af9" fill-rule="evenodd" fill-opacity="0.3" stroke="#000000" stroke-opacity="0.3" stroke-width="3.2"/>
<circle clip-path="url(#clip512)" cx="822.17" cy="839.253" r="14.4" fill="#009af9" fill-rule="evenodd" fill-opacity="0.3" stroke="#000000" stroke-opacity="0.3" stroke-width="3.2"/>
<circle clip-path="url(#clip512)" cx="832.176" cy="636.164" r="14.4" fill="#009af9" fill-rule="evenodd" fill-opacity="0.3" stroke="#000000" stroke-opacity="0.3" stroke-width="3.2"/>
<circle clip-path="url(#clip512)" cx="842.182" cy="749.84" r="14.4" fill="#009af9" fill-rule="evenodd" fill-opacity="0.3" stroke="#000000" stroke-opacity="0.3" stroke-width="3.2"/>
<circle clip-path="url(#clip512)" cx="852.188" cy="757.754" r="14.4" fill="#009af9" fill-rule="evenodd" fill-opacity="0.3" stroke="#000000" stroke-opacity="0.3" stroke-width="3.2"/>
<circle clip-path="url(#clip512)" cx="862.193" cy="1085.3" r="14.4" fill="#009af9" fill-rule="evenodd" fill-opacity="0.3" stroke="#000000" stroke-opacity="0.3" stroke-width="3.2"/>
<circle clip-path="url(#clip512)" cx="872.199" cy="977.06" r="14.4" fill="#009af9" fill-rule="evenodd" fill-opacity="0.3" stroke="#000000" stroke-opacity="0.3" stroke-width="3.2"/>
<circle clip-path="url(#clip512)" cx="882.205" cy="661.898" r="14.4" fill="#009af9" fill-rule="evenodd" fill-opacity="0.3" stroke="#000000" stroke-opacity="0.3" stroke-width="3.2"/>
<circle clip-path="url(#clip512)" cx="892.211" cy="866.02" r="14.4" fill="#009af9" fill-rule="evenodd" fill-opacity="0.3" stroke="#000000" stroke-opacity="0.3" stroke-width="3.2"/>
<circle clip-path="url(#clip512)" cx="902.217" cy="700.627" r="14.4" fill="#009af9" fill-rule="evenodd" fill-opacity="0.3" stroke="#000000" stroke-opacity="0.3" stroke-width="3.2"/>
<circle clip-path="url(#clip512)" cx="912.222" cy="701.046" r="14.4" fill="#009af9" fill-rule="evenodd" fill-opacity="0.3" stroke="#000000" stroke-opacity="0.3" stroke-width="3.2"/>
<circle clip-path="url(#clip512)" cx="922.228" cy="971.197" r="14.4" fill="#009af9" fill-rule="evenodd" fill-opacity="0.3" stroke="#000000" stroke-opacity="0.3" stroke-width="3.2"/>
<circle clip-path="url(#clip512)" cx="932.234" cy="1180.69" r="14.4" fill="#009af9" fill-rule="evenodd" fill-opacity="0.3" stroke="#000000" stroke-opacity="0.3" stroke-width="3.2"/>
<circle clip-path="url(#clip512)" cx="942.24" cy="784.749" r="14.4" fill="#009af9" fill-rule="evenodd" fill-opacity="0.3" stroke="#000000" stroke-opacity="0.3" stroke-width="3.2"/>
<circle clip-path="url(#clip512)" cx="952.246" cy="1110.12" r="14.4" fill="#009af9" fill-rule="evenodd" fill-opacity="0.3" stroke="#000000" stroke-opacity="0.3" stroke-width="3.2"/>
<circle clip-path="url(#clip512)" cx="962.251" cy="864.362" r="14.4" fill="#009af9" fill-rule="evenodd" fill-opacity="0.3" stroke="#000000" stroke-opacity="0.3" stroke-width="3.2"/>
<circle clip-path="url(#clip512)" cx="972.257" cy="1267.42" r="14.4" fill="#009af9" fill-rule="evenodd" fill-opacity="0.3" stroke="#000000" stroke-opacity="0.3" stroke-width="3.2"/>
<circle clip-path="url(#clip512)" cx="982.263" cy="1031.91" r="14.4" fill="#009af9" fill-rule="evenodd" fill-opacity="0.3" stroke="#000000" stroke-opacity="0.3" stroke-width="3.2"/>
<circle clip-path="url(#clip512)" cx="992.269" cy="1045.7" r="14.4" fill="#009af9" fill-rule="evenodd" fill-opacity="0.3" stroke="#000000" stroke-opacity="0.3" stroke-width="3.2"/>
<circle clip-path="url(#clip512)" cx="1002.27" cy="1125.79" r="14.4" fill="#009af9" fill-rule="evenodd" fill-opacity="0.3" stroke="#000000" stroke-opacity="0.3" stroke-width="3.2"/>
<circle clip-path="url(#clip512)" cx="1012.28" cy="796.342" r="14.4" fill="#009af9" fill-rule="evenodd" fill-opacity="0.3" stroke="#000000" stroke-opacity="0.3" stroke-width="3.2"/>
<circle clip-path="url(#clip512)" cx="1022.29" cy="839.132" r="14.4" fill="#009af9" fill-rule="evenodd" fill-opacity="0.3" stroke="#000000" stroke-opacity="0.3" stroke-width="3.2"/>
<circle clip-path="url(#clip512)" cx="1032.29" cy="983.866" r="14.4" fill="#009af9" fill-rule="evenodd" fill-opacity="0.3" stroke="#000000" stroke-opacity="0.3" stroke-width="3.2"/>
<circle clip-path="url(#clip512)" cx="1042.3" cy="1112.42" r="14.4" fill="#009af9" fill-rule="evenodd" fill-opacity="0.3" stroke="#000000" stroke-opacity="0.3" stroke-width="3.2"/>
<circle clip-path="url(#clip512)" cx="1052.3" cy="844.708" r="14.4" fill="#009af9" fill-rule="evenodd" fill-opacity="0.3" stroke="#000000" stroke-opacity="0.3" stroke-width="3.2"/>
<circle clip-path="url(#clip512)" cx="1062.31" cy="1216.08" r="14.4" fill="#009af9" fill-rule="evenodd" fill-opacity="0.3" stroke="#000000" stroke-opacity="0.3" stroke-width="3.2"/>
<circle clip-path="url(#clip512)" cx="1072.32" cy="1044.97" r="14.4" fill="#009af9" fill-rule="evenodd" fill-opacity="0.3" stroke="#000000" stroke-opacity="0.3" stroke-width="3.2"/>
<circle clip-path="url(#clip512)" cx="1082.32" cy="968.16" r="14.4" fill="#009af9" fill-rule="evenodd" fill-opacity="0.3" stroke="#000000" stroke-opacity="0.3" stroke-width="3.2"/>
<circle clip-path="url(#clip512)" cx="1092.33" cy="1088.52" r="14.4" fill="#009af9" fill-rule="evenodd" fill-opacity="0.3" stroke="#000000" stroke-opacity="0.3" stroke-width="3.2"/>
<circle clip-path="url(#clip512)" cx="1102.33" cy="910.974" r="14.4" fill="#009af9" fill-rule="evenodd" fill-opacity="0.3" stroke="#000000" stroke-opacity="0.3" stroke-width="3.2"/>
<circle clip-path="url(#clip512)" cx="1112.34" cy="1168.94" r="14.4" fill="#009af9" fill-rule="evenodd" fill-opacity="0.3" stroke="#000000" stroke-opacity="0.3" stroke-width="3.2"/>
<circle clip-path="url(#clip512)" cx="1122.34" cy="1137.18" r="14.4" fill="#009af9" fill-rule="evenodd" fill-opacity="0.3" stroke="#000000" stroke-opacity="0.3" stroke-width="3.2"/>
<circle clip-path="url(#clip512)" cx="1132.35" cy="965.235" r="14.4" fill="#009af9" fill-rule="evenodd" fill-opacity="0.3" stroke="#000000" stroke-opacity="0.3" stroke-width="3.2"/>
<circle clip-path="url(#clip512)" cx="1142.36" cy="1054.85" r="14.4" fill="#009af9" fill-rule="evenodd" fill-opacity="0.3" stroke="#000000" stroke-opacity="0.3" stroke-width="3.2"/>
<circle clip-path="url(#clip512)" cx="1152.36" cy="989.761" r="14.4" fill="#009af9" fill-rule="evenodd" fill-opacity="0.3" stroke="#000000" stroke-opacity="0.3" stroke-width="3.2"/>
<circle clip-path="url(#clip512)" cx="1162.37" cy="1175.4" r="14.4" fill="#009af9" fill-rule="evenodd" fill-opacity="0.3" stroke="#000000" stroke-opacity="0.3" stroke-width="3.2"/>
<circle clip-path="url(#clip512)" cx="1172.37" cy="826.122" r="14.4" fill="#009af9" fill-rule="evenodd" fill-opacity="0.3" stroke="#000000" stroke-opacity="0.3" stroke-width="3.2"/>
<circle clip-path="url(#clip512)" cx="1182.38" cy="955.433" r="14.4" fill="#009af9" fill-rule="evenodd" fill-opacity="0.3" stroke="#000000" stroke-opacity="0.3" stroke-width="3.2"/>
<circle clip-path="url(#clip512)" cx="1192.38" cy="922.584" r="14.4" fill="#009af9" fill-rule="evenodd" fill-opacity="0.3" stroke="#000000" stroke-opacity="0.3" stroke-width="3.2"/>
<circle clip-path="url(#clip512)" cx="1202.39" cy="721.295" r="14.4" fill="#009af9" fill-rule="evenodd" fill-opacity="0.3" stroke="#000000" stroke-opacity="0.3" stroke-width="3.2"/>
<circle clip-path="url(#clip512)" cx="1212.4" cy="859.798" r="14.4" fill="#009af9" fill-rule="evenodd" fill-opacity="0.3" stroke="#000000" stroke-opacity="0.3" stroke-width="3.2"/>
<circle clip-path="url(#clip512)" cx="1222.4" cy="1068.53" r="14.4" fill="#009af9" fill-rule="evenodd" fill-opacity="0.3" stroke="#000000" stroke-opacity="0.3" stroke-width="3.2"/>
<circle clip-path="url(#clip512)" cx="1232.41" cy="792.916" r="14.4" fill="#009af9" fill-rule="evenodd" fill-opacity="0.3" stroke="#000000" stroke-opacity="0.3" stroke-width="3.2"/>
<circle clip-path="url(#clip512)" cx="1242.41" cy="974.743" r="14.4" fill="#009af9" fill-rule="evenodd" fill-opacity="0.3" stroke="#000000" stroke-opacity="0.3" stroke-width="3.2"/>
<circle clip-path="url(#clip512)" cx="1252.42" cy="648.898" r="14.4" fill="#009af9" fill-rule="evenodd" fill-opacity="0.3" stroke="#000000" stroke-opacity="0.3" stroke-width="3.2"/>
<circle clip-path="url(#clip512)" cx="1262.43" cy="680.194" r="14.4" fill="#009af9" fill-rule="evenodd" fill-opacity="0.3" stroke="#000000" stroke-opacity="0.3" stroke-width="3.2"/>
<circle clip-path="url(#clip512)" cx="1272.43" cy="645.491" r="14.4" fill="#009af9" fill-rule="evenodd" fill-opacity="0.3" stroke="#000000" stroke-opacity="0.3" stroke-width="3.2"/>
<circle clip-path="url(#clip512)" cx="1282.44" cy="702.068" r="14.4" fill="#009af9" fill-rule="evenodd" fill-opacity="0.3" stroke="#000000" stroke-opacity="0.3" stroke-width="3.2"/>
<circle clip-path="url(#clip512)" cx="1292.44" cy="747.996" r="14.4" fill="#009af9" fill-rule="evenodd" fill-opacity="0.3" stroke="#000000" stroke-opacity="0.3" stroke-width="3.2"/>
<circle clip-path="url(#clip512)" cx="1302.45" cy="472.207" r="14.4" fill="#009af9" fill-rule="evenodd" fill-opacity="0.3" stroke="#000000" stroke-opacity="0.3" stroke-width="3.2"/>
<circle clip-path="url(#clip512)" cx="1312.45" cy="862.796" r="14.4" fill="#009af9" fill-rule="evenodd" fill-opacity="0.3" stroke="#000000" stroke-opacity="0.3" stroke-width="3.2"/>
<circle clip-path="url(#clip512)" cx="1322.46" cy="715.852" r="14.4" fill="#009af9" fill-rule="evenodd" fill-opacity="0.3" stroke="#000000" stroke-opacity="0.3" stroke-width="3.2"/>
<circle clip-path="url(#clip512)" cx="1332.47" cy="920.347" r="14.4" fill="#009af9" fill-rule="evenodd" fill-opacity="0.3" stroke="#000000" stroke-opacity="0.3" stroke-width="3.2"/>
<circle clip-path="url(#clip512)" cx="1342.47" cy="673.226" r="14.4" fill="#009af9" fill-rule="evenodd" fill-opacity="0.3" stroke="#000000" stroke-opacity="0.3" stroke-width="3.2"/>
<circle clip-path="url(#clip512)" cx="1352.48" cy="617.387" r="14.4" fill="#009af9" fill-rule="evenodd" fill-opacity="0.3" stroke="#000000" stroke-opacity="0.3" stroke-width="3.2"/>
<circle clip-path="url(#clip512)" cx="1362.48" cy="407.9" r="14.4" fill="#009af9" fill-rule="evenodd" fill-opacity="0.3" stroke="#000000" stroke-opacity="0.3" stroke-width="3.2"/>
<circle clip-path="url(#clip512)" cx="1372.49" cy="579.894" r="14.4" fill="#009af9" fill-rule="evenodd" fill-opacity="0.3" stroke="#000000" stroke-opacity="0.3" stroke-width="3.2"/>
<circle clip-path="url(#clip512)" cx="1382.49" cy="350.543" r="14.4" fill="#009af9" fill-rule="evenodd" fill-opacity="0.3" stroke="#000000" stroke-opacity="0.3" stroke-width="3.2"/>
<circle clip-path="url(#clip512)" cx="1392.5" cy="724.035" r="14.4" fill="#009af9" fill-rule="evenodd" fill-opacity="0.3" stroke="#000000" stroke-opacity="0.3" stroke-width="3.2"/>
<circle clip-path="url(#clip512)" cx="1402.51" cy="644.649" r="14.4" fill="#009af9" fill-rule="evenodd" fill-opacity="0.3" stroke="#000000" stroke-opacity="0.3" stroke-width="3.2"/>
<circle clip-path="url(#clip512)" cx="1412.51" cy="609.629" r="14.4" fill="#009af9" fill-rule="evenodd" fill-opacity="0.3" stroke="#000000" stroke-opacity="0.3" stroke-width="3.2"/>
<circle clip-path="url(#clip512)" cx="1422.52" cy="681.695" r="14.4" fill="#009af9" fill-rule="evenodd" fill-opacity="0.3" stroke="#000000" stroke-opacity="0.3" stroke-width="3.2"/>
<circle clip-path="url(#clip512)" cx="1432.52" cy="405.583" r="14.4" fill="#009af9" fill-rule="evenodd" fill-opacity="0.3" stroke="#000000" stroke-opacity="0.3" stroke-width="3.2"/>
<circle clip-path="url(#clip512)" cx="1442.53" cy="352.894" r="14.4" fill="#009af9" fill-rule="evenodd" fill-opacity="0.3" stroke="#000000" stroke-opacity="0.3" stroke-width="3.2"/>
<circle clip-path="url(#clip512)" cx="1452.54" cy="437.896" r="14.4" fill="#009af9" fill-rule="evenodd" fill-opacity="0.3" stroke="#000000" stroke-opacity="0.3" stroke-width="3.2"/>
<circle clip-path="url(#clip512)" cx="1462.54" cy="570.457" r="14.4" fill="#009af9" fill-rule="evenodd" fill-opacity="0.3" stroke="#000000" stroke-opacity="0.3" stroke-width="3.2"/>
<circle clip-path="url(#clip512)" cx="1472.55" cy="788.626" r="14.4" fill="#009af9" fill-rule="evenodd" fill-opacity="0.3" stroke="#000000" stroke-opacity="0.3" stroke-width="3.2"/>
<circle clip-path="url(#clip512)" cx="1482.55" cy="773.877" r="14.4" fill="#009af9" fill-rule="evenodd" fill-opacity="0.3" stroke="#000000" stroke-opacity="0.3" stroke-width="3.2"/>
<circle clip-path="url(#clip512)" cx="1492.56" cy="545.065" r="14.4" fill="#009af9" fill-rule="evenodd" fill-opacity="0.3" stroke="#000000" stroke-opacity="0.3" stroke-width="3.2"/>
<circle clip-path="url(#clip512)" cx="1502.56" cy="417.907" r="14.4" fill="#009af9" fill-rule="evenodd" fill-opacity="0.3" stroke="#000000" stroke-opacity="0.3" stroke-width="3.2"/>
<circle clip-path="url(#clip512)" cx="1512.57" cy="444.817" r="14.4" fill="#009af9" fill-rule="evenodd" fill-opacity="0.3" stroke="#000000" stroke-opacity="0.3" stroke-width="3.2"/>
<circle clip-path="url(#clip512)" cx="1522.58" cy="524.087" r="14.4" fill="#009af9" fill-rule="evenodd" fill-opacity="0.3" stroke="#000000" stroke-opacity="0.3" stroke-width="3.2"/>
<circle clip-path="url(#clip512)" cx="1532.58" cy="634.792" r="14.4" fill="#009af9" fill-rule="evenodd" fill-opacity="0.3" stroke="#000000" stroke-opacity="0.3" stroke-width="3.2"/>
<circle clip-path="url(#clip512)" cx="1542.59" cy="456.752" r="14.4" fill="#009af9" fill-rule="evenodd" fill-opacity="0.3" stroke="#000000" stroke-opacity="0.3" stroke-width="3.2"/>
<circle clip-path="url(#clip512)" cx="1552.59" cy="466.027" r="14.4" fill="#009af9" fill-rule="evenodd" fill-opacity="0.3" stroke="#000000" stroke-opacity="0.3" stroke-width="3.2"/>
<circle clip-path="url(#clip512)" cx="1562.6" cy="469.778" r="14.4" fill="#009af9" fill-rule="evenodd" fill-opacity="0.3" stroke="#000000" stroke-opacity="0.3" stroke-width="3.2"/>
<circle clip-path="url(#clip512)" cx="1572.6" cy="511.134" r="14.4" fill="#009af9" fill-rule="evenodd" fill-opacity="0.3" stroke="#000000" stroke-opacity="0.3" stroke-width="3.2"/>
<circle clip-path="url(#clip512)" cx="1582.61" cy="426.55" r="14.4" fill="#009af9" fill-rule="evenodd" fill-opacity="0.3" stroke="#000000" stroke-opacity="0.3" stroke-width="3.2"/>
<circle clip-path="url(#clip512)" cx="1592.62" cy="541.311" r="14.4" fill="#009af9" fill-rule="evenodd" fill-opacity="0.3" stroke="#000000" stroke-opacity="0.3" stroke-width="3.2"/>
<circle clip-path="url(#clip512)" cx="1602.62" cy="380.204" r="14.4" fill="#009af9" fill-rule="evenodd" fill-opacity="0.3" stroke="#000000" stroke-opacity="0.3" stroke-width="3.2"/>
<circle clip-path="url(#clip512)" cx="1612.63" cy="465.52" r="14.4" fill="#009af9" fill-rule="evenodd" fill-opacity="0.3" stroke="#000000" stroke-opacity="0.3" stroke-width="3.2"/>
<circle clip-path="url(#clip512)" cx="1622.63" cy="615.981" r="14.4" fill="#009af9" fill-rule="evenodd" fill-opacity="0.3" stroke="#000000" stroke-opacity="0.3" stroke-width="3.2"/>
<circle clip-path="url(#clip512)" cx="1632.64" cy="749.629" r="14.4" fill="#009af9" fill-rule="evenodd" fill-opacity="0.3" stroke="#000000" stroke-opacity="0.3" stroke-width="3.2"/>
<circle clip-path="url(#clip512)" cx="1642.65" cy="656.219" r="14.4" fill="#009af9" fill-rule="evenodd" fill-opacity="0.3" stroke="#000000" stroke-opacity="0.3" stroke-width="3.2"/>
<circle clip-path="url(#clip512)" cx="1652.65" cy="457.715" r="14.4" fill="#009af9" fill-rule="evenodd" fill-opacity="0.3" stroke="#000000" stroke-opacity="0.3" stroke-width="3.2"/>
<circle clip-path="url(#clip512)" cx="1662.66" cy="713.474" r="14.4" fill="#009af9" fill-rule="evenodd" fill-opacity="0.3" stroke="#000000" stroke-opacity="0.3" stroke-width="3.2"/>
<circle clip-path="url(#clip512)" cx="1672.66" cy="346.881" r="14.4" fill="#009af9" fill-rule="evenodd" fill-opacity="0.3" stroke="#000000" stroke-opacity="0.3" stroke-width="3.2"/>
<circle clip-path="url(#clip512)" cx="1682.67" cy="700.086" r="14.4" fill="#009af9" fill-rule="evenodd" fill-opacity="0.3" stroke="#000000" stroke-opacity="0.3" stroke-width="3.2"/>
<circle clip-path="url(#clip512)" cx="1692.67" cy="644.875" r="14.4" fill="#009af9" fill-rule="evenodd" fill-opacity="0.3" stroke="#000000" stroke-opacity="0.3" stroke-width="3.2"/>
<circle clip-path="url(#clip512)" cx="1702.68" cy="582.965" r="14.4" fill="#009af9" fill-rule="evenodd" fill-opacity="0.3" stroke="#000000" stroke-opacity="0.3" stroke-width="3.2"/>
<circle clip-path="url(#clip512)" cx="1712.69" cy="658.866" r="14.4" fill="#009af9" fill-rule="evenodd" fill-opacity="0.3" stroke="#000000" stroke-opacity="0.3" stroke-width="3.2"/>
<circle clip-path="url(#clip512)" cx="1722.69" cy="398.583" r="14.4" fill="#009af9" fill-rule="evenodd" fill-opacity="0.3" stroke="#000000" stroke-opacity="0.3" stroke-width="3.2"/>
<circle clip-path="url(#clip512)" cx="1732.7" cy="566.775" r="14.4" fill="#009af9" fill-rule="evenodd" fill-opacity="0.3" stroke="#000000" stroke-opacity="0.3" stroke-width="3.2"/>
<circle clip-path="url(#clip512)" cx="1742.7" cy="601.25" r="14.4" fill="#009af9" fill-rule="evenodd" fill-opacity="0.3" stroke="#000000" stroke-opacity="0.3" stroke-width="3.2"/>
<circle clip-path="url(#clip512)" cx="1752.71" cy="507.656" r="14.4" fill="#009af9" fill-rule="evenodd" fill-opacity="0.3" stroke="#000000" stroke-opacity="0.3" stroke-width="3.2"/>
<circle clip-path="url(#clip512)" cx="1762.71" cy="576.174" r="14.4" fill="#009af9" fill-rule="evenodd" fill-opacity="0.3" stroke="#000000" stroke-opacity="0.3" stroke-width="3.2"/>
<circle clip-path="url(#clip512)" cx="1772.72" cy="758.199" r="14.4" fill="#009af9" fill-rule="evenodd" fill-opacity="0.3" stroke="#000000" stroke-opacity="0.3" stroke-width="3.2"/>
<circle clip-path="url(#clip512)" cx="1782.73" cy="867.504" r="14.4" fill="#009af9" fill-rule="evenodd" fill-opacity="0.3" stroke="#000000" stroke-opacity="0.3" stroke-width="3.2"/>
<circle clip-path="url(#clip512)" cx="1792.73" cy="884.439" r="14.4" fill="#009af9" fill-rule="evenodd" fill-opacity="0.3" stroke="#000000" stroke-opacity="0.3" stroke-width="3.2"/>
<circle clip-path="url(#clip512)" cx="1802.74" cy="721.727" r="14.4" fill="#009af9" fill-rule="evenodd" fill-opacity="0.3" stroke="#000000" stroke-opacity="0.3" stroke-width="3.2"/>
<circle clip-path="url(#clip512)" cx="1812.74" cy="833.258" r="14.4" fill="#009af9" fill-rule="evenodd" fill-opacity="0.3" stroke="#000000" stroke-opacity="0.3" stroke-width="3.2"/>
<circle clip-path="url(#clip512)" cx="1822.75" cy="740.158" r="14.4" fill="#009af9" fill-rule="evenodd" fill-opacity="0.3" stroke="#000000" stroke-opacity="0.3" stroke-width="3.2"/>
<circle clip-path="url(#clip512)" cx="1832.76" cy="953.674" r="14.4" fill="#009af9" fill-rule="evenodd" fill-opacity="0.3" stroke="#000000" stroke-opacity="0.3" stroke-width="3.2"/>
<circle clip-path="url(#clip512)" cx="1842.76" cy="865.966" r="14.4" fill="#009af9" fill-rule="evenodd" fill-opacity="0.3" stroke="#000000" stroke-opacity="0.3" stroke-width="3.2"/>
<circle clip-path="url(#clip512)" cx="1852.77" cy="1029.62" r="14.4" fill="#009af9" fill-rule="evenodd" fill-opacity="0.3" stroke="#000000" stroke-opacity="0.3" stroke-width="3.2"/>
<circle clip-path="url(#clip512)" cx="1862.77" cy="975.172" r="14.4" fill="#009af9" fill-rule="evenodd" fill-opacity="0.3" stroke="#000000" stroke-opacity="0.3" stroke-width="3.2"/>
<circle clip-path="url(#clip512)" cx="1872.78" cy="775.983" r="14.4" fill="#009af9" fill-rule="evenodd" fill-opacity="0.3" stroke="#000000" stroke-opacity="0.3" stroke-width="3.2"/>
<circle clip-path="url(#clip512)" cx="1882.78" cy="678.299" r="14.4" fill="#009af9" fill-rule="evenodd" fill-opacity="0.3" stroke="#000000" stroke-opacity="0.3" stroke-width="3.2"/>
<circle clip-path="url(#clip512)" cx="1892.79" cy="1117.44" r="14.4" fill="#009af9" fill-rule="evenodd" fill-opacity="0.3" stroke="#000000" stroke-opacity="0.3" stroke-width="3.2"/>
<circle clip-path="url(#clip512)" cx="1902.8" cy="760.417" r="14.4" fill="#009af9" fill-rule="evenodd" fill-opacity="0.3" stroke="#000000" stroke-opacity="0.3" stroke-width="3.2"/>
<circle clip-path="url(#clip512)" cx="1912.8" cy="773.573" r="14.4" fill="#009af9" fill-rule="evenodd" fill-opacity="0.3" stroke="#000000" stroke-opacity="0.3" stroke-width="3.2"/>
<circle clip-path="url(#clip512)" cx="1922.81" cy="1040.8" r="14.4" fill="#009af9" fill-rule="evenodd" fill-opacity="0.3" stroke="#000000" stroke-opacity="0.3" stroke-width="3.2"/>
<circle clip-path="url(#clip512)" cx="1932.81" cy="710.885" r="14.4" fill="#009af9" fill-rule="evenodd" fill-opacity="0.3" stroke="#000000" stroke-opacity="0.3" stroke-width="3.2"/>
<circle clip-path="url(#clip512)" cx="1942.82" cy="1064.88" r="14.4" fill="#009af9" fill-rule="evenodd" fill-opacity="0.3" stroke="#000000" stroke-opacity="0.3" stroke-width="3.2"/>
<circle clip-path="url(#clip512)" cx="1952.82" cy="852.255" r="14.4" fill="#009af9" fill-rule="evenodd" fill-opacity="0.3" stroke="#000000" stroke-opacity="0.3" stroke-width="3.2"/>
<circle clip-path="url(#clip512)" cx="1962.83" cy="813.427" r="14.4" fill="#009af9" fill-rule="evenodd" fill-opacity="0.3" stroke="#000000" stroke-opacity="0.3" stroke-width="3.2"/>
<circle clip-path="url(#clip512)" cx="1972.84" cy="1004.05" r="14.4" fill="#009af9" fill-rule="evenodd" fill-opacity="0.3" stroke="#000000" stroke-opacity="0.3" stroke-width="3.2"/>
<circle clip-path="url(#clip512)" cx="1982.84" cy="1120.56" r="14.4" fill="#009af9" fill-rule="evenodd" fill-opacity="0.3" stroke="#000000" stroke-opacity="0.3" stroke-width="3.2"/>
<circle clip-path="url(#clip512)" cx="1992.85" cy="612.953" r="14.4" fill="#009af9" fill-rule="evenodd" fill-opacity="0.3" stroke="#000000" stroke-opacity="0.3" stroke-width="3.2"/>
<circle clip-path="url(#clip512)" cx="2002.85" cy="996.416" r="14.4" fill="#009af9" fill-rule="evenodd" fill-opacity="0.3" stroke="#000000" stroke-opacity="0.3" stroke-width="3.2"/>
<circle clip-path="url(#clip512)" cx="2012.86" cy="842.873" r="14.4" fill="#009af9" fill-rule="evenodd" fill-opacity="0.3" stroke="#000000" stroke-opacity="0.3" stroke-width="3.2"/>
<circle clip-path="url(#clip512)" cx="2022.87" cy="1034.9" r="14.4" fill="#009af9" fill-rule="evenodd" fill-opacity="0.3" stroke="#000000" stroke-opacity="0.3" stroke-width="3.2"/>
<circle clip-path="url(#clip512)" cx="2032.87" cy="997.768" r="14.4" fill="#009af9" fill-rule="evenodd" fill-opacity="0.3" stroke="#000000" stroke-opacity="0.3" stroke-width="3.2"/>
<circle clip-path="url(#clip512)" cx="2042.88" cy="900.368" r="14.4" fill="#009af9" fill-rule="evenodd" fill-opacity="0.3" stroke="#000000" stroke-opacity="0.3" stroke-width="3.2"/>
<circle clip-path="url(#clip512)" cx="2052.88" cy="875.692" r="14.4" fill="#009af9" fill-rule="evenodd" fill-opacity="0.3" stroke="#000000" stroke-opacity="0.3" stroke-width="3.2"/>
<circle clip-path="url(#clip512)" cx="2062.89" cy="1386.15" r="14.4" fill="#009af9" fill-rule="evenodd" fill-opacity="0.3" stroke="#000000" stroke-opacity="0.3" stroke-width="3.2"/>
<circle clip-path="url(#clip512)" cx="2072.89" cy="1050.18" r="14.4" fill="#009af9" fill-rule="evenodd" fill-opacity="0.3" stroke="#000000" stroke-opacity="0.3" stroke-width="3.2"/>
<circle clip-path="url(#clip512)" cx="2082.9" cy="790.798" r="14.4" fill="#009af9" fill-rule="evenodd" fill-opacity="0.3" stroke="#000000" stroke-opacity="0.3" stroke-width="3.2"/>
<circle clip-path="url(#clip512)" cx="2092.91" cy="626.237" r="14.4" fill="#009af9" fill-rule="evenodd" fill-opacity="0.3" stroke="#000000" stroke-opacity="0.3" stroke-width="3.2"/>
<circle clip-path="url(#clip512)" cx="2102.91" cy="921.487" r="14.4" fill="#009af9" fill-rule="evenodd" fill-opacity="0.3" stroke="#000000" stroke-opacity="0.3" stroke-width="3.2"/>
<circle clip-path="url(#clip512)" cx="2112.92" cy="814.91" r="14.4" fill="#009af9" fill-rule="evenodd" fill-opacity="0.3" stroke="#000000" stroke-opacity="0.3" stroke-width="3.2"/>
<circle clip-path="url(#clip512)" cx="2122.92" cy="922.602" r="14.4" fill="#009af9" fill-rule="evenodd" fill-opacity="0.3" stroke="#000000" stroke-opacity="0.3" stroke-width="3.2"/>
<circle clip-path="url(#clip512)" cx="2132.93" cy="757.492" r="14.4" fill="#009af9" fill-rule="evenodd" fill-opacity="0.3" stroke="#000000" stroke-opacity="0.3" stroke-width="3.2"/>
<circle clip-path="url(#clip512)" cx="2142.93" cy="879.194" r="14.4" fill="#009af9" fill-rule="evenodd" fill-opacity="0.3" stroke="#000000" stroke-opacity="0.3" stroke-width="3.2"/>
<circle clip-path="url(#clip512)" cx="2152.94" cy="843.424" r="14.4" fill="#009af9" fill-rule="evenodd" fill-opacity="0.3" stroke="#000000" stroke-opacity="0.3" stroke-width="3.2"/>
<circle clip-path="url(#clip512)" cx="2162.95" cy="859.297" r="14.4" fill="#009af9" fill-rule="evenodd" fill-opacity="0.3" stroke="#000000" stroke-opacity="0.3" stroke-width="3.2"/>
<circle clip-path="url(#clip512)" cx="2172.95" cy="1048.81" r="14.4" fill="#009af9" fill-rule="evenodd" fill-opacity="0.3" stroke="#000000" stroke-opacity="0.3" stroke-width="3.2"/>
<circle clip-path="url(#clip512)" cx="2182.96" cy="782.2" r="14.4" fill="#009af9" fill-rule="evenodd" fill-opacity="0.3" stroke="#000000" stroke-opacity="0.3" stroke-width="3.2"/>
<circle clip-path="url(#clip512)" cx="2192.96" cy="836.954" r="14.4" fill="#009af9" fill-rule="evenodd" fill-opacity="0.3" stroke="#000000" stroke-opacity="0.3" stroke-width="3.2"/>
<circle clip-path="url(#clip512)" cx="2202.97" cy="1171.21" r="14.4" fill="#009af9" fill-rule="evenodd" fill-opacity="0.3" stroke="#000000" stroke-opacity="0.3" stroke-width="3.2"/>
<circle clip-path="url(#clip512)" cx="2212.98" cy="768.843" r="14.4" fill="#009af9" fill-rule="evenodd" fill-opacity="0.3" stroke="#000000" stroke-opacity="0.3" stroke-width="3.2"/>
<circle clip-path="url(#clip512)" cx="2222.98" cy="732.563" r="14.4" fill="#009af9" fill-rule="evenodd" fill-opacity="0.3" stroke="#000000" stroke-opacity="0.3" stroke-width="3.2"/>
<circle clip-path="url(#clip512)" cx="2232.99" cy="989.84" r="14.4" fill="#009af9" fill-rule="evenodd" fill-opacity="0.3" stroke="#000000" stroke-opacity="0.3" stroke-width="3.2"/>
<circle clip-path="url(#clip512)" cx="2242.99" cy="929.702" r="14.4" fill="#009af9" fill-rule="evenodd" fill-opacity="0.3" stroke="#000000" stroke-opacity="0.3" stroke-width="3.2"/>
<circle clip-path="url(#clip512)" cx="2253" cy="914.943" r="14.4" fill="#009af9" fill-rule="evenodd" fill-opacity="0.3" stroke="#000000" stroke-opacity="0.3" stroke-width="3.2"/>
<circle clip-path="url(#clip512)" cx="2263" cy="513" r="14.4" fill="#009af9" fill-rule="evenodd" fill-opacity="0.3" stroke="#000000" stroke-opacity="0.3" stroke-width="3.2"/>
<circle clip-path="url(#clip512)" cx="2273.01" cy="889.573" r="14.4" fill="#009af9" fill-rule="evenodd" fill-opacity="0.3" stroke="#000000" stroke-opacity="0.3" stroke-width="3.2"/>
<circle clip-path="url(#clip512)" cx="2283.02" cy="975.647" r="14.4" fill="#009af9" fill-rule="evenodd" fill-opacity="0.3" stroke="#000000" stroke-opacity="0.3" stroke-width="3.2"/>
<circle clip-path="url(#clip512)" cx="2293.02" cy="762.219" r="14.4" fill="#009af9" fill-rule="evenodd" fill-opacity="0.3" stroke="#000000" stroke-opacity="0.3" stroke-width="3.2"/>
<path clip-path="url(#clip512)" d="M301.869 847.343 L311.875 826.767 L321.881 807.271 L331.887 788.748 L341.892 770.565 L351.898 752.416 L361.904 733.071 L371.91 714.928 L381.916 698.735 L391.921 682.346 L401.927 666.032 L411.933 650.181 L421.939 635.413 L431.944 621.075 L441.95 608.12 L451.956 595.682 L461.962 583.204 L471.968 571.079 L481.973 560.106 L491.979 549.748 L501.985 538.84 L511.991 529.536 L521.997 519.111 L532.002 508.871 L542.008 499.53 L552.014 490.888 L562.02 482.021 L572.026 481.36 L582.031 486.82 L592.037 497.508 L602.043 509.245 L612.049 521.482 L622.054 534.022 L632.06 546.391 L642.066 559.767 L652.072 572.426 L662.078 584.848 L672.083 596.63 L682.089 610.067 L692.095 623.104 L702.101 635.239 L712.107 648.023 L722.112 662.021 L732.118 675.892 L742.124 689.655 L752.13 704.498 L762.136 718.972 L772.141 732.752 L782.147 746.873 L792.153 761.827 L802.159 777.273 L812.164 793.824 L822.17 810.635 L832.176 826.75 L842.182 842.208 L852.188 859.615 L862.193 876.31 L872.199 892.762 L882.205 909.369 L892.211 926.838 L902.217 944.521 L912.222 962.078 L922.228 979.574 L932.234 996.76 L942.24 1014.13 L952.246 1031.52 L962.251 1048.76 L972.257 1065.88 L982.263 1080.41 L992.269 1089.28 L1002.27 1095.17 L1012.28 1101.5 L1022.29 1106.44 L1032.29 1112.94 L1042.3 1116.21 L1052.3 1117.87 L1062.31 1116.61 L1072.32 1113.82 L1082.32 1112.36 L1092.33 1102.83 L1102.33 1087.44 L1112.34 1071.39 L1122.34 1056.01 L1132.35 1039.18 L1142.36 1022.04 L1152.36 1007.24 L1162.37 990.416 L1172.37 973.595 L1182.38 958.051 L1192.38 941.881 L1202.39 926.197 L1212.4 911.106 L1222.4 896.014 L1232.41 881.197 L1242.41 866.525 L1252.42 852.295 L1262.43 837.679 L1272.43 823.917 L1282.44 810.236 L1292.44 796.73 L1302.45 783.312 L1312.45 771.002 L1322.46 758.209 L1332.47 745.436 L1342.47 733.351 L1352.48 721.949 L1362.48 709.887 L1372.49 699.232 L1382.49 687.749 L1392.5 675.906 L1402.51 665.031 L1412.51 654.502 L1422.52 643.707 L1432.52 633.013 L1442.53 622.633 L1452.54 611.769 L1462.54 600.15 L1472.55 589.004 L1482.55 579.91 L1492.56 569.638 L1502.56 560.625 L1512.57 552.812 L1522.58 548.393 L1532.58 548.612 L1542.59 553.377 L1552.59 560.606 L1562.6 568.827 L1572.6 576.589 L1582.61 584.5 L1592.62 592.422 L1602.62 600.235 L1612.63 608.414 L1622.63 617.164 L1632.64 624.911 L1642.65 632.658 L1652.65 641.349 L1662.66 649.244 L1672.66 657.945 L1682.67 667.077 L1692.67 677.533 L1702.68 687.243 L1712.69 696.424 L1722.69 706.801 L1732.7 717.653 L1742.7 728.822 L1752.71 740.762 L1762.71 753.322 L1772.72 766.201 L1782.73 780.471 L1792.73 794.285 L1802.74 808.851 L1812.74 823.449 L1822.75 838.497 L1832.76 853.312 L1842.76 868.248 L1852.77 879.829 L1862.77 891.397 L1872.78 903.757 L1882.78 915.873 L1892.79 924.73 L1902.8 934.059 L1912.8 942.649 L1922.81 951.626 L1932.81 960.954 L1942.82 965.658 L1952.82 974.156 L1962.83 980.022 L1972.84 982.836 L1982.84 987.379 L1992.85 992.427 L2002.85 998.121 L2012.86 1002.43 L2022.87 999.314 L2032.87 1002.47 L2042.88 1003.11 L2052.88 1001.61 L2062.89 997.58 L2072.89 992.902 L2082.9 986.031 L2092.91 979.57 L2102.91 971.792 L2112.92 963.977 L2122.92 957.082 L2132.93 950.472 L2142.93 945.183 L2152.94 939.584 L2162.95 935.596 L2172.95 932.73 L2182.96 929.137 L2192.96 927.98 L2202.97 927.031 L2212.98 926.871 L2222.98 927.487 L2232.99 926.963 L2242.99 925.468 L2253 927.376 L2263 928.316 L2273.01 929.387 L2283.02 931.017 L2293.02 930.882 L2293.02 739.947 L2283.02 749.034 L2273.01 756.716 L2263 764.908 L2253 774.377 L2242.99 783.785 L2232.99 792.035 L2222.98 800.198 L2212.98 807.24 L2202.97 814.352 L2192.96 819.962 L2182.96 826.239 L2172.95 830.547 L2162.95 835.157 L2152.94 840.551 L2142.93 845.823 L2132.93 848.699 L2122.92 851.029 L2112.92 854.12 L2102.91 856.56 L2092.91 857.766 L2082.9 859.374 L2072.89 861.132 L2062.89 861.993 L2052.88 862.318 L2042.88 863.746 L2032.87 864.119 L2022.87 862.76 L2012.86 862.341 L2002.85 862.062 L1992.85 861.063 L1982.84 859.453 L1972.84 857.178 L1962.83 852.446 L1952.82 846.807 L1942.82 840.339 L1932.81 832.863 L1922.81 825.06 L1912.8 816.312 L1902.8 807.705 L1892.79 798.062 L1882.78 789.474 L1872.78 779.837 L1862.77 770.016 L1852.77 759.894 L1842.76 750.523 L1832.76 740.705 L1822.75 730.483 L1812.74 719.262 L1802.74 708.546 L1792.73 697.941 L1782.73 686.854 L1772.72 674.556 L1762.71 662.265 L1752.71 650.565 L1742.7 639.476 L1732.7 627.556 L1722.69 614.027 L1712.69 599.926 L1702.68 587.209 L1692.67 572.61 L1682.67 558.377 L1672.66 543.37 L1662.66 528.611 L1652.65 513.847 L1642.65 498.393 L1632.64 482.693 L1622.63 466.47 L1612.63 451.141 L1602.62 438.379 L1592.62 427.638 L1582.61 417.945 L1572.6 415.019 L1562.6 411.41 L1552.59 410.427 L1542.59 407.847 L1532.58 409.168 L1522.58 411.959 L1512.57 416.544 L1502.56 420.384 L1492.56 428.132 L1482.55 436.283 L1472.55 448.349 L1462.54 455.939 L1452.54 464.395 L1442.53 474.341 L1432.52 485.666 L1422.52 502.32 L1412.51 518.932 L1402.51 535.628 L1392.5 552.738 L1382.49 570.515 L1372.49 586.963 L1362.48 603.239 L1352.48 620.657 L1342.47 636.664 L1332.47 651.958 L1322.46 666.98 L1312.45 681.917 L1302.45 697.099 L1292.44 711.119 L1282.44 725.227 L1272.43 739.301 L1262.43 752.911 L1252.42 766.156 L1242.41 778.668 L1232.41 790.262 L1222.4 802.009 L1212.4 813.489 L1202.39 824.453 L1192.38 835.547 L1182.38 846.243 L1172.37 856.994 L1162.37 866.758 L1152.36 876.91 L1142.36 886.937 L1132.35 897.924 L1122.34 908.343 L1112.34 918.48 L1102.33 928.627 L1092.33 938.857 L1082.32 949.09 L1072.32 959.321 L1062.31 969.553 L1052.3 978.808 L1042.3 983.229 L1032.29 984.122 L1022.29 976.154 L1012.28 965.257 L1002.27 953.428 L992.269 941.49 L982.263 928.986 L972.257 916.626 L962.251 904.242 L952.246 891.917 L942.24 878.257 L932.234 866.129 L922.228 853.777 L912.222 841.764 L902.217 829.735 L892.211 817.274 L882.205 803.596 L872.199 791.082 L862.193 777.55 L852.188 763.958 L842.182 750.125 L832.176 736.857 L822.17 723.205 L812.164 709.249 L802.159 695.45 L792.153 681.161 L782.147 667.061 L772.141 651.975 L762.136 636.799 L752.13 621.849 L742.124 606.084 L732.118 588.637 L722.112 572.88 L712.107 556.492 L702.101 539.139 L692.095 521.872 L682.089 503.92 L672.083 486.907 L662.078 469.139 L652.072 452.252 L642.066 433.891 L632.06 415.868 L622.054 397.645 L612.049 382.918 L602.043 372.515 L592.037 360.476 L582.031 350.385 L572.026 346.493 L562.02 345.645 L552.014 346.975 L542.008 355.694 L532.002 363.492 L521.997 374.995 L511.991 391.95 L501.985 409.198 L491.979 426.271 L481.973 444.555 L471.968 461.159 L461.962 478.164 L451.956 494.184 L441.95 509.046 L431.944 522.783 L421.939 534.313 L411.933 547.252 L401.927 558.721 L391.921 569.708 L381.916 580.085 L371.91 591.029 L361.904 601.464 L351.898 612.383 L341.892 622.248 L331.887 630.881 L321.881 639.632 L311.875 650.137 L301.869 657.893  Z" fill="#dc143c" fill-rule="evenodd" fill-opacity="0.3"/>
<polyline clip-path="url(#clip512)" style="stroke:#dc143c; stroke-linecap:round; stroke-linejoin:round; stroke-width:8; stroke-opacity:1; fill:none" points="301.869,750.698 311.875,736.997 321.881,723.296 331.887,709.595 341.892,695.894 351.898,682.194 361.904,668.493 371.91,654.792 381.916,641.091 391.921,627.39 401.927,613.689 411.933,599.988 421.939,586.288 431.944,572.587 441.95,558.886 451.956,545.185 461.962,531.484 471.968,517.783 481.973,504.082 491.979,490.391 501.985,476.707 511.991,463.041 521.997,449.529 532.002,436.74 542.008,425.615 552.014,417.808 562.02,414.412 572.026,416.342 582.031,422.969 592.037,433.023 602.043,445.205 612.049,458.618 622.054,472.791 632.06,487.351 642.066,501.994 652.072,516.637 662.078,531.28 672.083,545.924 682.089,560.567 692.095,575.21 702.101,589.853 712.107,604.496 722.112,619.139 732.118,633.782 742.124,648.426 752.13,663.069 762.136,677.712 772.141,692.355 782.147,706.998 792.153,721.641 802.159,736.285 812.164,750.928 822.17,765.571 832.176,780.214 842.182,794.857 852.188,809.5 862.193,824.143 872.199,838.787 882.205,853.43 892.211,868.073 902.217,882.716 912.222,897.359 922.228,912.002 932.234,926.644 942.24,941.264 952.246,955.875 962.251,970.446 972.257,984.852 982.263,998.917 992.269,1012.14 1002.27,1023.86 1012.28,1033.72 1022.29,1041.77 1032.29,1047.67 1042.3,1050.77 1052.3,1050.12 1062.31,1046.07 1072.32,1038.6 1082.32,1028.44 1092.33,1016.65 1102.33,1004.05 1112.34,991.147 1122.34,978.11 1132.35,965.041 1142.36,951.973 1152.36,938.904 1162.37,925.836 1172.37,912.767 1182.38,899.699 1192.38,886.63 1202.39,873.562 1212.4,860.493 1222.4,847.425 1232.41,834.356 1242.41,821.288 1252.42,808.219 1262.43,795.151 1272.43,782.082 1282.44,769.014 1292.44,755.945 1302.45,742.877 1312.45,729.808 1322.46,716.74 1332.47,703.671 1342.47,690.603 1352.48,677.534 1362.48,664.466 1372.49,651.397 1382.49,638.329 1392.5,625.26 1402.51,612.199 1412.51,599.146 1422.52,586.106 1432.52,573.13 1442.53,560.395 1452.54,547.926 1462.54,535.788 1472.55,524.021 1482.55,512.594 1492.56,501.699 1502.56,491.758 1512.57,483.813 1522.58,478.08 1532.58,475.097 1542.59,474.978 1552.59,477.749 1562.6,483.351 1572.6,491.232 1582.61,500.496 1592.62,510.928 1602.62,521.979 1612.63,533.423 1622.63,545.056 1632.64,556.748 1642.65,568.455 1652.65,580.162 1662.66,591.869 1672.66,603.576 1682.67,615.283 1692.67,626.99 1702.68,638.697 1712.69,650.404 1722.69,662.111 1732.7,673.818 1742.7,685.525 1752.71,697.232 1762.71,708.939 1772.72,720.637 1782.73,732.331 1792.73,744.024 1802.74,755.713 1812.74,767.394 1822.75,779.075 1832.76,790.728 1842.76,802.302 1852.77,813.723 1862.77,824.974 1872.78,836.02 1882.78,846.752 1892.79,857.161 1902.8,867.129 1912.8,876.609 1922.81,885.597 1932.81,893.816 1942.82,901.247 1952.82,907.914 1962.83,913.692 1972.84,918.535 1982.84,922.493 1992.85,925.515 2002.85,927.613 2012.86,928.644 2022.87,928.807 2032.87,928.116 2042.88,926.66 2052.88,924.469 2062.89,921.772 2072.89,918.63 2082.9,915.293 2092.91,911.822 2102.91,908.288 2112.92,904.714 2122.92,901.129 2132.93,897.545 2142.93,893.935 2152.94,890.315 2162.95,886.696 2172.95,883.076 2182.96,879.457 2192.96,875.837 2202.97,872.218 2212.98,868.598 2222.98,864.978 2232.99,861.359 2242.99,857.739 2253,854.12 2263,850.5 2273.01,846.881 2283.02,843.261 2293.02,839.641 "/>
<polyline clip-path="url(#clip512)" style="stroke:#000000; stroke-linecap:round; stroke-linejoin:round; stroke-width:6; stroke-opacity:1; fill:none" points="523.128,393.047 609.134,393.047 "/>
<polyline clip-path="url(#clip512)" style="stroke:#000000; stroke-linecap:round; stroke-linejoin:round; stroke-width:6; stroke-opacity:1; fill:none" points="980.409,1080.76 1100.17,1080.76 "/>
<polyline clip-path="url(#clip512)" style="stroke:#000000; stroke-linecap:round; stroke-linejoin:round; stroke-width:6; stroke-opacity:1; fill:none" points="1464.65,446.343 1602.21,446.343 "/>
<polyline clip-path="url(#clip512)" style="stroke:#000000; stroke-linecap:round; stroke-linejoin:round; stroke-width:6; stroke-opacity:1; fill:none" points="1857.93,943.538 2084.01,943.538 "/>
<line clip-path="url(#clip512)" x1="523.128" y1="413.047" x2="523.128" y2="373.047" style="stroke:#000000; stroke-width:6; stroke-opacity:1"/>
<line clip-path="url(#clip512)" x1="609.134" y1="413.047" x2="609.134" y2="373.047" style="stroke:#000000; stroke-width:6; stroke-opacity:1"/>
<line clip-path="url(#clip512)" x1="980.409" y1="1100.76" x2="980.409" y2="1060.76" style="stroke:#000000; stroke-width:6; stroke-opacity:1"/>
<line clip-path="url(#clip512)" x1="1100.17" y1="1100.76" x2="1100.17" y2="1060.76" style="stroke:#000000; stroke-width:6; stroke-opacity:1"/>
<line clip-path="url(#clip512)" x1="1464.65" y1="466.343" x2="1464.65" y2="426.343" style="stroke:#000000; stroke-width:6; stroke-opacity:1"/>
<line clip-path="url(#clip512)" x1="1602.21" y1="466.343" x2="1602.21" y2="426.343" style="stroke:#000000; stroke-width:6; stroke-opacity:1"/>
<line clip-path="url(#clip512)" x1="1857.93" y1="963.538" x2="1857.93" y2="923.538" style="stroke:#000000; stroke-width:6; stroke-opacity:1"/>
<line clip-path="url(#clip512)" x1="2084.01" y1="963.538" x2="2084.01" y2="923.538" style="stroke:#000000; stroke-width:6; stroke-opacity:1"/>
<circle clip-path="url(#clip512)" cx="566.131" cy="393.047" r="18" fill="#000000" fill-rule="evenodd" fill-opacity="1" stroke="none"/>
<circle clip-path="url(#clip512)" cx="1040.29" cy="1080.76" r="18" fill="#000000" fill-rule="evenodd" fill-opacity="1" stroke="none"/>
<circle clip-path="url(#clip512)" cx="1533.43" cy="446.343" r="18" fill="#000000" fill-rule="evenodd" fill-opacity="1" stroke="none"/>
<circle clip-path="url(#clip512)" cx="1970.97" cy="943.538" r="18" fill="#000000" fill-rule="evenodd" fill-opacity="1" stroke="none"/>
<polyline clip-path="url(#clip512)" style="stroke:#0000ff; stroke-linecap:round; stroke-linejoin:round; stroke-width:8; stroke-opacity:1; fill:none" stroke-dasharray="32, 20" points="301.869,754.706 311.875,740.763 321.881,726.82 331.887,712.878 341.892,698.935 351.898,684.993 361.904,671.05 371.91,657.107 381.916,643.165 391.921,629.222 401.927,615.28 411.933,601.337 421.939,587.395 431.944,573.452 441.95,559.509 451.956,545.567 461.962,531.624 471.968,517.682 481.973,503.739 491.979,489.796 501.985,475.854 511.991,461.911 521.997,447.969 532.002,434.026 542.008,420.083 552.014,406.141 562.02,399.555 572.026,413.328 582.031,427.101 592.037,440.875 602.043,454.648 612.049,468.421 622.054,482.195 632.06,495.968 642.066,509.741 652.072,523.515 662.078,537.288 672.083,551.061 682.089,564.835 692.095,578.608 702.101,592.381 712.107,606.155 722.112,619.928 732.118,633.701 742.124,647.475 752.13,661.248 762.136,675.021 772.141,688.794 782.147,702.568 792.153,716.341 802.159,730.114 812.164,743.888 822.17,757.661 832.176,771.434 842.182,785.208 852.188,798.981 862.193,812.754 872.199,826.528 882.205,840.301 892.211,854.074 902.217,867.848 912.222,881.621 922.228,895.394 932.234,909.168 942.24,922.941 952.246,936.714 962.251,950.488 972.257,964.261 982.263,978.034 992.269,991.808 1002.27,1005.58 1012.28,1019.35 1022.29,1033.13 1032.29,1046.9 1042.3,1060.67 1052.3,1074.45 1062.31,1083.25 1072.32,1069.18 1082.32,1055.1 1092.33,1041.03 1102.33,1026.95 1112.34,1012.88 1122.34,998.806 1132.35,984.733 1142.36,970.659 1152.36,956.585 1162.37,942.511 1172.37,928.437 1182.38,914.364 1192.38,900.29 1202.39,886.216 1212.4,872.142 1222.4,858.069 1232.41,843.995 1242.41,829.921 1252.42,815.847 1262.43,801.774 1272.43,787.7 1282.44,773.626 1292.44,759.552 1302.45,745.478 1312.45,731.405 1322.46,717.331 1332.47,703.257 1342.47,689.183 1352.48,675.11 1362.48,661.036 1372.49,646.962 1382.49,632.888 1392.5,618.814 1402.51,604.741 1412.51,590.667 1422.52,576.593 1432.52,562.519 1442.53,548.446 1452.54,534.372 1462.54,520.298 1472.55,506.224 1482.55,492.15 1492.56,478.077 1502.56,464.003 1512.57,449.929 1522.58,451.916 1532.58,462.478 1542.59,473.041 1552.59,483.603 1562.6,494.166 1572.6,504.728 1582.61,515.291 1592.62,525.853 1602.62,536.416 1612.63,546.978 1622.63,557.541 1632.64,568.103 1642.65,578.666 1652.65,589.228 1662.66,599.791 1672.66,610.353 1682.67,620.916 1692.67,631.478 1702.68,642.041 1712.69,652.603 1722.69,663.166 1732.7,673.728 1742.7,684.291 1752.71,694.853 1762.71,705.416 1772.72,715.978 1782.73,726.54 1792.73,737.103 1802.74,747.665 1812.74,758.228 1822.75,768.79 1832.76,779.353 1842.76,789.915 1852.77,800.478 1862.77,811.04 1872.78,821.603 1882.78,832.165 1892.79,842.728 1902.8,853.29 1912.8,863.853 1922.81,874.415 1932.81,884.978 1942.82,895.54 1952.82,906.103 1962.83,916.665 1972.84,927.228 1982.84,937.79 1992.85,948.353 2002.85,958.915 2012.86,954.849 2022.87,950.329 2032.87,945.809 2042.88,941.289 2052.88,936.769 2062.89,932.25 2072.89,927.73 2082.9,923.21 2092.91,918.69 2102.91,914.17 2112.92,909.65 2122.92,905.131 2132.93,900.611 2142.93,896.091 2152.94,891.571 2162.95,887.051 2172.95,882.532 2182.96,878.012 2192.96,873.492 2202.97,868.972 2212.98,864.452 2222.98,859.932 2232.99,855.413 2242.99,850.893 2253,846.373 2263,841.853 2273.01,837.333 2283.02,832.813 2293.02,828.294 "/>
<polyline clip-path="url(#clip512)" style="stroke:#000000; stroke-linecap:round; stroke-linejoin:round; stroke-width:4; stroke-opacity:1; fill:none" points="514.335,395.899 604.393,395.899 "/>
<polyline clip-path="url(#clip512)" style="stroke:#000000; stroke-linecap:round; stroke-linejoin:round; stroke-width:4; stroke-opacity:1; fill:none" points="1022.49,1085.76 1098.55,1085.76 "/>
<polyline clip-path="url(#clip512)" style="stroke:#000000; stroke-linecap:round; stroke-linejoin:round; stroke-width:4; stroke-opacity:1; fill:none" points="1472.96,445.03 1559.15,445.03 "/>
<polyline clip-path="url(#clip512)" style="stroke:#000000; stroke-linecap:round; stroke-linejoin:round; stroke-width:4; stroke-opacity:1; fill:none" points="1921.09,959.233 2085.22,959.233 "/>
<line clip-path="url(#clip512)" x1="514.335" y1="411.899" x2="514.335" y2="379.899" style="stroke:#0000ff; stroke-width:4; stroke-opacity:1"/>
<line clip-path="url(#clip512)" x1="604.393" y1="411.899" x2="604.393" y2="379.899" style="stroke:#0000ff; stroke-width:4; stroke-opacity:1"/>
<line clip-path="url(#clip512)" x1="1022.49" y1="1101.76" x2="1022.49" y2="1069.76" style="stroke:#0000ff; stroke-width:4; stroke-opacity:1"/>
<line clip-path="url(#clip512)" x1="1098.55" y1="1101.76" x2="1098.55" y2="1069.76" style="stroke:#0000ff; stroke-width:4; stroke-opacity:1"/>
<line clip-path="url(#clip512)" x1="1472.96" y1="461.03" x2="1472.96" y2="429.03" style="stroke:#0000ff; stroke-width:4; stroke-opacity:1"/>
<line clip-path="url(#clip512)" x1="1559.15" y1="461.03" x2="1559.15" y2="429.03" style="stroke:#0000ff; stroke-width:4; stroke-opacity:1"/>
<line clip-path="url(#clip512)" x1="1921.09" y1="975.233" x2="1921.09" y2="943.233" style="stroke:#0000ff; stroke-width:4; stroke-opacity:1"/>
<line clip-path="url(#clip512)" x1="2085.22" y1="975.233" x2="2085.22" y2="943.233" style="stroke:#0000ff; stroke-width:4; stroke-opacity:1"/>
<circle clip-path="url(#clip512)" cx="559.364" cy="395.899" r="14.4" fill="#0000ff" fill-rule="evenodd" fill-opacity="1" stroke="#000000" stroke-opacity="1" stroke-width="3.2"/>
<circle clip-path="url(#clip512)" cx="1060.52" cy="1085.76" r="14.4" fill="#0000ff" fill-rule="evenodd" fill-opacity="1" stroke="#000000" stroke-opacity="1" stroke-width="3.2"/>
<circle clip-path="url(#clip512)" cx="1516.05" cy="445.03" r="14.4" fill="#0000ff" fill-rule="evenodd" fill-opacity="1" stroke="#000000" stroke-opacity="1" stroke-width="3.2"/>
<circle clip-path="url(#clip512)" cx="2003.15" cy="959.233" r="14.4" fill="#0000ff" fill-rule="evenodd" fill-opacity="1" stroke="#000000" stroke-opacity="1" stroke-width="3.2"/>
</svg>
